NimbusSanL-Bold.ufo
<glyph name="exclam" format="1">
  <advance width="333"/>
  <unicode hex="0021"/>
  <outline>
    <contour>
      <point x="262" y="726" type="line"/>
      <point x="262" y="516" type="line"/>
      <point x="220" y="207" type="line"/>
      <point x="153" y="207" type="line"/>
      <point x="112" y="516" type="line"/>
      <point x="112" y="726" type="line"/>
    </contour>
    <contour>
      <point x="262" y="146" type="line"/>
      <point x="262" y="0" type="line"/>
      <point x="112" y="0" type="line"/>
      <point x="112" y="146" type="line"/>
    </contour>
  </outline>
</glyph>
<glyph name="quotedbl" format="1">
  <advance width="474"/>
  <unicode hex="0022"/>
  <outline>
    <contour>
      <point x="188" y="729" type="line"/>
      <point x="188" y="599" type="line"/>
      <point x="146" y="470" type="line"/>
      <point x="90" y="470" type="line"/>
      <point x="50" y="599" type="line"/>
      <point x="50" y="729" type="line"/>
    </contour>
    <contour>
      <point x="424" y="729" type="line"/>
      <point x="424" y="599" type="line"/>
      <point x="382" y="470" type="line"/>
      <point x="326" y="470" type="line"/>
      <point x="286" y="599" type="line"/>
      <point x="286" y="729" type="line"/>
    </contour>
  </outline>
</glyph>
<glyph name="dollar" format="1">
  <advance width="556"/>
  <unicode hex="0024"/>
  <outline>
    <contour>
      <point x="517" y="498" type="curve"/>
      <point x="389" y="498" type="line"/>
      <point x="391" y="559"/>
      <point x="362" y="601"/>
      <point x="311" y="608" type="curve"/>
      <point x="311" y="407" type="line"/>
      <point x="466" y="364"/>
      <point x="527" y="305"/>
      <point x="527" y="195" type="curve" smooth="yes"/>
      <point x="527" y="120"/>
      <point x="495" y="55"/>
      <point x="441" y="20" type="curve" smooth="yes"/>
      <point x="408" y="-1"/>
      <point x="366" y="-15"/>
      <point x="311" y="-21" type="curve"/>
      <point x="311" y="-126" type="line"/>
      <point x="243" y="-126" type="line"/>
      <point x="243" y="-21" type="line"/>
      <point x="183" y="-15"/>
      <point x="146" y="-2"/>
      <point x="108" y="25" type="curve" smooth="yes"/>
      <point x="52" y="65"/>
      <point x="22" y="125"/>
      <point x="22" y="198" type="curve" smooth="yes"/>
      <point x="22" y="207" type="line"/>
      <point x="153" y="207" type="line"/>
      <point x="156" y="137"/>
      <point x="187" y="96"/>
      <point x="243" y="86" type="curve"/>
      <point x="243" y="299" type="line"/>
      <point x="108" y="330"/>
      <point x="39" y="401"/>
      <point x="39" y="512" type="curve" smooth="yes"/>
      <point x="39" y="624"/>
      <point x="114" y="697"/>
      <point x="243" y="709" type="curve"/>
      <point x="243" y="763" type="line"/>
      <point x="311" y="763" type="line"/>
      <point x="311" y="709" type="line"/>
      <point x="437" y="702"/>
      <point x="515" y="623"/>
    </contour>
    <contour>
      <point x="243" y="427" type="curve"/>
      <point x="243" y="608" type="line"/>
      <point x="188" y="597"/>
      <point x="162" y="567"/>
      <point x="162" y="516" type="curve" smooth="yes"/>
      <point x="162" y="472"/>
      <point x="187" y="445"/>
    </contour>
    <contour>
      <point x="311" y="282" type="curve"/>
      <point x="311" y="86" type="line"/>
      <point x="367" y="100"/>
      <point x="395" y="133"/>
      <point x="395" y="183" type="curve" smooth="yes"/>
      <point x="395" y="231"/>
      <point x="367" y="265"/>
    </contour>
  </outline>
</glyph>
<glyph name="percent" format="1">
  <advance width="889"/>
  <unicode hex="0025"/>
  <outline>
    <contour>
      <point x="206" y="701" type="curve" smooth="yes"/>
      <point x="309" y="701"/>
      <point x="390" y="620"/>
      <point x="390" y="517" type="curve" smooth="yes"/>
      <point x="390" y="419"/>
      <point x="306" y="337"/>
      <point x="206" y="337" type="curve" smooth="yes"/>
      <point x="105" y="337"/>
      <point x="22" y="419"/>
      <point x="22" y="519" type="curve" smooth="yes"/>
      <point x="22" y="619"/>
      <point x="105" y="701"/>
    </contour>
    <contour>
      <point x="206" y="602" type="curve" smooth="yes"/>
      <point x="159" y="602"/>
      <point x="121" y="564"/>
      <point x="121" y="519" type="curve" smooth="yes"/>
      <point x="121" y="473"/>
      <point x="159" y="435"/>
      <point x="206" y="435" type="curve" smooth="yes"/>
      <point x="252" y="435"/>
      <point x="291" y="473"/>
      <point x="291" y="518" type="curve" smooth="yes"/>
      <point x="291" y="565"/>
      <point x="253" y="602"/>
    </contour>
    <contour>
      <point x="606" y="709" type="line"/>
      <point x="682" y="709" type="line"/>
      <point x="287" y="-20" type="line"/>
      <point x="210" y="-20" type="line"/>
    </contour>
    <contour>
      <point x="679" y="352" type="curve" smooth="yes"/>
      <point x="782" y="352"/>
      <point x="863" y="271"/>
      <point x="863" y="167" type="curve" smooth="yes"/>
      <point x="863" y="69"/>
      <point x="779" y="-13"/>
      <point x="679" y="-13" type="curve" smooth="yes"/>
      <point x="578" y="-13"/>
      <point x="495" y="69"/>
      <point x="495" y="170" type="curve" smooth="yes"/>
      <point x="495" y="270"/>
      <point x="578" y="352"/>
    </contour>
    <contour>
      <point x="679" y="253" type="curve" smooth="yes"/>
      <point x="632" y="253"/>
      <point x="594" y="215"/>
      <point x="594" y="169" type="curve" smooth="yes"/>
      <point x="594" y="123"/>
      <point x="632" y="85"/>
      <point x="679" y="85" type="curve" smooth="yes"/>
      <point x="725" y="85"/>
      <point x="764" y="123"/>
      <point x="764" y="168" type="curve" smooth="yes"/>
      <point x="764" y="215"/>
      <point x="726" y="253"/>
    </contour>
  </outline>
</glyph>
<glyph name="ampersand" format="1">
  <advance width="722"/>
  <unicode hex="0026"/>
  <outline>
    <contour>
      <point x="526" y="373" type="line"/>
      <point x="639" y="373" type="line"/>
      <point x="639" y="362" type="line"/>
      <point x="639" y="357" type="line"/>
      <point x="637" y="281"/>
      <point x="611" y="200"/>
      <point x="571" y="154" type="curve"/>
      <point x="694" y="0" type="line"/>
      <point x="533" y="0" type="line"/>
      <point x="487" y="56" type="line"/>
      <point x="406" y="-5"/>
      <point x="360" y="-23"/>
      <point x="292" y="-23" type="curve" smooth="yes"/>
      <point x="150" y="-23"/>
      <point x="55" y="63"/>
      <point x="55" y="193" type="curve" smooth="yes"/>
      <point x="55" y="287"/>
      <point x="95" y="340"/>
      <point x="212" y="401" type="curve"/>
      <point x="206" y="409"/>
      <point x="202" y="414"/>
      <point x="200" y="416" type="curve" smooth="yes"/>
      <point x="172" y="450" type="line" smooth="yes"/>
      <point x="144" y="483"/>
      <point x="130" y="519"/>
      <point x="130" y="556" type="curve" smooth="yes"/>
      <point x="130" y="650"/>
      <point x="212" y="723"/>
      <point x="319" y="723" type="curve" smooth="yes"/>
      <point x="426" y="723"/>
      <point x="497" y="661"/>
      <point x="497" y="568" type="curve" smooth="yes"/>
      <point x="497" y="496"/>
      <point x="469" y="453"/>
      <point x="380" y="392" type="curve"/>
      <point x="496" y="248" type="line"/>
      <point x="518" y="290"/>
      <point x="526" y="320"/>
      <point x="526" y="363" type="curve" smooth="yes"/>
    </contour>
    <contour>
      <point x="278" y="319" type="line"/>
      <point x="231" y="290" type="line"/>
      <point x="204" y="272"/>
      <point x="188" y="243"/>
      <point x="188" y="210" type="curve" smooth="yes"/>
      <point x="188" y="150"/>
      <point x="240" y="93"/>
      <point x="294" y="93" type="curve" smooth="yes"/>
      <point x="325" y="93"/>
      <point x="367" y="112"/>
      <point x="414" y="148" type="curve"/>
    </contour>
    <contour>
      <point x="317" y="470" type="curve"/>
      <point x="357" y="492"/>
      <point x="377" y="521"/>
      <point x="377" y="556" type="curve" smooth="yes"/>
      <point x="377" y="593"/>
      <point x="356" y="614"/>
      <point x="320" y="614" type="curve" smooth="yes"/>
      <point x="286" y="614"/>
      <point x="262" y="594"/>
      <point x="262" y="566" type="curve" smooth="yes"/>
      <point x="262" y="541"/>
      <point x="267" y="533"/>
    </contour>
  </outline>
</glyph>
<glyph name="quotesingle" format="1">
  <advance width="238"/>
  <unicode hex="0027"/>
  <outline>
    <contour>
      <point x="188" y="729" type="line"/>
      <point x="188" y="599" type="line"/>
      <point x="146" y="470" type="line"/>
      <point x="90" y="470" type="line"/>
      <point x="50" y="599" type="line"/>
      <point x="50" y="729" type="line"/>
    </contour>
  </outline>
</glyph>
<glyph name="parenleft" format="1">
  <advance width="333"/>
  <unicode hex="0028"/>
  <outline>
    <contour>
      <point x="203" y="729" type="curve"/>
      <point x="303" y="729" type="line"/>
      <point x="197" y="525"/>
      <point x="163" y="411"/>
      <point x="163" y="265" type="curve" smooth="yes"/>
      <point x="163" y="118"/>
      <point x="197" y="6"/>
      <point x="303" y="-200" type="curve"/>
      <point x="203" y="-200" type="line"/>
      <point x="88" y="-27"/>
      <point x="40" y="111"/>
      <point x="40" y="265" type="curve" smooth="yes"/>
      <point x="40" y="418"/>
      <point x="88" y="556"/>
    </contour>
  </outline>
</glyph>
<glyph name="parenright" format="1">
  <advance width="333"/>
  <unicode hex="0029"/>
  <outline>
    <contour>
      <point x="122" y="-200" type="curve"/>
      <point x="22" y="-200" type="line"/>
      <point x="128" y="4"/>
      <point x="162" y="118"/>
      <point x="162" y="264" type="curve" smooth="yes"/>
      <point x="162" y="411"/>
      <point x="128" y="523"/>
      <point x="22" y="729" type="curve"/>
      <point x="122" y="729" type="line"/>
      <point x="237" y="556"/>
      <point x="285" y="418"/>
      <point x="285" y="264" type="curve" smooth="yes"/>
      <point x="285" y="111"/>
      <point x="237" y="-27"/>
    </contour>
  </outline>
</glyph>
<glyph name="plus" format="1">
  <advance width="584"/>
  <unicode hex="002B"/>
  <outline>
    <contour>
      <point x="533" y="291" type="line"/>
      <point x="533" y="172" type="line"/>
      <point x="351" y="172" type="line"/>
      <point x="351" y="-10" type="line"/>
      <point x="232" y="-10" type="line"/>
      <point x="232" y="172" type="line"/>
      <point x="50" y="172" type="line"/>
      <point x="50" y="291" type="line"/>
      <point x="232" y="291" type="line"/>
      <point x="232" y="473" type="line"/>
      <point x="351" y="473" type="line"/>
      <point x="351" y="291" type="line"/>
    </contour>
  </outline>
</glyph>
<glyph name="comma" format="1">
  <advance width="278"/>
  <unicode hex="002C"/>
  <outline>
    <contour>
      <point x="64" y="146" type="line"/>
      <point x="214" y="146" type="line"/>
      <point x="214" y="9" type="line" smooth="yes"/>
      <point x="214" y="-69"/>
      <point x="200" y="-106"/>
      <point x="160" y="-137" type="curve" smooth="yes"/>
      <point x="133" y="-158"/>
      <point x="105" y="-169"/>
      <point x="64" y="-174" type="curve"/>
      <point x="64" y="-118" type="line"/>
      <point x="123" y="-106"/>
      <point x="150" y="-71"/>
      <point x="150" y="-3" type="curve" smooth="yes"/>
      <point x="150" y="0" type="line"/>
      <point x="64" y="0" type="line"/>
    </contour>
  </outline>
</glyph>
<glyph name="hyphen" format="1">
  <advance width="333"/>
  <unicode hex="002D"/>
  <outline>
    <contour>
      <point x="298" y="342" type="line"/>
      <point x="298" y="207" type="line"/>
      <point x="26" y="207" type="line"/>
      <point x="26" y="342" type="line"/>
    </contour>
  </outline>
</glyph>
<glyph name="period" format="1">
  <advance width="278"/>
  <unicode hex="002E"/>
  <outline>
    <contour>
      <point x="214" y="146" type="line"/>
      <point x="214" y="0" type="line"/>
      <point x="64" y="0" type="line"/>
      <point x="64" y="146" type="line"/>
    </contour>
  </outline>
</glyph>
<glyph name="slash" format="1">
  <advance width="278"/>
  <unicode hex="002F"/>
  <outline>
    <contour>
      <point x="208" y="714" type="line"/>
      <point x="275" y="714" type="line"/>
      <point x="69" y="-14" type="line"/>
      <point x="2" y="-14" type="line"/>
    </contour>
  </outline>
</glyph>
<glyph name="one" format="1">
  <advance width="556"/>
  <unicode hex="0031"/>
  <outline>
    <contour>
      <point x="238" y="489" type="line"/>
      <point x="68" y="489" type="line"/>
      <point x="68" y="582" type="line"/>
      <point x="190" y="582"/>
      <point x="263" y="625"/>
      <point x="285" y="709" type="curve"/>
      <point x="378" y="709" type="line"/>
      <point x="378" y="0" type="line"/>
      <point x="238" y="0" type="line"/>
    </contour>
  </outline>
</glyph>
<glyph name="two" format="1">
  <advance width="556"/>
  <unicode hex="0032"/>
  <outline>
    <contour>
      <point x="512" y="125" type="line"/>
      <point x="512" y="0" type="line"/>
      <point x="30" y="0" type="line"/>
      <point x="37" y="131"/>
      <point x="74" y="194"/>
      <point x="194" y="276" type="curve"/>
      <point x="350" y="387"/>
      <point x="375" y="418"/>
      <point x="375" y="496" type="curve" smooth="yes"/>
      <point x="375" y="567"/>
      <point x="337" y="610"/>
      <point x="275" y="610" type="curve" smooth="yes"/>
      <point x="211" y="610"/>
      <point x="174" y="564"/>
      <point x="174" y="485" type="curve" smooth="yes"/>
      <point x="174" y="462" type="line"/>
      <point x="40" y="462" type="line"/>
      <point x="39" y="473"/>
      <point x="39" y="481"/>
      <point x="39" y="487" type="curve" smooth="yes"/>
      <point x="39" y="637"/>
      <point x="125" y="724"/>
      <point x="272" y="724" type="curve" smooth="yes"/>
      <point x="421" y="724"/>
      <point x="515" y="636"/>
      <point x="515" y="499" type="curve" smooth="yes"/>
      <point x="515" y="403"/>
      <point x="479" y="349"/>
      <point x="356" y="259" type="curve" smooth="yes"/>
      <point x="252" y="183"/>
      <point x="230" y="163"/>
      <point x="212" y="125" type="curve"/>
    </contour>
  </outline>
</glyph>
<glyph name="three" format="1">
  <advance width="556"/>
  <unicode hex="0033"/>
  <outline>
    <contour>
      <point x="217" y="317" type="curve"/>
      <point x="217" y="411" type="line"/>
      <point x="229" y="411" type="line" smooth="yes"/>
      <point x="312" y="411"/>
      <point x="353" y="447"/>
      <point x="353" y="518" type="curve" smooth="yes"/>
      <point x="353" y="577"/>
      <point x="321" y="611"/>
      <point x="265" y="611" type="curve" smooth="yes"/>
      <point x="224" y="611"/>
      <point x="192" y="592"/>
      <point x="179" y="561" type="curve" smooth="yes"/>
      <point x="172" y="543"/>
      <point x="169" y="524"/>
      <point x="168" y="486" type="curve"/>
      <point x="38" y="486" type="line"/>
      <point x="38" y="498" type="line" smooth="yes"/>
      <point x="38" y="561"/>
      <point x="51" y="609"/>
      <point x="79" y="644" type="curve" smooth="yes"/>
      <point x="119" y="696"/>
      <point x="187" y="724"/>
      <point x="268" y="724" type="curve" smooth="yes"/>
      <point x="405" y="724"/>
      <point x="493" y="649"/>
      <point x="493" y="531" type="curve" smooth="yes"/>
      <point x="493" y="466"/>
      <point x="466" y="421"/>
      <point x="400" y="380" type="curve"/>
      <point x="480" y="341"/>
      <point x="516" y="287"/>
      <point x="516" y="204" type="curve" smooth="yes"/>
      <point x="516" y="66"/>
      <point x="419" y="-23"/>
      <point x="268" y="-23" type="curve" smooth="yes"/>
      <point x="123" y="-23"/>
      <point x="30" y="66"/>
      <point x="29" y="208" type="curve"/>
      <point x="165" y="208" type="line"/>
      <point x="169" y="135"/>
      <point x="205" y="97"/>
      <point x="271" y="97" type="curve" smooth="yes"/>
      <point x="332" y="97"/>
      <point x="376" y="142"/>
      <point x="376" y="204" type="curve" smooth="yes"/>
      <point x="376" y="256"/>
      <point x="346" y="297"/>
      <point x="299" y="310" type="curve" smooth="yes"/>
      <point x="275" y="316"/>
      <point x="266" y="317"/>
    </contour>
  </outline>
</glyph>
<glyph name="four" format="1">
  <advance width="556"/>
  <unicode hex="0034"/>
  <outline>
    <contour>
      <point x="522" y="273" type="line"/>
      <point x="522" y="157" type="line"/>
      <point x="448" y="157" type="line"/>
      <point x="448" y="0" type="line"/>
      <point x="308" y="0" type="line"/>
      <point x="308" y="157" type="line"/>
      <point x="24" y="157" type="line"/>
      <point x="24" y="275" type="line"/>
      <point x="283" y="709" type="line"/>
      <point x="448" y="709" type="line"/>
      <point x="448" y="273" type="line"/>
    </contour>
    <contour>
      <point x="308" y="273" type="line"/>
      <point x="308" y="576" type="line"/>
      <point x="123" y="273" type="line"/>
    </contour>
  </outline>
</glyph>
<glyph name="five" format="1">
  <advance width="556"/>
  <unicode hex="0035"/>
  <outline>
    <contour>
      <point x="489" y="709" type="line"/>
      <point x="489" y="584" type="line"/>
      <point x="196" y="584" type="line"/>
      <point x="173" y="436" type="line"/>
      <point x="214" y="467"/>
      <point x="249" y="479"/>
      <point x="296" y="479" type="curve" smooth="yes"/>
      <point x="427" y="479"/>
      <point x="517" y="379"/>
      <point x="517" y="234" type="curve" smooth="yes"/>
      <point x="517" y="81"/>
      <point x="413" y="-23"/>
      <point x="261" y="-23" type="curve" smooth="yes"/>
      <point x="123" y="-23"/>
      <point x="29" y="61"/>
      <point x="27" y="185" type="curve"/>
      <point x="165" y="185" type="line"/>
      <point x="168" y="128"/>
      <point x="202" y="97"/>
      <point x="263" y="97" type="curve" smooth="yes"/>
      <point x="333" y="97"/>
      <point x="377" y="148"/>
      <point x="377" y="231" type="curve" smooth="yes"/>
      <point x="377" y="317"/>
      <point x="334" y="368"/>
      <point x="263" y="368" type="curve" smooth="yes"/>
      <point x="220" y="368"/>
      <point x="188" y="349"/>
      <point x="173" y="314" type="curve"/>
      <point x="47" y="314" type="line"/>
      <point x="110" y="709" type="line"/>
    </contour>
  </outline>
</glyph>
<glyph name="six" format="1">
  <advance width="556"/>
  <unicode hex="0036"/>
  <outline>
    <contour>
      <point x="507" y="548" type="curve"/>
      <point x="377" y="548" type="line"/>
      <point x="359" y="593"/>
      <point x="335" y="611"/>
      <point x="290" y="611" type="curve" smooth="yes"/>
      <point x="234" y="611"/>
      <point x="194" y="573"/>
      <point x="181" y="509" type="curve" smooth="yes"/>
      <point x="175" y="479"/>
      <point x="175" y="479"/>
      <point x="172" y="404" type="curve"/>
      <point x="216" y="450"/>
      <point x="255" y="467"/>
      <point x="313" y="467" type="curve" smooth="yes"/>
      <point x="435" y="467"/>
      <point x="519" y="373"/>
      <point x="519" y="237" type="curve" smooth="yes"/>
      <point x="519" y="83"/>
      <point x="423" y="-23"/>
      <point x="282" y="-23" type="curve" smooth="yes"/>
      <point x="198" y="-23"/>
      <point x="124" y="16"/>
      <point x="83" y="82" type="curve" smooth="yes"/>
      <point x="47" y="139"/>
      <point x="32" y="215"/>
      <point x="32" y="337" type="curve" smooth="yes"/>
      <point x="32" y="466"/>
      <point x="49" y="545"/>
      <point x="91" y="614" type="curve" smooth="yes"/>
      <point x="134" y="685"/>
      <point x="206" y="724"/>
      <point x="294" y="724" type="curve" smooth="yes"/>
      <point x="371" y="724"/>
      <point x="436" y="694"/>
      <point x="473" y="643" type="curve" smooth="yes"/>
      <point x="491" y="617"/>
      <point x="500" y="594"/>
    </contour>
    <contour>
      <point x="279" y="357" type="curve" smooth="yes"/>
      <point x="214" y="357"/>
      <point x="170" y="303"/>
      <point x="170" y="225" type="curve" smooth="yes"/>
      <point x="170" y="150"/>
      <point x="214" y="97"/>
      <point x="278" y="97" type="curve" smooth="yes"/>
      <point x="340" y="97"/>
      <point x="386" y="152"/>
      <point x="386" y="228" type="curve" smooth="yes"/>
      <point x="386" y="306"/>
      <point x="344" y="357"/>
    </contour>
  </outline>
</glyph>
<glyph name="seven" format="1">
  <advance width="556"/>
  <unicode hex="0037"/>
  <outline>
    <contour>
      <point x="528" y="709" type="line"/>
      <point x="528" y="599" type="line"/>
      <point x="360" y="396"/>
      <point x="287" y="224"/>
      <point x="274" y="0" type="curve"/>
      <point x="133" y="0" type="line"/>
      <point x="152" y="151"/>
      <point x="177" y="244"/>
      <point x="226" y="347" type="curve"/>
      <point x="254" y="409"/>
      <point x="339" y="538"/>
      <point x="382" y="584" type="curve"/>
      <point x="29" y="584" type="line"/>
      <point x="29" y="709" type="line"/>
    </contour>
  </outline>
</glyph>
<glyph name="eight" format="1">
  <advance width="556"/>
  <unicode hex="0038"/>
  <outline>
    <contour>
      <point x="409" y="386" type="curve"/>
      <point x="491" y="342"/>
      <point x="525" y="288"/>
      <point x="525" y="204" type="curve" smooth="yes"/>
      <point x="525" y="70"/>
      <point x="422" y="-23"/>
      <point x="274" y="-23" type="curve" smooth="yes"/>
      <point x="125" y="-23"/>
      <point x="22" y="70"/>
      <point x="22" y="204" type="curve" smooth="yes"/>
      <point x="22" y="288"/>
      <point x="56" y="342"/>
      <point x="138" y="386" type="curve"/>
      <point x="74" y="420"/>
      <point x="46" y="463"/>
      <point x="46" y="531" type="curve" smooth="yes"/>
      <point x="46" y="643"/>
      <point x="142" y="724"/>
      <point x="274" y="724" type="curve" smooth="yes"/>
      <point x="405" y="724"/>
      <point x="501" y="643"/>
      <point x="501" y="532" type="curve" smooth="yes"/>
      <point x="501" y="486"/>
      <point x="484" y="443"/>
      <point x="455" y="416" type="curve" smooth="yes"/>
      <point x="444" y="406"/>
      <point x="433" y="399"/>
    </contour>
    <contour>
      <point x="275" y="611" type="curve" smooth="yes"/>
      <point x="212" y="611"/>
      <point x="169" y="573"/>
      <point x="169" y="519" type="curve" smooth="yes"/>
      <point x="169" y="464"/>
      <point x="213" y="425"/>
      <point x="275" y="425" type="curve" smooth="yes"/>
      <point x="336" y="425"/>
      <point x="380" y="464"/>
      <point x="380" y="518" type="curve" smooth="yes"/>
      <point x="380" y="573"/>
      <point x="337" y="611"/>
    </contour>
    <contour>
      <point x="273" y="330" type="curve" smooth="yes"/>
      <point x="206" y="330"/>
      <point x="162" y="284"/>
      <point x="162" y="212" type="curve" smooth="yes"/>
      <point x="162" y="142"/>
      <point x="205" y="97"/>
      <point x="273" y="97" type="curve" smooth="yes"/>
      <point x="341" y="97"/>
      <point x="385" y="142"/>
      <point x="385" y="210" type="curve" smooth="yes"/>
      <point x="385" y="284"/>
      <point x="342" y="330"/>
    </contour>
  </outline>
</glyph>
<glyph name="colon" format="1">
  <advance width="333"/>
  <unicode hex="003A"/>
  <outline>
    <contour>
      <point x="263" y="146" type="line"/>
      <point x="263" y="0" type="line"/>
      <point x="113" y="0" type="line"/>
      <point x="113" y="146" type="line"/>
    </contour>
    <contour>
      <point x="263" y="520" type="line"/>
      <point x="263" y="374" type="line"/>
      <point x="113" y="374" type="line"/>
      <point x="113" y="520" type="line"/>
    </contour>
  </outline>
</glyph>
<glyph name="semicolon" format="1">
  <advance width="333"/>
  <unicode hex="003B"/>
  <outline>
    <contour>
      <point x="113" y="146" type="line"/>
      <point x="263" y="146" type="line"/>
      <point x="263" y="9" type="line" smooth="yes"/>
      <point x="263" y="-69"/>
      <point x="249" y="-106"/>
      <point x="209" y="-137" type="curve" smooth="yes"/>
      <point x="182" y="-158"/>
      <point x="154" y="-169"/>
      <point x="113" y="-174" type="curve"/>
      <point x="113" y="-118" type="line"/>
      <point x="172" y="-106"/>
      <point x="199" y="-71"/>
      <point x="199" y="-3" type="curve" smooth="yes"/>
      <point x="199" y="0" type="line"/>
      <point x="113" y="0" type="line"/>
    </contour>
    <contour>
      <point x="263" y="520" type="line"/>
      <point x="263" y="374" type="line"/>
      <point x="113" y="374" type="line"/>
      <point x="113" y="520" type="line"/>
    </contour>
  </outline>
</glyph>
<glyph name="less" format="1">
  <advance width="584"/>
  <unicode hex="003C"/>
  <outline>
    <contour>
      <point x="529" y="474" type="line"/>
      <point x="529" y="365" type="line"/>
      <point x="147" y="232" type="line"/>
      <point x="529" y="101" type="line"/>
      <point x="529" y="-10" type="line"/>
      <point x="40" y="172" type="line"/>
      <point x="40" y="293" type="line"/>
    </contour>
  </outline>
</glyph>
<glyph name="equal" format="1">
  <advance width="584"/>
  <unicode hex="003D"/>
  <outline>
    <contour>
      <point x="534" y="411" type="line"/>
      <point x="534" y="292" type="line"/>
      <point x="50" y="292" type="line"/>
      <point x="50" y="411" type="line"/>
    </contour>
    <contour>
      <point x="534" y="171" type="line"/>
      <point x="534" y="52" type="line"/>
      <point x="50" y="52" type="line"/>
      <point x="50" y="171" type="line"/>
    </contour>
  </outline>
</glyph>
<glyph name="greater" format="1">
  <advance width="584"/>
  <unicode hex="003E"/>
  <outline>
    <contour>
      <point x="40" y="-10" type="line"/>
      <point x="40" y="99" type="line"/>
      <point x="422" y="232" type="line"/>
      <point x="40" y="363" type="line"/>
      <point x="40" y="474" type="line"/>
      <point x="529" y="292" type="line"/>
      <point x="529" y="171" type="line"/>
    </contour>
  </outline>
</glyph>
<glyph name="B" format="1">
  <advance width="722"/>
  <unicode hex="0042"/>
  <outline>
    <contour>
      <point x="82" y="0" type="line"/>
      <point x="82" y="729" type="line"/>
      <point x="407" y="729" type="line" smooth="yes"/>
      <point x="485" y="729"/>
      <point x="536" y="713"/>
      <point x="579" y="676" type="curve" smooth="yes"/>
      <point x="620" y="640"/>
      <point x="645" y="587"/>
      <point x="645" y="537" type="curve" smooth="yes"/>
      <point x="645" y="475"/>
      <point x="617" y="433"/>
      <point x="545" y="387" type="curve"/>
      <point x="627" y="339"/>
      <point x="666" y="282"/>
      <point x="666" y="210" type="curve" smooth="yes"/>
      <point x="666" y="152"/>
      <point x="638" y="90"/>
      <point x="594" y="53" type="curve" smooth="yes"/>
      <point x="550" y="16"/>
      <point x="494" y="0"/>
      <point x="410" y="0" type="curve" smooth="yes"/>
    </contour>
    <contour>
      <point x="232" y="604" type="line"/>
      <point x="232" y="439" type="line"/>
      <point x="395" y="439" type="line" smooth="yes"/>
      <point x="464" y="439"/>
      <point x="501" y="468"/>
      <point x="501" y="521" type="curve" smooth="yes"/>
      <point x="501" y="575"/>
      <point x="464" y="604"/>
      <point x="395" y="604" type="curve" smooth="yes"/>
    </contour>
    <contour>
      <point x="232" y="314" type="line"/>
      <point x="232" y="125" type="line"/>
      <point x="411" y="125" type="line" smooth="yes"/>
      <point x="484" y="125"/>
      <point x="522" y="158"/>
      <point x="522" y="219" type="curve" smooth="yes"/>
      <point x="522" y="281"/>
      <point x="484" y="314"/>
      <point x="411" y="314" type="curve" smooth="yes"/>
    </contour>
  </outline>
</glyph>
<glyph name="C" format="1">
  <advance width="722"/>
  <unicode hex="0043"/>
  <outline>
    <contour>
      <point x="682" y="482" type="curve"/>
      <point x="539" y="482" type="line"/>
      <point x="530" y="521"/>
      <point x="522" y="540"/>
      <point x="506" y="560" type="curve" smooth="yes"/>
      <point x="478" y="595"/>
      <point x="435" y="613"/>
      <point x="383" y="613" type="curve" smooth="yes"/>
      <point x="265" y="613"/>
      <point x="194" y="517"/>
      <point x="194" y="356" type="curve" smooth="yes"/>
      <point x="194" y="197"/>
      <point x="262" y="103"/>
      <point x="378" y="103" type="curve" smooth="yes"/>
      <point x="471" y="103"/>
      <point x="530" y="156"/>
      <point x="539" y="249" type="curve"/>
      <point x="685" y="249" type="line"/>
      <point x="676" y="82"/>
      <point x="555" y="-23"/>
      <point x="374" y="-23" type="curve" smooth="yes"/>
      <point x="171" y="-23"/>
      <point x="44" y="124"/>
      <point x="44" y="358" type="curve" smooth="yes"/>
      <point x="44" y="594"/>
      <point x="172" y="741"/>
      <point x="378" y="741" type="curve" smooth="yes"/>
      <point x="487" y="741"/>
      <point x="577" y="700"/>
      <point x="633" y="626" type="curve" smooth="yes"/>
      <point x="664" y="585"/>
      <point x="677" y="545"/>
    </contour>
  </outline>
</glyph>
<glyph name="F" format="1">
  <advance width="611"/>
  <unicode hex="0046"/>
  <outline>
    <contour>
      <point x="224" y="314" type="line"/>
      <point x="224" y="0" type="line"/>
      <point x="74" y="0" type="line"/>
      <point x="74" y="729" type="line"/>
      <point x="586" y="729" type="line"/>
      <point x="586" y="604" type="line"/>
      <point x="224" y="604" type="line"/>
      <point x="224" y="439" type="line"/>
      <point x="543" y="439" type="line"/>
      <point x="543" y="314" type="line"/>
    </contour>
  </outline>
</glyph>
<glyph name="H" format="1">
  <advance width="722"/>
  <unicode hex="0048"/>
  <outline>
    <contour>
      <point x="507" y="331" type="line"/>
      <point x="218" y="331" type="line"/>
      <point x="218" y="0" type="line"/>
      <point x="68" y="0" type="line"/>
      <point x="68" y="729" type="line"/>
      <point x="218" y="729" type="line"/>
      <point x="218" y="456" type="line"/>
      <point x="506" y="456" type="line"/>
      <point x="506" y="729" type="line"/>
      <point x="657" y="729" type="line"/>
      <point x="657" y="0" type="line"/>
      <point x="507" y="0" type="line"/>
    </contour>
  </outline>
</glyph>
<glyph name="K" format="1">
  <advance width="722"/>
  <unicode hex="004B"/>
  <outline>
    <contour>
      <point x="224" y="244" type="line"/>
      <point x="224" y="0" type="line"/>
      <point x="74" y="0" type="line"/>
      <point x="74" y="729" type="line"/>
      <point x="224" y="729" type="line"/>
      <point x="224" y="409" type="line"/>
      <point x="509" y="729" type="line"/>
      <point x="686" y="729" type="line"/>
      <point x="395" y="415" type="line"/>
      <point x="717" y="0" type="line"/>
      <point x="538" y="0" type="line"/>
      <point x="299" y="322" type="line"/>
    </contour>
  </outline>
</glyph>
<glyph name="M" format="1">
  <advance width="833"/>
  <unicode hex="004D"/>
  <outline>
    <contour>
      <point x="216" y="568" type="line"/>
      <point x="216" y="0" type="line"/>
      <point x="66" y="0" type="line"/>
      <point x="66" y="729" type="line"/>
      <point x="290" y="729" type="line"/>
      <point x="422" y="149" type="line"/>
      <point x="550" y="729" type="line"/>
      <point x="776" y="729" type="line"/>
      <point x="776" y="0" type="line"/>
      <point x="626" y="0" type="line"/>
      <point x="626" y="568" type="line"/>
      <point x="497" y="0" type="line"/>
      <point x="347" y="0" type="line"/>
    </contour>
  </outline>
</glyph>
<glyph name="P" format="1">
  <advance width="667"/>
  <unicode hex="0050"/>
  <outline>
    <contour>
      <point x="226" y="260" type="line"/>
      <point x="226" y="0" type="line"/>
      <point x="76" y="0" type="line"/>
      <point x="76" y="729" type="line"/>
      <point x="398" y="729" type="line" smooth="yes"/>
      <point x="550" y="729"/>
      <point x="633" y="649"/>
      <point x="633" y="503" type="curve" smooth="yes"/>
      <point x="633" y="355"/>
      <point x="547" y="260"/>
      <point x="413" y="260" type="curve" smooth="yes"/>
    </contour>
    <contour>
      <point x="226" y="385" type="line"/>
      <point x="366" y="385" type="line" smooth="yes"/>
      <point x="446" y="385"/>
      <point x="483" y="420"/>
      <point x="483" y="494" type="curve" smooth="yes"/>
      <point x="483" y="569"/>
      <point x="446" y="604"/>
      <point x="366" y="604" type="curve" smooth="yes"/>
      <point x="226" y="604" type="line"/>
    </contour>
  </outline>
</glyph>
<glyph name="V" format="1">
  <advance width="667"/>
  <unicode hex="0056"/>
  <outline>
    <contour>
      <point x="397" y="0" type="line"/>
      <point x="270" y="0" type="line"/>
      <point x="24" y="729" type="line"/>
      <point x="175" y="729" type="line"/>
      <point x="337" y="180" type="line"/>
      <point x="496" y="729" type="line"/>
      <point x="647" y="729" type="line"/>
    </contour>
  </outline>
</glyph>
<glyph name="W" format="1">
  <advance width="944"/>
  <unicode hex="0057"/>
  <outline>
    <contour>
      <point x="730" y="0" type="line"/>
      <point x="595" y="0" type="line"/>
      <point x="473" y="569" type="line"/>
      <point x="354" y="0" type="line"/>
      <point x="219" y="0" type="line"/>
      <point x="13" y="729" type="line"/>
      <point x="172" y="729" type="line"/>
      <point x="285" y="183" type="line"/>
      <point x="398" y="729" type="line"/>
      <point x="546" y="729" type="line"/>
      <point x="664" y="182" type="line"/>
      <point x="773" y="729" type="line"/>
      <point x="932" y="729" type="line"/>
    </contour>
  </outline>
</glyph>
<glyph name="Y" format="1">
  <advance width="667"/>
  <unicode hex="0059"/>
  <outline>
    <contour>
      <point x="419" y="270" type="line"/>
      <point x="419" y="0" type="line"/>
      <point x="269" y="0" type="line"/>
      <point x="269" y="270" type="line"/>
      <point x="27" y="729" type="line"/>
      <point x="194" y="729" type="line"/>
      <point x="343" y="407" type="line"/>
      <point x="482" y="729" type="line"/>
      <point x="650" y="729" type="line"/>
    </contour>
  </outline>
</glyph>
<glyph name="Z" format="1">
  <advance width="611"/>
  <unicode hex="005A"/>
  <outline>
    <contour>
      <point x="578" y="729" type="line"/>
      <point x="578" y="604" type="line"/>
      <point x="206" y="125" type="line"/>
      <point x="578" y="125" type="line"/>
      <point x="578" y="0" type="line"/>
      <point x="30" y="0" type="line"/>
      <point x="30" y="125" type="line"/>
      <point x="403" y="604" type="line"/>
      <point x="30" y="604" type="line"/>
      <point x="30" y="729" type="line"/>
    </contour>
  </outline>
</glyph>
<glyph name="bracketleft" format="1">
  <advance width="333"/>
  <unicode hex="005B"/>
  <outline>
    <contour>
      <point x="308" y="729" type="line"/>
      <point x="308" y="627" type="line"/>
      <point x="196" y="627" type="line"/>
      <point x="196" y="-98" type="line"/>
      <point x="308" y="-98" type="line"/>
      <point x="308" y="-200" type="line"/>
      <point x="66" y="-200" type="line"/>
      <point x="66" y="729" type="line"/>
    </contour>
  </outline>
</glyph>
<glyph name="backslash" format="1">
  <advance width="278"/>
  <unicode hex="005C"/>
  <outline>
    <contour>
      <point x="55" y="714" type="line"/>
      <point x="289" y="-14" type="line"/>
      <point x="222" y="-14" type="line"/>
      <point x="-12" y="714" type="line"/>
    </contour>
  </outline>
</glyph>
<glyph name="bracketright" format="1">
  <advance width="333"/>
  <unicode hex="005D"/>
  <outline>
    <contour>
      <point x="18" y="-200" type="line"/>
      <point x="18" y="-98" type="line"/>
      <point x="130" y="-98" type="line"/>
      <point x="130" y="627" type="line"/>
      <point x="18" y="627" type="line"/>
      <point x="18" y="729" type="line"/>
      <point x="260" y="729" type="line"/>
      <point x="260" y="-200" type="line"/>
    </contour>
  </outline>
</glyph>
<glyph name="underscore" format="1">
  <advance width="556"/>
  <unicode hex="005F"/>
  <outline>
    <contour>
      <point x="578" y="-120" type="line"/>
      <point x="578" y="-189" type="line"/>
      <point x="-22" y="-189" type="line"/>
      <point x="-22" y="-120" type="line"/>
    </contour>
  </outline>
</glyph>
<glyph name="f" format="1">
  <advance width="333"/>
  <unicode hex="0066"/>
  <outline>
    <contour>
      <point x="313" y="529" type="line"/>
      <point x="313" y="436" type="line"/>
      <point x="230" y="436" type="line"/>
      <point x="230" y="0" type="line"/>
      <point x="90" y="0" type="line"/>
      <point x="90" y="436" type="line"/>
      <point x="14" y="436" type="line"/>
      <point x="14" y="529" type="line"/>
      <point x="90" y="529" type="line"/>
      <point x="90" y="594" type="line" smooth="yes"/>
      <point x="90" y="685"/>
      <point x="135" y="729"/>
      <point x="228" y="729" type="curve" smooth="yes"/>
      <point x="247" y="729"/>
      <point x="282" y="728"/>
      <point x="308" y="726" type="curve"/>
      <point x="308" y="621" type="line"/>
      <point x="296" y="623"/>
      <point x="280" y="624"/>
      <point x="268" y="624" type="curve" smooth="yes"/>
      <point x="242" y="624"/>
      <point x="230" y="610"/>
      <point x="230" y="582" type="curve" smooth="yes"/>
      <point x="230" y="529" type="line"/>
    </contour>
  </outline>
</glyph>
<glyph name="h" format="1">
  <advance width="611"/>
  <unicode hex="0068"/>
  <outline>
    <contour>
      <point x="67" y="729" type="line"/>
      <point x="207" y="729" type="line"/>
      <point x="207" y="462" type="line"/>
      <point x="246" y="521"/>
      <point x="296" y="549"/>
      <point x="365" y="549" type="curve" smooth="yes"/>
      <point x="410" y="549"/>
      <point x="455" y="534"/>
      <point x="486" y="508" type="curve" smooth="yes"/>
      <point x="523" y="477"/>
      <point x="541" y="429"/>
      <point x="541" y="362" type="curve" smooth="yes"/>
      <point x="541" y="0" type="line"/>
      <point x="401" y="0" type="line"/>
      <point x="401" y="330" type="line" smooth="yes"/>
      <point x="401" y="365"/>
      <point x="397" y="379"/>
      <point x="385" y="397" type="curve" smooth="yes"/>
      <point x="369" y="419"/>
      <point x="345" y="430"/>
      <point x="315" y="430" type="curve" smooth="yes"/>
      <point x="252" y="430"/>
      <point x="207" y="386"/>
      <point x="207" y="324" type="curve" smooth="yes"/>
      <point x="207" y="0" type="line"/>
      <point x="67" y="0" type="line"/>
    </contour>
  </outline>
</glyph>
<glyph name="j" format="1">
  <advance width="278"/>
  <unicode hex="006A"/>
  <outline>
    <contour>
      <point x="210" y="540" type="line"/>
      <point x="210" y="-94" type="line" smooth="yes"/>
      <point x="210" y="-182"/>
      <point x="174" y="-218"/>
      <point x="87" y="-218" type="curve" smooth="yes"/>
      <point x="67" y="-218"/>
      <point x="32" y="-216"/>
      <point x="4" y="-213" type="curve"/>
      <point x="4" y="-101" type="line"/>
      <point x="14" y="-104"/>
      <point x="20" y="-105"/>
      <point x="29" y="-105" type="curve" smooth="yes"/>
      <point x="59" y="-105"/>
      <point x="70" y="-94"/>
      <point x="70" y="-63" type="curve" smooth="yes"/>
      <point x="70" y="540" type="line"/>
    </contour>
    <contour>
      <point x="210" y="729" type="line"/>
      <point x="210" y="604" type="line"/>
      <point x="70" y="604" type="line"/>
      <point x="70" y="729" type="line"/>
    </contour>
  </outline>
</glyph>
<glyph name="k" format="1">
  <advance width="556"/>
  <unicode hex="006B"/>
  <outline>
    <contour>
      <point x="199" y="330" type="line"/>
      <point x="376" y="540" type="line"/>
      <point x="535" y="540" type="line"/>
      <point x="351" y="336" type="line"/>
      <point x="548" y="0" type="line"/>
      <point x="384" y="0" type="line"/>
      <point x="255" y="238" type="line"/>
      <point x="199" y="177" type="line"/>
      <point x="199" y="0" type="line"/>
      <point x="59" y="0" type="line"/>
      <point x="59" y="729" type="line"/>
      <point x="199" y="729" type="line"/>
    </contour>
  </outline>
</glyph>
<glyph name="m" format="1">
  <advance width="889"/>
  <unicode hex="006D"/>
  <outline>
    <contour>
      <point x="60" y="540" type="line"/>
      <point x="199" y="540" type="line"/>
      <point x="199" y="473" type="line"/>
      <point x="245" y="528"/>
      <point x="285" y="549"/>
      <point x="347" y="549" type="curve" smooth="yes"/>
      <point x="414" y="549"/>
      <point x="468" y="520"/>
      <point x="494" y="469" type="curve"/>
      <point x="536" y="525"/>
      <point x="584" y="549"/>
      <point x="652" y="549" type="curve" smooth="yes"/>
      <point x="760" y="549"/>
      <point x="824" y="487"/>
      <point x="824" y="382" type="curve" smooth="yes"/>
      <point x="824" y="0" type="line"/>
      <point x="684" y="0" type="line"/>
      <point x="684" y="360" type="line" smooth="yes"/>
      <point x="684" y="403"/>
      <point x="655" y="430"/>
      <point x="608" y="430" type="curve" smooth="yes"/>
      <point x="548" y="430"/>
      <point x="512" y="390"/>
      <point x="512" y="324" type="curve" smooth="yes"/>
      <point x="512" y="0" type="line"/>
      <point x="372" y="0" type="line"/>
      <point x="372" y="360" type="line" smooth="yes"/>
      <point x="372" y="403"/>
      <point x="343" y="430"/>
      <point x="296" y="430" type="curve" smooth="yes"/>
      <point x="236" y="430"/>
      <point x="200" y="390"/>
      <point x="200" y="324" type="curve" smooth="yes"/>
      <point x="200" y="0" type="line"/>
      <point x="60" y="0" type="line"/>
    </contour>
  </outline>
</glyph>
<glyph name="n" format="1">
  <advance width="611"/>
  <unicode hex="006E"/>
  <outline>
    <contour>
      <point x="63" y="540" type="line"/>
      <point x="203" y="540" type="line"/>
      <point x="203" y="462" type="line"/>
      <point x="243" y="522"/>
      <point x="292" y="549"/>
      <point x="365" y="549" type="curve" smooth="yes"/>
      <point x="480" y="549"/>
      <point x="546" y="481"/>
      <point x="546" y="362" type="curve" smooth="yes"/>
      <point x="546" y="0" type="line"/>
      <point x="406" y="0" type="line"/>
      <point x="406" y="333" type="line" smooth="yes"/>
      <point x="406" y="397"/>
      <point x="376" y="430"/>
      <point x="316" y="430" type="curve" smooth="yes"/>
      <point x="248" y="430"/>
      <point x="203" y="388"/>
      <point x="203" y="324" type="curve" smooth="yes"/>
      <point x="203" y="0" type="line"/>
      <point x="63" y="0" type="line"/>
    </contour>
  </outline>
</glyph>
<glyph name="q" format="1">
  <advance width="611"/>
  <unicode hex="0071"/>
  <outline>
    <contour>
      <point x="404" y="540" type="line"/>
      <point x="544" y="540" type="line"/>
      <point x="544" y="-218" type="line"/>
      <point x="404" y="-218" type="line"/>
      <point x="404" y="64" type="line"/>
      <point x="371" y="5"/>
      <point x="321" y="-24"/>
      <point x="253" y="-24" type="curve" smooth="yes"/>
      <point x="189" y="-24"/>
      <point x="122" y="10"/>
      <point x="86" y="61" type="curve"/>
      <point x="50" y="110"/>
      <point x="28" y="186"/>
      <point x="28" y="262" type="curve" smooth="yes"/>
      <point x="28" y="427"/>
      <point x="124" y="549"/>
      <point x="254" y="549" type="curve" smooth="yes"/>
      <point x="321" y="549"/>
      <point x="371" y="519"/>
      <point x="404" y="460" type="curve"/>
    </contour>
    <contour>
      <point x="286" y="432" type="curve" smooth="yes"/>
      <point x="216" y="432"/>
      <point x="168" y="363"/>
      <point x="168" y="262" type="curve" smooth="yes"/>
      <point x="168" y="161"/>
      <point x="216" y="93"/>
      <point x="286" y="93" type="curve" smooth="yes"/>
      <point x="356" y="93"/>
      <point x="404" y="161"/>
      <point x="404" y="259" type="curve" smooth="yes"/>
      <point x="404" y="364"/>
      <point x="357" y="432"/>
    </contour>
  </outline>
</glyph>
<glyph name="r" format="1">
  <advance width="389"/>
  <unicode hex="0072"/>
  <outline>
    <contour>
      <point x="63" y="540" type="line"/>
      <point x="203" y="540" type="line"/>
      <point x="203" y="434" type="line"/>
      <point x="233" y="507"/>
      <point x="289" y="549"/>
      <point x="353" y="549" type="curve" smooth="yes"/>
      <point x="357" y="549"/>
      <point x="362" y="549"/>
      <point x="370" y="548" type="curve"/>
      <point x="370" y="406" type="line"/>
      <point x="351" y="409"/>
      <point x="341" y="410"/>
      <point x="326" y="410" type="curve" smooth="yes"/>
      <point x="244" y="410"/>
      <point x="203" y="369"/>
      <point x="203" y="287" type="curve" smooth="yes"/>
      <point x="203" y="0" type="line"/>
      <point x="63" y="0" type="line"/>
    </contour>
  </outline>
</glyph>
<glyph name="v" format="1">
  <advance width="556"/>
  <unicode hex="0076"/>
  <outline>
    <contour>
      <point x="350" y="0" type="line"/>
      <point x="203" y="0" type="line"/>
      <point x="14" y="540" type="line"/>
      <point x="162" y="540" type="line"/>
      <point x="279" y="145" type="line"/>
      <point x="388" y="540" type="line"/>
      <point x="536" y="540" type="line"/>
    </contour>
  </outline>
</glyph>
<glyph name="z" format="1">
  <advance width="500"/>
  <unicode hex="007A"/>
  <outline>
    <contour>
      <point x="459" y="540" type="line"/>
      <point x="459" y="427" type="line"/>
      <point x="194" y="113" type="line"/>
      <point x="468" y="113" type="line"/>
      <point x="468" y="0" type="line"/>
      <point x="21" y="0" type="line"/>
      <point x="21" y="113" type="line"/>
      <point x="288" y="427" type="line"/>
      <point x="39" y="427" type="line"/>
      <point x="39" y="540" type="line"/>
    </contour>
  </outline>
</glyph>
<glyph name="exclamdown" format="1">
  <advance width="333"/>
  <unicode hex="00A1"/>
  <outline>
    <contour>
      <point x="66" y="-186" type="line"/>
      <point x="66" y="24" type="line"/>
      <point x="108" y="333" type="line"/>
      <point x="175" y="333" type="line"/>
      <point x="216" y="24" type="line"/>
      <point x="216" y="-186" type="line"/>
    </contour>
    <contour>
      <point x="66" y="394" type="line"/>
      <point x="66" y="540" type="line"/>
      <point x="216" y="540" type="line"/>
      <point x="216" y="394" type="line"/>
    </contour>
  </outline>
</glyph>
<glyph name="cent" format="1">
  <advance width="556"/>
  <unicode hex="00A2"/>
  <outline>
    <contour>
      <point x="303" y="435" type="curve"/>
      <point x="303" y="91" type="line"/>
      <point x="349" y="98"/>
      <point x="373" y="126"/>
      <point x="388" y="187" type="curve"/>
      <point x="522" y="187" type="line"/>
      <point x="511" y="67"/>
      <point x="422" y="-18"/>
      <point x="303" y="-23" type="curve"/>
      <point x="303" y="-124" type="line"/>
      <point x="259" y="-124" type="line"/>
      <point x="259" y="-22" type="line"/>
      <point x="120" y="-13"/>
      <point x="36" y="93"/>
      <point x="36" y="259" type="curve" smooth="yes"/>
      <point x="36" y="431"/>
      <point x="114" y="533"/>
      <point x="259" y="548" type="curve"/>
      <point x="259" y="634" type="line"/>
      <point x="303" y="634" type="line"/>
      <point x="303" y="549" type="line"/>
      <point x="426" y="547"/>
      <point x="514" y="462"/>
      <point x="522" y="338" type="curve"/>
      <point x="388" y="338" type="line"/>
      <point x="375" y="400"/>
      <point x="350" y="428"/>
    </contour>
    <contour>
      <point x="259" y="94" type="curve"/>
      <point x="259" y="433" type="line"/>
      <point x="205" y="419"/>
      <point x="176" y="359"/>
      <point x="176" y="260" type="curve" smooth="yes"/>
      <point x="176" y="167"/>
      <point x="205" y="110"/>
    </contour>
  </outline>
</glyph>
<glyph name="sterling" format="1">
  <advance width="556"/>
  <unicode hex="00A3"/>
  <outline>
    <contour>
      <point x="375" y="371" type="line"/>
      <point x="375" y="316" type="line"/>
      <point x="253" y="316" type="line"/>
      <point x="265" y="290"/>
      <point x="268" y="277"/>
      <point x="268" y="257" type="curve" smooth="yes"/>
      <point x="268" y="199"/>
      <point x="237" y="153"/>
      <point x="152" y="86" type="curve"/>
      <point x="215" y="116"/>
      <point x="235" y="123"/>
      <point x="264" y="123" type="curve" smooth="yes"/>
      <point x="281" y="123"/>
      <point x="289" y="122"/>
      <point x="328" y="112" type="curve" smooth="yes"/>
      <point x="354" y="105"/>
      <point x="374" y="102"/>
      <point x="391" y="102" type="curve" smooth="yes"/>
      <point x="424" y="102"/>
      <point x="456" y="111"/>
      <point x="496" y="131" type="curve"/>
      <point x="537" y="22" type="line"/>
      <point x="481" y="-11"/>
      <point x="441" y="-23"/>
      <point x="392" y="-23" type="curve" smooth="yes"/>
      <point x="365" y="-23"/>
      <point x="343" y="-19"/>
      <point x="293" y="-7" type="curve" smooth="yes"/>
      <point x="245" y="5"/>
      <point x="221" y="9"/>
      <point x="195" y="9" type="curve" smooth="yes"/>
      <point x="157" y="9"/>
      <point x="130" y="1"/>
      <point x="86" y="-21" type="curve"/>
      <point x="31" y="80" type="line"/>
      <point x="115" y="137"/>
      <point x="141" y="173"/>
      <point x="141" y="231" type="curve" smooth="yes"/>
      <point x="141" y="256"/>
      <point x="136" y="277"/>
      <point x="120" y="316" type="curve"/>
      <point x="31" y="316" type="line"/>
      <point x="31" y="371" type="line"/>
      <point x="91" y="371" type="line"/>
      <point x="46" y="450"/>
      <point x="38" y="472"/>
      <point x="38" y="516" type="curve" smooth="yes"/>
      <point x="38" y="572"/>
      <point x="66" y="629"/>
      <point x="112" y="666" type="curve"/>
      <point x="154" y="698"/>
      <point x="209" y="715"/>
      <point x="276" y="715" type="curve" smooth="yes"/>
      <point x="380" y="715"/>
      <point x="458" y="676"/>
      <point x="494" y="605" type="curve" smooth="yes"/>
      <point x="509" y="576"/>
      <point x="517" y="543"/>
      <point x="522" y="484" type="curve"/>
      <point x="390" y="484" type="line"/>
      <point x="389" y="495" type="line"/>
      <point x="383" y="541"/>
      <point x="375" y="559"/>
      <point x="354" y="577" type="curve" smooth="yes"/>
      <point x="334" y="595"/>
      <point x="307" y="604"/>
      <point x="277" y="604" type="curve" smooth="yes"/>
      <point x="220" y="604"/>
      <point x="179" y="566"/>
      <point x="179" y="513" type="curve" smooth="yes"/>
      <point x="179" y="493"/>
      <point x="182" y="485"/>
      <point x="206" y="436" type="curve" smooth="yes"/>
      <point x="223" y="401"/>
      <point x="230" y="386"/>
      <point x="236" y="371" type="curve"/>
    </contour>
  </outline>
</glyph>
<glyph name="brokenbar" format="1">
  <advance width="280"/>
  <unicode hex="00A6"/>
  <outline>
    <contour>
      <point x="180" y="729" type="line"/>
      <point x="180" y="340" type="line"/>
      <point x="100" y="340" type="line"/>
      <point x="100" y="729" type="line"/>
    </contour>
    <contour>
      <point x="180" y="189" type="line"/>
      <point x="180" y="-200" type="line"/>
      <point x="100" y="-200" type="line"/>
      <point x="100" y="189" type="line"/>
    </contour>
  </outline>
</glyph>
<glyph name="dieresis" format="1">
  <advance width="333"/>
  <unicode hex="00A8"/>
  <outline>
    <contour>
      <point x="128" y="743" type="line"/>
      <point x="128" y="621" type="line"/>
      <point x="18" y="621" type="line"/>
      <point x="18" y="743" type="line"/>
    </contour>
    <contour>
      <point x="314" y="743" type="line"/>
      <point x="314" y="621" type="line"/>
      <point x="204" y="621" type="line"/>
      <point x="204" y="743" type="line"/>
    </contour>
  </outline>
</glyph>
<glyph name="copyright" format="1">
  <advance width="737"/>
  <unicode hex="00A9"/>
  <outline>
    <contour>
      <point x="552" y="431" type="curve"/>
      <point x="462" y="431" type="line"/>
      <point x="451" y="485"/>
      <point x="422" y="509"/>
      <point x="369" y="509" type="curve" smooth="yes"/>
      <point x="298" y="509"/>
      <point x="255" y="453"/>
      <point x="255" y="359" type="curve" smooth="yes"/>
      <point x="255" y="266"/>
      <point x="296" y="211"/>
      <point x="366" y="211" type="curve" smooth="yes"/>
      <point x="423" y="211"/>
      <point x="457" y="241"/>
      <point x="462" y="297" type="curve"/>
      <point x="554" y="297" type="line"/>
      <point x="549" y="192"/>
      <point x="476" y="128"/>
      <point x="364" y="128" type="curve" smooth="yes"/>
      <point x="241" y="128"/>
      <point x="163" y="218"/>
      <point x="163" y="360" type="curve" smooth="yes"/>
      <point x="163" y="503"/>
      <point x="241" y="592"/>
      <point x="367" y="592" type="curve" smooth="yes"/>
      <point x="433" y="592"/>
      <point x="488" y="567"/>
      <point x="522" y="522" type="curve" smooth="yes"/>
      <point x="541" y="496"/>
      <point x="549" y="472"/>
    </contour>
    <contour>
      <point x="369" y="743" type="curve" smooth="yes"/>
      <point x="579" y="743"/>
      <point x="751" y="572"/>
      <point x="751" y="361" type="curve" smooth="yes"/>
      <point x="751" y="147"/>
      <point x="580" y="-22"/>
      <point x="364" y="-22" type="curve" smooth="yes"/>
      <point x="158" y="-22"/>
      <point x="-14" y="152"/>
      <point x="-14" y="361" type="curve" smooth="yes"/>
      <point x="-14" y="571"/>
      <point x="158" y="743"/>
    </contour>
    <contour>
      <point x="368" y="671" type="curve" smooth="yes"/>
      <point x="201" y="671"/>
      <point x="64" y="532"/>
      <point x="64" y="361" type="curve" smooth="yes"/>
      <point x="64" y="192"/>
      <point x="201" y="50"/>
      <point x="365" y="50" type="curve" smooth="yes"/>
      <point x="537" y="50"/>
      <point x="673" y="188"/>
      <point x="673" y="361" type="curve" smooth="yes"/>
      <point x="673" y="532"/>
      <point x="536" y="671"/>
    </contour>
  </outline>
</glyph>
<glyph name="ordfeminine" format="1">
  <advance width="370"/>
  <unicode hex="00AA"/>
  <outline>
    <contour>
      <point x="321" y="340" type="line"/>
      <point x="321" y="262" type="line"/>
      <point x="37" y="262" type="line"/>
      <point x="37" y="340" type="line"/>
    </contour>
    <contour>
      <point x="329" y="410" type="curve"/>
      <point x="329" y="400" type="line"/>
      <point x="237" y="400" type="line"/>
      <point x="229" y="410"/>
      <point x="228" y="416"/>
      <point x="227" y="432" type="curve"/>
      <point x="199" y="402"/>
      <point x="165" y="386"/>
      <point x="129" y="386" type="curve" smooth="yes"/>
      <point x="70" y="386"/>
      <point x="31" y="425"/>
      <point x="31" y="484" type="curve" smooth="yes"/>
      <point x="31" y="543"/>
      <point x="61" y="576"/>
      <point x="126" y="587" type="curve" smooth="yes"/>
      <point x="160" y="593" type="line" smooth="yes"/>
      <point x="201" y="600"/>
      <point x="201" y="600"/>
      <point x="212" y="606" type="curve" smooth="yes"/>
      <point x="221" y="610"/>
      <point x="227" y="620"/>
      <point x="227" y="630" type="curve" smooth="yes"/>
      <point x="227" y="650"/>
      <point x="210" y="661"/>
      <point x="178" y="661" type="curve" smooth="yes"/>
      <point x="138" y="661"/>
      <point x="123" y="649"/>
      <point x="119" y="617" type="curve"/>
      <point x="41" y="617" type="line"/>
      <point x="42" y="691"/>
      <point x="88" y="729"/>
      <point x="176" y="729" type="curve" smooth="yes"/>
      <point x="264" y="729"/>
      <point x="309" y="695"/>
      <point x="309" y="629" type="curve" smooth="yes"/>
      <point x="309" y="450" type="line" smooth="yes"/>
      <point x="309" y="433"/>
      <point x="313" y="424"/>
    </contour>
    <contour>
      <point x="227" y="530" type="curve" smooth="yes"/>
      <point x="227" y="553" type="line"/>
      <point x="217" y="548"/>
      <point x="214" y="547"/>
      <point x="192" y="543" type="curve" smooth="yes"/>
      <point x="163" y="537" type="line" smooth="yes"/>
      <point x="128" y="530"/>
      <point x="115" y="518"/>
      <point x="115" y="493" type="curve" smooth="yes"/>
      <point x="115" y="469"/>
      <point x="132" y="454"/>
      <point x="161" y="454" type="curve" smooth="yes"/>
      <point x="203" y="454"/>
      <point x="227" y="482"/>
    </contour>
  </outline>
</glyph>
<glyph name="logicalnot" format="1">
  <advance width="584"/>
  <unicode hex="00AC"/>
  <outline>
    <contour>
      <point x="40" y="375" type="line"/>
      <point x="544" y="375" type="line"/>
      <point x="544" y="86" type="line"/>
      <point x="467" y="86" type="line"/>
      <point x="467" y="298" type="line"/>
      <point x="40" y="298" type="line"/>
    </contour>
  </outline>
</glyph>
<glyph name="macron" format="1">
  <advance width="333"/>
  <unicode hex="00AF"/>
  <outline>
    <contour>
      <point x="315" y="719" type="line"/>
      <point x="315" y="640" type="line"/>
      <point x="16" y="640" type="line"/>
      <point x="16" y="719" type="line"/>
    </contour>
  </outline>
</glyph>
<glyph name="plusminus" format="1">
  <advance width="584"/>
  <unicode hex="00B1"/>
  <outline>
    <contour>
      <point x="527" y="103" type="line"/>
      <point x="527" y="-16" type="line"/>
      <point x="56" y="-16" type="line"/>
      <point x="56" y="103" type="line"/>
    </contour>
    <contour>
      <point x="527" y="432" type="line"/>
      <point x="527" y="313" type="line"/>
      <point x="351" y="313" type="line"/>
      <point x="351" y="137" type="line"/>
      <point x="232" y="137" type="line"/>
      <point x="232" y="313" type="line"/>
      <point x="56" y="313" type="line"/>
      <point x="56" y="432" type="line"/>
      <point x="232" y="432" type="line"/>
      <point x="232" y="608" type="line"/>
      <point x="351" y="608" type="line"/>
      <point x="351" y="432" type="line"/>
    </contour>
  </outline>
</glyph>
<glyph name="twosuperior" format="1">
  <advance width="351"/>
  <unicode hex="00B2"/>
  <outline>
    <contour>
      <point x="326" y="365" type="line"/>
      <point x="326" y="284" type="line"/>
      <point x="16" y="284" type="line"/>
      <point x="19" y="365"/>
      <point x="42" y="403"/>
      <point x="120" y="453" type="curve"/>
      <point x="219" y="519"/>
      <point x="233" y="535"/>
      <point x="233" y="580" type="curve" smooth="yes"/>
      <point x="233" y="620"/>
      <point x="210" y="644"/>
      <point x="172" y="644" type="curve" smooth="yes"/>
      <point x="134" y="644"/>
      <point x="112" y="618"/>
      <point x="112" y="573" type="curve" smooth="yes"/>
      <point x="112" y="571"/>
      <point x="113" y="564"/>
      <point x="114" y="557" type="curve"/>
      <point x="22" y="557" type="line"/>
      <point x="21" y="565"/>
      <point x="21" y="572"/>
      <point x="21" y="575" type="curve" smooth="yes"/>
      <point x="21" y="667"/>
      <point x="77" y="718"/>
      <point x="177" y="718" type="curve" smooth="yes"/>
      <point x="274" y="718"/>
      <point x="328" y="670"/>
      <point x="328" y="584" type="curve" smooth="yes"/>
      <point x="328" y="524"/>
      <point x="306" y="493"/>
      <point x="226" y="438" type="curve" smooth="yes"/>
      <point x="195" y="416"/>
      <point x="173" y="400"/>
      <point x="167" y="395" type="curve" smooth="yes"/>
      <point x="159" y="389"/>
      <point x="153" y="382"/>
      <point x="139" y="365" type="curve"/>
    </contour>
  </outline>
</glyph>
<glyph name="paragraph" format="1">
  <advance width="556"/>
  <unicode hex="00B6"/>
  <outline>
    <contour>
      <point x="529" y="729" type="line"/>
      <point x="529" y="657" type="line"/>
      <point x="486" y="657" type="line"/>
      <point x="486" y="-191" type="line"/>
      <point x="388" y="-191" type="line"/>
      <point x="388" y="657" type="line"/>
      <point x="325" y="657" type="line"/>
      <point x="325" y="-191" type="line"/>
      <point x="227" y="-191" type="line"/>
      <point x="227" y="267" type="line"/>
      <point x="104" y="273"/>
      <point x="19" y="367"/>
      <point x="19" y="495" type="curve" smooth="yes"/>
      <point x="19" y="550"/>
      <point x="37" y="606"/>
      <point x="70" y="650" type="curve" smooth="yes"/>
      <point x="109" y="703"/>
      <point x="161" y="729"/>
      <point x="226" y="729" type="curve" smooth="yes"/>
    </contour>
  </outline>
</glyph>
<glyph name="periodcentered" format="1">
  <advance width="278"/>
  <unicode hex="00B7"/>
  <outline>
    <contour>
      <point x="64" y="292" type="line"/>
      <point x="188" y="292" type="line"/>
      <point x="188" y="169" type="line"/>
      <point x="64" y="169" type="line"/>
    </contour>
  </outline>
</glyph>
<glyph name="onesuperior" format="1">
  <advance width="351"/>
  <unicode hex="00B9"/>
  <outline>
    <contour>
      <point x="147" y="573" type="line"/>
      <point x="40" y="573" type="line"/>
      <point x="40" y="634" type="line"/>
      <point x="118" y="634"/>
      <point x="164" y="659"/>
      <point x="178" y="709" type="curve"/>
      <point x="242" y="709" type="line"/>
      <point x="242" y="284" type="line"/>
      <point x="147" y="284" type="line"/>
    </contour>
  </outline>
</glyph>
<glyph name="onequarter" format="1">
  <advance width="869"/>
  <unicode hex="00BC"/>
  <outline>
    <contour>
      <point x="147" y="573" type="line"/>
      <point x="40" y="573" type="line"/>
      <point x="40" y="634" type="line"/>
      <point x="118" y="634"/>
      <point x="164" y="659"/>
      <point x="178" y="709" type="curve"/>
      <point x="242" y="709" type="line"/>
      <point x="242" y="284" type="line"/>
      <point x="147" y="284" type="line"/>
    </contour>
    <contour>
      <point x="593" y="715" type="line"/>
      <point x="680" y="715" type="line"/>
      <point x="257" y="-20" type="line"/>
      <point x="170" y="-20" type="line"/>
    </contour>
    <contour>
      <point x="850" y="168" type="line"/>
      <point x="850" y="93" type="line"/>
      <point x="804" y="93" type="line"/>
      <point x="804" y="0" type="line"/>
      <point x="709" y="0" type="line"/>
      <point x="709" y="93" type="line"/>
      <point x="530" y="93" type="line"/>
      <point x="530" y="167" type="line"/>
      <point x="695" y="425" type="line"/>
      <point x="804" y="425" type="line"/>
      <point x="804" y="168" type="line"/>
    </contour>
    <contour>
      <point x="709" y="168" type="line"/>
      <point x="709" y="332" type="line"/>
      <point x="603" y="168" type="line"/>
    </contour>
  </outline>
</glyph>
<glyph name="onehalf" format="1">
  <advance width="869"/>
  <unicode hex="00BD"/>
  <outline>
    <contour>
      <point x="147" y="573" type="line"/>
      <point x="40" y="573" type="line"/>
      <point x="40" y="634" type="line"/>
      <point x="118" y="634"/>
      <point x="164" y="659"/>
      <point x="178" y="709" type="curve"/>
      <point x="242" y="709" type="line"/>
      <point x="242" y="284" type="line"/>
      <point x="147" y="284" type="line"/>
    </contour>
    <contour>
      <point x="587" y="715" type="line"/>
      <point x="674" y="715" type="line"/>
      <point x="251" y="-20" type="line"/>
      <point x="164" y="-20" type="line"/>
    </contour>
    <contour>
      <point x="844" y="81" type="line"/>
      <point x="844" y="0" type="line"/>
      <point x="534" y="0" type="line"/>
      <point x="537" y="81"/>
      <point x="560" y="119"/>
      <point x="638" y="169" type="curve"/>
      <point x="737" y="235"/>
      <point x="751" y="251"/>
      <point x="751" y="296" type="curve" smooth="yes"/>
      <point x="751" y="336"/>
      <point x="728" y="360"/>
      <point x="690" y="360" type="curve" smooth="yes"/>
      <point x="652" y="360"/>
      <point x="630" y="334"/>
      <point x="630" y="289" type="curve" smooth="yes"/>
      <point x="630" y="287"/>
      <point x="631" y="280"/>
      <point x="632" y="273" type="curve"/>
      <point x="540" y="273" type="line"/>
      <point x="539" y="281"/>
      <point x="539" y="288"/>
      <point x="539" y="291" type="curve" smooth="yes"/>
      <point x="539" y="383"/>
      <point x="595" y="434"/>
      <point x="695" y="434" type="curve" smooth="yes"/>
      <point x="792" y="434"/>
      <point x="846" y="386"/>
      <point x="846" y="300" type="curve" smooth="yes"/>
      <point x="846" y="240"/>
      <point x="824" y="209"/>
      <point x="744" y="154" type="curve" smooth="yes"/>
      <point x="714" y="133"/>
      <point x="691" y="116"/>
      <point x="685" y="111" type="curve" smooth="yes"/>
      <point x="677" y="105"/>
      <point x="671" y="98"/>
      <point x="657" y="81" type="curve"/>
    </contour>
  </outline>
</glyph>
<glyph name="threequarters" format="1">
  <advance width="869"/>
  <unicode hex="00BE"/>
  <outline>
    <contour>
      <point x="134" y="471" type="line"/>
      <point x="134" y="533" type="line"/>
      <point x="145" y="533" type="line" smooth="yes"/>
      <point x="194" y="533"/>
      <point x="220" y="553"/>
      <point x="220" y="591" type="curve" smooth="yes"/>
      <point x="220" y="624"/>
      <point x="199" y="645"/>
      <point x="167" y="645" type="curve" smooth="yes"/>
      <point x="143" y="645"/>
      <point x="124" y="634"/>
      <point x="117" y="617" type="curve" smooth="yes"/>
      <point x="112" y="607"/>
      <point x="110" y="596"/>
      <point x="110" y="571" type="curve"/>
      <point x="22" y="571" type="line"/>
      <point x="24" y="621"/>
      <point x="31" y="645"/>
      <point x="50" y="669" type="curve" smooth="yes"/>
      <point x="75" y="700"/>
      <point x="118" y="718"/>
      <point x="170" y="718" type="curve" smooth="yes"/>
      <point x="258" y="718"/>
      <point x="315" y="672"/>
      <point x="315" y="601" type="curve" smooth="yes"/>
      <point x="315" y="563"/>
      <point x="297" y="533"/>
      <point x="263" y="512" type="curve"/>
      <point x="307" y="491"/>
      <point x="329" y="456"/>
      <point x="329" y="409" type="curve" smooth="yes"/>
      <point x="329" y="325"/>
      <point x="266" y="271"/>
      <point x="170" y="271" type="curve" smooth="yes"/>
      <point x="72" y="271"/>
      <point x="16" y="323"/>
      <point x="15" y="414" type="curve"/>
      <point x="107" y="414" type="line"/>
      <point x="110" y="369"/>
      <point x="130" y="348"/>
      <point x="172" y="348" type="curve" smooth="yes"/>
      <point x="208" y="348"/>
      <point x="234" y="373"/>
      <point x="234" y="408" type="curve" smooth="yes"/>
      <point x="234" y="449"/>
      <point x="205" y="470"/>
      <point x="150" y="471" type="curve"/>
    </contour>
    <contour>
      <point x="625" y="715" type="line"/>
      <point x="712" y="715" type="line"/>
      <point x="289" y="-20" type="line"/>
      <point x="202" y="-20" type="line"/>
    </contour>
    <contour>
      <point x="850" y="168" type="line"/>
      <point x="850" y="93" type="line"/>
      <point x="804" y="93" type="line"/>
      <point x="804" y="0" type="line"/>
      <point x="709" y="0" type="line"/>
      <point x="709" y="93" type="line"/>
      <point x="530" y="93" type="line"/>
      <point x="530" y="167" type="line"/>
      <point x="695" y="425" type="line"/>
      <point x="804" y="425" type="line"/>
      <point x="804" y="168" type="line"/>
    </contour>
    <contour>
      <point x="709" y="168" type="line"/>
      <point x="709" y="332" type="line"/>
      <point x="603" y="168" type="line"/>
    </contour>
  </outline>
</glyph>
<glyph name="Atilde" format="1">
  <advance width="722"/>
  <unicode hex="00C3"/>
  <outline>
    <contour>
      <point x="501" y="147" type="line"/>
      <point x="228" y="147" type="line"/>
      <point x="179" y="0" type="line"/>
      <point x="26" y="0" type="line"/>
      <point x="285" y="729" type="line"/>
      <point x="451" y="729" type="line"/>
      <point x="703" y="0" type="line"/>
      <point x="549" y="0" type="line"/>
    </contour>
    <contour>
      <point x="460" y="272" type="line"/>
      <point x="365" y="557" type="line"/>
      <point x="270" y="272" type="line"/>
    </contour>
    <contour>
      <point x="484" y="928" type="curve"/>
      <point x="547" y="928" type="line"/>
      <point x="542" y="843"/>
      <point x="511" y="801"/>
      <point x="452" y="801" type="curve" smooth="yes"/>
      <point x="437" y="801"/>
      <point x="417" y="805"/>
      <point x="397" y="813" type="curve" smooth="yes"/>
      <point x="326" y="839" type="line" smooth="yes"/>
      <point x="315" y="843"/>
      <point x="305" y="845"/>
      <point x="296" y="845" type="curve" smooth="yes"/>
      <point x="272" y="845"/>
      <point x="261" y="832"/>
      <point x="256" y="800" type="curve"/>
      <point x="193" y="800" type="line"/>
      <point x="197" y="878"/>
      <point x="232" y="924"/>
      <point x="287" y="924" type="curve" smooth="yes"/>
      <point x="305" y="924"/>
      <point x="311" y="923"/>
      <point x="343" y="911" type="curve" smooth="yes"/>
      <point x="414" y="886" type="line" smooth="yes"/>
      <point x="421" y="884"/>
      <point x="441" y="880"/>
      <point x="448" y="880" type="curve" smooth="yes"/>
      <point x="469" y="880"/>
      <point x="481" y="896"/>
    </contour>
  </outline>
</glyph>
<glyph name="Adieresis" format="1">
  <advance width="722"/>
  <unicode hex="00C4"/>
  <outline>
    <contour>
      <point x="501" y="147" type="line"/>
      <point x="228" y="147" type="line"/>
      <point x="179" y="0" type="line"/>
      <point x="26" y="0" type="line"/>
      <point x="285" y="729" type="line"/>
      <point x="451" y="729" type="line"/>
      <point x="703" y="0" type="line"/>
      <point x="549" y="0" type="line"/>
    </contour>
    <contour>
      <point x="460" y="272" type="line"/>
      <point x="365" y="557" type="line"/>
      <point x="270" y="272" type="line"/>
    </contour>
    <contour>
      <point x="326" y="922" type="line"/>
      <point x="326" y="800" type="line"/>
      <point x="216" y="800" type="line"/>
      <point x="216" y="922" type="line"/>
    </contour>
    <contour>
      <point x="512" y="922" type="line"/>
      <point x="512" y="800" type="line"/>
      <point x="402" y="800" type="line"/>
      <point x="402" y="922" type="line"/>
    </contour>
  </outline>
</glyph>
<glyph name="Aring" format="1">
  <advance width="722"/>
  <unicode hex="00C5"/>
  <outline>
    <contour>
      <point x="501" y="147" type="line"/>
      <point x="228" y="147" type="line"/>
      <point x="179" y="0" type="line"/>
      <point x="26" y="0" type="line"/>
      <point x="285" y="729" type="line"/>
      <point x="451" y="729" type="line"/>
      <point x="703" y="0" type="line"/>
      <point x="549" y="0" type="line"/>
    </contour>
    <contour>
      <point x="460" y="272" type="line"/>
      <point x="365" y="557" type="line"/>
      <point x="270" y="272" type="line"/>
    </contour>
    <contour>
      <point x="365" y="949" type="curve" smooth="yes"/>
      <point x="415" y="949"/>
      <point x="454" y="909"/>
      <point x="454" y="858" type="curve" smooth="yes"/>
      <point x="454" y="809"/>
      <point x="413" y="769"/>
      <point x="364" y="769" type="curve" smooth="yes"/>
      <point x="314" y="769"/>
      <point x="274" y="809"/>
      <point x="274" y="859" type="curve" smooth="yes"/>
      <point x="274" y="909"/>
      <point x="314" y="949"/>
    </contour>
    <contour>
      <point x="365" y="901" type="curve" smooth="yes"/>
      <point x="341" y="901"/>
      <point x="322" y="882"/>
      <point x="322" y="859" type="curve" smooth="yes"/>
      <point x="322" y="836"/>
      <point x="341" y="817"/>
      <point x="365" y="817" type="curve" smooth="yes"/>
      <point x="387" y="817"/>
      <point x="406" y="836"/>
      <point x="406" y="859" type="curve" smooth="yes"/>
      <point x="406" y="882"/>
      <point x="388" y="901"/>
    </contour>
  </outline>
</glyph>
<glyph name="AE" format="1">
  <advance width="1000"/>
  <unicode hex="00C6"/>
  <outline>
    <contour>
      <point x="430" y="152" type="line"/>
      <point x="207" y="152" type="line"/>
      <point x="154" y="0" type="line"/>
      <point x="1" y="0" type="line"/>
      <point x="264" y="729" type="line"/>
      <point x="946" y="729" type="line"/>
      <point x="946" y="604" type="line"/>
      <point x="580" y="604" type="line"/>
      <point x="580" y="439" type="line"/>
      <point x="919" y="439" type="line"/>
      <point x="919" y="314" type="line"/>
      <point x="580" y="314" type="line"/>
      <point x="580" y="125" type="line"/>
      <point x="966" y="125" type="line"/>
      <point x="966" y="0" type="line"/>
      <point x="430" y="0" type="line"/>
    </contour>
    <contour>
      <point x="430" y="277" type="line"/>
      <point x="430" y="604" type="line"/>
      <point x="363" y="604" type="line"/>
      <point x="249" y="277" type="line"/>
    </contour>
  </outline>
</glyph>
<glyph name="Ccedilla" format="1">
  <advance width="722"/>
  <unicode hex="00C7"/>
  <outline>
    <contour>
      <point x="379" y="-23" type="curve"/>
      <point x="360" y="-63" type="line"/>
      <point x="374" y="-58"/>
      <point x="386" y="-56"/>
      <point x="402" y="-56" type="curve" smooth="yes"/>
      <point x="449" y="-56"/>
      <point x="478" y="-83"/>
      <point x="478" y="-127" type="curve" smooth="yes"/>
      <point x="478" y="-187"/>
      <point x="432" y="-220"/>
      <point x="349" y="-220" type="curve" smooth="yes"/>
      <point x="305" y="-220"/>
      <point x="276" y="-214"/>
      <point x="211" y="-192" type="curve"/>
      <point x="230" y="-140" type="line"/>
      <point x="283" y="-163"/>
      <point x="307" y="-170"/>
      <point x="335" y="-170" type="curve" smooth="yes"/>
      <point x="367" y="-170"/>
      <point x="392" y="-152"/>
      <point x="392" y="-129" type="curve" smooth="yes"/>
      <point x="392" y="-108"/>
      <point x="372" y="-94"/>
      <point x="341" y="-94" type="curve" smooth="yes"/>
      <point x="321" y="-94"/>
      <point x="311" y="-97"/>
      <point x="292" y="-106" type="curve"/>
      <point x="335" y="-23" type="line"/>
      <point x="242" y="-7"/>
      <point x="203" y="11"/>
      <point x="155" y="56" type="curve" smooth="yes"/>
      <point x="82" y="126"/>
      <point x="44" y="230"/>
      <point x="44" y="358" type="curve" smooth="yes"/>
      <point x="44" y="594"/>
      <point x="172" y="741"/>
      <point x="378" y="741" type="curve" smooth="yes"/>
      <point x="487" y="741"/>
      <point x="577" y="700"/>
      <point x="633" y="626" type="curve" smooth="yes"/>
      <point x="664" y="585"/>
      <point x="677" y="545"/>
      <point x="682" y="482" type="curve"/>
      <point x="539" y="482" type="line"/>
      <point x="530" y="521"/>
      <point x="522" y="540"/>
      <point x="506" y="560" type="curve" smooth="yes"/>
      <point x="478" y="595"/>
      <point x="435" y="613"/>
      <point x="383" y="613" type="curve" smooth="yes"/>
      <point x="265" y="613"/>
      <point x="194" y="517"/>
      <point x="194" y="356" type="curve" smooth="yes"/>
      <point x="194" y="197"/>
      <point x="262" y="103"/>
      <point x="378" y="103" type="curve" smooth="yes"/>
      <point x="471" y="103"/>
      <point x="530" y="156"/>
      <point x="539" y="249" type="curve"/>
      <point x="685" y="249" type="line"/>
      <point x="677" y="84"/>
      <point x="561" y="-19"/>
    </contour>
  </outline>
</glyph>
<glyph name="Egrave" format="1">
  <advance width="667"/>
  <unicode hex="00C8"/>
  <outline>
    <contour>
      <point x="229" y="314" type="line"/>
      <point x="229" y="125" type="line"/>
      <point x="624" y="125" type="line"/>
      <point x="624" y="0" type="line"/>
      <point x="79" y="0" type="line"/>
      <point x="79" y="729" type="line"/>
      <point x="606" y="729" type="line"/>
      <point x="606" y="604" type="line"/>
      <point x="229" y="604" type="line"/>
      <point x="229" y="439" type="line"/>
      <point x="578" y="439" type="line"/>
      <point x="578" y="314" type="line"/>
    </contour>
    <contour>
      <point x="208" y="936" type="line"/>
      <point x="334" y="936" type="line"/>
      <point x="404" y="786" type="line"/>
      <point x="334" y="786" type="line"/>
    </contour>
  </outline>
</glyph>
<glyph name="Ecircumflex" format="1">
  <advance width="667"/>
  <unicode hex="00CA"/>
  <outline>
    <contour>
      <point x="229" y="314" type="line"/>
      <point x="229" y="125" type="line"/>
      <point x="624" y="125" type="line"/>
      <point x="624" y="0" type="line"/>
      <point x="79" y="0" type="line"/>
      <point x="79" y="729" type="line"/>
      <point x="606" y="729" type="line"/>
      <point x="606" y="604" type="line"/>
      <point x="229" y="604" type="line"/>
      <point x="229" y="439" type="line"/>
      <point x="578" y="439" type="line"/>
      <point x="578" y="314" type="line"/>
    </contour>
    <contour>
      <point x="294" y="936" type="line"/>
      <point x="401" y="936" type="line"/>
      <point x="504" y="786" type="line"/>
      <point x="426" y="786" type="line"/>
      <point x="344" y="886" type="line"/>
      <point x="262" y="786" type="line"/>
      <point x="186" y="786" type="line"/>
    </contour>
  </outline>
</glyph>
<glyph name="Iacute" format="1">
  <advance width="278"/>
  <unicode hex="00CD"/>
  <outline>
    <contour>
      <point x="213" y="729" type="line"/>
      <point x="213" y="0" type="line"/>
      <point x="63" y="0" type="line"/>
      <point x="63" y="729" type="line"/>
    </contour>
    <contour>
      <point x="290" y="936" type="line"/>
      <point x="164" y="786" type="line"/>
      <point x="94" y="786" type="line"/>
      <point x="164" y="936" type="line"/>
    </contour>
  </outline>
</glyph>
<glyph name="Icircumflex" format="1">
  <advance width="278"/>
  <unicode hex="00CE"/>
  <outline>
    <contour>
      <point x="213" y="729" type="line"/>
      <point x="213" y="0" type="line"/>
      <point x="63" y="0" type="line"/>
      <point x="63" y="729" type="line"/>
    </contour>
    <contour>
      <point x="89" y="936" type="line"/>
      <point x="196" y="936" type="line"/>
      <point x="299" y="786" type="line"/>
      <point x="221" y="786" type="line"/>
      <point x="139" y="886" type="line"/>
      <point x="57" y="786" type="line"/>
      <point x="-19" y="786" type="line"/>
    </contour>
  </outline>
</glyph>
<glyph name="Ntilde" format="1">
  <advance width="722"/>
  <unicode hex="00D1"/>
  <outline>
    <contour>
      <point x="511" y="0" type="line"/>
      <point x="218" y="504" type="line"/>
      <point x="218" y="0" type="line"/>
      <point x="68" y="0" type="line"/>
      <point x="68" y="729" type="line"/>
      <point x="222" y="729" type="line"/>
      <point x="511" y="233" type="line"/>
      <point x="511" y="729" type="line"/>
      <point x="661" y="729" type="line"/>
      <point x="661" y="0" type="line"/>
    </contour>
    <contour>
      <point x="485" y="928" type="curve"/>
      <point x="548" y="928" type="line"/>
      <point x="543" y="843"/>
      <point x="512" y="801"/>
      <point x="453" y="801" type="curve" smooth="yes"/>
      <point x="438" y="801"/>
      <point x="418" y="805"/>
      <point x="398" y="813" type="curve" smooth="yes"/>
      <point x="327" y="839" type="line" smooth="yes"/>
      <point x="316" y="843"/>
      <point x="306" y="845"/>
      <point x="297" y="845" type="curve" smooth="yes"/>
      <point x="273" y="845"/>
      <point x="262" y="832"/>
      <point x="257" y="800" type="curve"/>
      <point x="194" y="800" type="line"/>
      <point x="198" y="878"/>
      <point x="233" y="924"/>
      <point x="288" y="924" type="curve" smooth="yes"/>
      <point x="306" y="924"/>
      <point x="312" y="923"/>
      <point x="344" y="911" type="curve" smooth="yes"/>
      <point x="415" y="886" type="line" smooth="yes"/>
      <point x="422" y="884"/>
      <point x="442" y="880"/>
      <point x="449" y="880" type="curve" smooth="yes"/>
      <point x="470" y="880"/>
      <point x="482" y="896"/>
    </contour>
  </outline>
</glyph>
<glyph name="Oslash" format="1">
  <advance width="778"/>
  <unicode hex="00D8"/>
  <outline>
    <contour>
      <point x="165" y="52" type="curve"/>
      <point x="82" y="-39" type="line"/>
      <point x="31" y="7" type="line"/>
      <point x="117" y="102" type="line"/>
      <point x="62" y="176"/>
      <point x="35" y="261"/>
      <point x="35" y="359" type="curve" smooth="yes"/>
      <point x="35" y="468"/>
      <point x="72" y="571"/>
      <point x="138" y="640" type="curve"/>
      <point x="201" y="708"/>
      <point x="283" y="741"/>
      <point x="388" y="741" type="curve" smooth="yes"/>
      <point x="483" y="741"/>
      <point x="553" y="716"/>
      <point x="620" y="657" type="curve"/>
      <point x="703" y="749" type="line"/>
      <point x="755" y="704" type="line"/>
      <point x="666" y="605" type="line"/>
      <point x="712" y="542"/>
      <point x="740" y="449"/>
      <point x="740" y="357" type="curve" smooth="yes"/>
      <point x="740" y="250"/>
      <point x="702" y="146"/>
      <point x="637" y="78" type="curve"/>
      <point x="574" y="10"/>
      <point x="492" y="-23"/>
      <point x="388" y="-23" type="curve" smooth="yes"/>
      <point x="298" y="-23"/>
      <point x="223" y="2"/>
    </contour>
    <contour>
      <point x="567" y="497" type="curve"/>
      <point x="256" y="153" type="line"/>
      <point x="287" y="123"/>
      <point x="336" y="105"/>
      <point x="388" y="105" type="curve" smooth="yes"/>
      <point x="510" y="105"/>
      <point x="590" y="206"/>
      <point x="590" y="361" type="curve" smooth="yes"/>
      <point x="590" y="408"/>
      <point x="582" y="457"/>
    </contour>
    <contour>
      <point x="214" y="209" type="curve"/>
      <point x="528" y="555" type="line"/>
      <point x="491" y="594"/>
      <point x="444" y="613"/>
      <point x="388" y="613" type="curve" smooth="yes"/>
      <point x="264" y="613"/>
      <point x="185" y="512"/>
      <point x="185" y="356" type="curve" smooth="yes"/>
      <point x="185" y="301"/>
      <point x="195" y="251"/>
    </contour>
  </outline>
</glyph>
<glyph name="Ugrave" format="1">
  <advance width="722"/>
  <unicode hex="00D9"/>
  <outline>
    <contour>
      <point x="504" y="729" type="line"/>
      <point x="654" y="729" type="line"/>
      <point x="654" y="235" type="line" smooth="yes"/>
      <point x="654" y="153"/>
      <point x="632" y="95"/>
      <point x="583" y="51" type="curve" smooth="yes"/>
      <point x="530" y="3"/>
      <point x="453" y="-23"/>
      <point x="365" y="-23" type="curve" smooth="yes"/>
      <point x="277" y="-23"/>
      <point x="200" y="3"/>
      <point x="147" y="51" type="curve" smooth="yes"/>
      <point x="98" y="95"/>
      <point x="76" y="153"/>
      <point x="76" y="235" type="curve" smooth="yes"/>
      <point x="76" y="729" type="line"/>
      <point x="226" y="729" type="line"/>
      <point x="226" y="235" type="line" smooth="yes"/>
      <point x="226" y="147"/>
      <point x="271" y="105"/>
      <point x="365" y="105" type="curve" smooth="yes"/>
      <point x="459" y="105"/>
      <point x="504" y="147"/>
      <point x="504" y="235" type="curve" smooth="yes"/>
    </contour>
    <contour>
      <point x="228" y="936" type="line"/>
      <point x="354" y="936" type="line"/>
      <point x="424" y="786" type="line"/>
      <point x="354" y="786" type="line"/>
    </contour>
  </outline>
</glyph>
<glyph name="Udieresis" format="1">
  <advance width="722"/>
  <unicode hex="00DC"/>
  <outline>
    <contour>
      <point x="504" y="729" type="line"/>
      <point x="654" y="729" type="line"/>
      <point x="654" y="235" type="line" smooth="yes"/>
      <point x="654" y="153"/>
      <point x="632" y="95"/>
      <point x="583" y="51" type="curve" smooth="yes"/>
      <point x="530" y="3"/>
      <point x="453" y="-23"/>
      <point x="365" y="-23" type="curve" smooth="yes"/>
      <point x="277" y="-23"/>
      <point x="200" y="3"/>
      <point x="147" y="51" type="curve" smooth="yes"/>
      <point x="98" y="95"/>
      <point x="76" y="153"/>
      <point x="76" y="235" type="curve" smooth="yes"/>
      <point x="76" y="729" type="line"/>
      <point x="226" y="729" type="line"/>
      <point x="226" y="235" type="line" smooth="yes"/>
      <point x="226" y="147"/>
      <point x="271" y="105"/>
      <point x="365" y="105" type="curve" smooth="yes"/>
      <point x="459" y="105"/>
      <point x="504" y="147"/>
      <point x="504" y="235" type="curve" smooth="yes"/>
    </contour>
    <contour>
      <point x="327" y="922" type="line"/>
      <point x="327" y="800" type="line"/>
      <point x="217" y="800" type="line"/>
      <point x="217" y="922" type="line"/>
    </contour>
    <contour>
      <point x="513" y="922" type="line"/>
      <point x="513" y="800" type="line"/>
      <point x="403" y="800" type="line"/>
      <point x="403" y="922" type="line"/>
    </contour>
  </outline>
</glyph>
<glyph name="Thorn" format="1">
  <advance width="667"/>
  <unicode hex="00DE"/>
  <outline>
    <contour>
      <point x="226" y="140" type="line"/>
      <point x="226" y="0" type="line"/>
      <point x="76" y="0" type="line"/>
      <point x="76" y="729" type="line"/>
      <point x="226" y="729" type="line"/>
      <point x="226" y="609" type="line"/>
      <point x="398" y="609" type="line" smooth="yes"/>
      <point x="480" y="609"/>
      <point x="531" y="592"/>
      <point x="571" y="553" type="curve" smooth="yes"/>
      <point x="613" y="512"/>
      <point x="633" y="456"/>
      <point x="633" y="382" type="curve" smooth="yes"/>
      <point x="633" y="233"/>
      <point x="548" y="140"/>
      <point x="413" y="140" type="curve" smooth="yes"/>
    </contour>
    <contour>
      <point x="226" y="265" type="line"/>
      <point x="366" y="265" type="line" smooth="yes"/>
      <point x="446" y="265"/>
      <point x="483" y="300"/>
      <point x="483" y="374" type="curve" smooth="yes"/>
      <point x="483" y="449"/>
      <point x="446" y="484"/>
      <point x="366" y="484" type="curve" smooth="yes"/>
      <point x="226" y="484" type="line"/>
    </contour>
  </outline>
</glyph>
<glyph name="germandbls" format="1">
  <advance width="611"/>
  <unicode hex="00DF"/>
  <outline>
    <contour>
      <point x="285" y="349" type="line"/>
      <point x="285" y="444" type="line"/>
      <point x="294" y="444" type="line"/>
      <point x="354" y="445"/>
      <point x="392" y="479"/>
      <point x="392" y="533" type="curve" smooth="yes"/>
      <point x="392" y="585"/>
      <point x="355" y="616"/>
      <point x="294" y="616" type="curve" smooth="yes"/>
      <point x="239" y="616"/>
      <point x="207" y="587"/>
      <point x="207" y="537" type="curve" smooth="yes"/>
      <point x="207" y="0" type="line"/>
      <point x="67" y="0" type="line"/>
      <point x="67" y="518" type="line" smooth="yes"/>
      <point x="67" y="596"/>
      <point x="85" y="645"/>
      <point x="128" y="679" type="curve" smooth="yes"/>
      <point x="167" y="710"/>
      <point x="234" y="729"/>
      <point x="303" y="729" type="curve" smooth="yes"/>
      <point x="438" y="729"/>
      <point x="532" y="654"/>
      <point x="532" y="547" type="curve" smooth="yes"/>
      <point x="532" y="480"/>
      <point x="502" y="433"/>
      <point x="445" y="411" type="curve"/>
      <point x="479" y="404"/>
      <point x="499" y="394"/>
      <point x="524" y="371" type="curve" smooth="yes"/>
      <point x="560" y="336"/>
      <point x="575" y="298"/>
      <point x="575" y="236" type="curve" smooth="yes"/>
      <point x="575" y="84"/>
      <point x="488" y="-17"/>
      <point x="357" y="-17" type="curve" smooth="yes"/>
      <point x="335" y="-17"/>
      <point x="318" y="-15"/>
      <point x="285" y="-11" type="curve"/>
      <point x="285" y="101" type="line"/>
      <point x="291" y="102"/>
      <point x="296" y="102"/>
      <point x="298" y="102" type="curve" smooth="yes"/>
      <point x="318" y="103" type="line"/>
      <point x="387" y="104"/>
      <point x="435" y="155"/>
      <point x="435" y="226" type="curve" smooth="yes"/>
      <point x="435" y="302"/>
      <point x="383" y="349"/>
      <point x="298" y="349" type="curve" smooth="yes"/>
    </contour>
  </outline>
</glyph>
<glyph name="agrave" format="1">
  <advance width="556"/>
  <unicode hex="00E0"/>
  <outline>
    <contour>
      <point x="524" y="17" type="curve"/>
      <point x="524" y="0" type="line"/>
      <point x="372" y="0" type="line"/>
      <point x="359" y="16"/>
      <point x="356" y="26"/>
      <point x="356" y="54" type="curve"/>
      <point x="307" y="3"/>
      <point x="252" y="-23"/>
      <point x="192" y="-23" type="curve" smooth="yes"/>
      <point x="144" y="-23"/>
      <point x="97" y="-4"/>
      <point x="66" y="28" type="curve" smooth="yes"/>
      <point x="41" y="55"/>
      <point x="28" y="93"/>
      <point x="28" y="139" type="curve" smooth="yes"/>
      <point x="28" y="236"/>
      <point x="80" y="291"/>
      <point x="187" y="309" type="curve"/>
      <point x="243" y="319" type="line"/>
      <point x="312" y="330"/>
      <point x="312" y="330"/>
      <point x="331" y="340" type="curve" smooth="yes"/>
      <point x="346" y="348"/>
      <point x="355" y="364"/>
      <point x="355" y="382" type="curve" smooth="yes"/>
      <point x="355" y="418"/>
      <point x="328" y="436"/>
      <point x="274" y="436" type="curve" smooth="yes"/>
      <point x="205" y="436"/>
      <point x="182" y="418"/>
      <point x="175" y="362" type="curve"/>
      <point x="40" y="362" type="line"/>
      <point x="49" y="487"/>
      <point x="125" y="549"/>
      <point x="271" y="549" type="curve" smooth="yes"/>
      <point x="417" y="549"/>
      <point x="492" y="493"/>
      <point x="492" y="383" type="curve" smooth="yes"/>
      <point x="492" y="83" type="line" smooth="yes"/>
      <point x="492" y="55"/>
      <point x="499" y="40"/>
    </contour>
    <contour>
      <point x="355" y="217" type="curve" smooth="yes"/>
      <point x="355" y="255" type="line"/>
      <point x="339" y="247"/>
      <point x="333" y="245"/>
      <point x="296" y="238" type="curve" smooth="yes"/>
      <point x="248" y="229" type="line"/>
      <point x="190" y="217"/>
      <point x="168" y="197"/>
      <point x="168" y="155" type="curve" smooth="yes"/>
      <point x="168" y="115"/>
      <point x="197" y="90"/>
      <point x="244" y="90" type="curve" smooth="yes"/>
      <point x="315" y="90"/>
      <point x="355" y="136"/>
    </contour>
    <contour>
      <point x="132" y="757" type="line"/>
      <point x="258" y="757" type="line"/>
      <point x="328" y="607" type="line"/>
      <point x="258" y="607" type="line"/>
    </contour>
  </outline>
</glyph>
<glyph name="idieresis" format="1">
  <advance width="278"/>
  <unicode hex="00EF"/>
  <outline>
    <contour>
      <point x="207" y="540" type="line"/>
      <point x="207" y="0" type="line"/>
      <point x="67" y="0" type="line"/>
      <point x="67" y="540" type="line"/>
    </contour>
    <contour>
      <point x="101" y="743" type="line"/>
      <point x="101" y="621" type="line"/>
      <point x="-9" y="621" type="line"/>
      <point x="-9" y="743" type="line"/>
    </contour>
    <contour>
      <point x="287" y="743" type="line"/>
      <point x="287" y="621" type="line"/>
      <point x="177" y="621" type="line"/>
      <point x="177" y="743" type="line"/>
    </contour>
  </outline>
</glyph>
<glyph name="eth" format="1">
  <advance width="611"/>
  <unicode hex="00F0"/>
  <outline>
    <contour>
      <point x="432" y="710" type="line"/>
      <point x="348" y="660" type="line"/>
      <point x="499" y="558"/>
      <point x="569" y="435"/>
      <point x="569" y="269" type="curve" smooth="yes"/>
      <point x="569" y="85"/>
      <point x="470" y="-23"/>
      <point x="302" y="-23" type="curve" smooth="yes"/>
      <point x="135" y="-23"/>
      <point x="35" y="85"/>
      <point x="35" y="265" type="curve" smooth="yes"/>
      <point x="35" y="375"/>
      <point x="72" y="452"/>
      <point x="148" y="497" type="curve" smooth="yes"/>
      <point x="187" y="521"/>
      <point x="231" y="534"/>
      <point x="274" y="534" type="curve" smooth="yes"/>
      <point x="300" y="534"/>
      <point x="320" y="530"/>
      <point x="359" y="515" type="curve"/>
      <point x="332" y="558"/>
      <point x="302" y="589"/>
      <point x="264" y="611" type="curve"/>
      <point x="187" y="565" type="line"/>
      <point x="145" y="602" type="line"/>
      <point x="215" y="646" type="line"/>
      <point x="188" y="662"/>
      <point x="174" y="670"/>
      <point x="125" y="694" type="curve"/>
      <point x="192" y="741" type="line"/>
      <point x="229" y="727"/>
      <point x="232" y="725"/>
      <point x="279" y="699" type="curve" smooth="yes"/>
      <point x="280" y="698"/>
      <point x="286" y="695"/>
      <point x="294" y="692" type="curve"/>
      <point x="381" y="744" type="line"/>
    </contour>
    <contour>
      <point x="302" y="429" type="curve" smooth="yes"/>
      <point x="226" y="429"/>
      <point x="176" y="362"/>
      <point x="176" y="260" type="curve" smooth="yes"/>
      <point x="176" y="157"/>
      <point x="226" y="90"/>
      <point x="302" y="90" type="curve" smooth="yes"/>
      <point x="378" y="90"/>
      <point x="428" y="157"/>
      <point x="428" y="257" type="curve" smooth="yes"/>
      <point x="428" y="362"/>
      <point x="379" y="429"/>
    </contour>
  </outline>
</glyph>
<glyph name="ntilde" format="1">
  <advance width="611"/>
  <unicode hex="00F1"/>
  <outline>
    <contour>
      <point x="63" y="540" type="line"/>
      <point x="203" y="540" type="line"/>
      <point x="203" y="462" type="line"/>
      <point x="243" y="522"/>
      <point x="292" y="549"/>
      <point x="365" y="549" type="curve" smooth="yes"/>
      <point x="480" y="549"/>
      <point x="546" y="481"/>
      <point x="546" y="362" type="curve" smooth="yes"/>
      <point x="546" y="0" type="line"/>
      <point x="406" y="0" type="line"/>
      <point x="406" y="333" type="line" smooth="yes"/>
      <point x="406" y="397"/>
      <point x="376" y="430"/>
      <point x="316" y="430" type="curve" smooth="yes"/>
      <point x="248" y="430"/>
      <point x="203" y="388"/>
      <point x="203" y="324" type="curve" smooth="yes"/>
      <point x="203" y="0" type="line"/>
      <point x="63" y="0" type="line"/>
    </contour>
    <contour>
      <point x="415" y="749" type="curve"/>
      <point x="478" y="749" type="line"/>
      <point x="474" y="664"/>
      <point x="442" y="622"/>
      <point x="383" y="622" type="curve" smooth="yes"/>
      <point x="368" y="622"/>
      <point x="349" y="626"/>
      <point x="328" y="634" type="curve" smooth="yes"/>
      <point x="257" y="660" type="line" smooth="yes"/>
      <point x="245" y="664"/>
      <point x="236" y="666"/>
      <point x="227" y="666" type="curve" smooth="yes"/>
      <point x="203" y="666"/>
      <point x="192" y="653"/>
      <point x="187" y="621" type="curve"/>
      <point x="124" y="621" type="line"/>
      <point x="128" y="699"/>
      <point x="163" y="745"/>
      <point x="218" y="745" type="curve" smooth="yes"/>
      <point x="237" y="745"/>
      <point x="238" y="745"/>
      <point x="274" y="732" type="curve" smooth="yes"/>
      <point x="345" y="707" type="line" smooth="yes"/>
      <point x="352" y="704"/>
      <point x="372" y="701"/>
      <point x="379" y="701" type="curve" smooth="yes"/>
      <point x="400" y="701"/>
      <point x="412" y="717"/>
    </contour>
  </outline>
</glyph>
<glyph name="ograve" format="1">
  <advance width="611"/>
  <unicode hex="00F2"/>
  <outline>
    <contour>
      <point x="301" y="549" type="curve" smooth="yes"/>
      <point x="470" y="549"/>
      <point x="569" y="442"/>
      <point x="569" y="259" type="curve" smooth="yes"/>
      <point x="569" y="86"/>
      <point x="466" y="-23"/>
      <point x="302" y="-23" type="curve" smooth="yes"/>
      <point x="136" y="-23"/>
      <point x="35" y="85"/>
      <point x="35" y="263" type="curve" smooth="yes"/>
      <point x="35" y="440"/>
      <point x="136" y="549"/>
    </contour>
    <contour>
      <point x="302" y="436" type="curve" smooth="yes"/>
      <point x="226" y="436"/>
      <point x="175" y="366"/>
      <point x="175" y="263" type="curve" smooth="yes"/>
      <point x="175" y="160"/>
      <point x="226" y="90"/>
      <point x="302" y="90" type="curve" smooth="yes"/>
      <point x="377" y="90"/>
      <point x="429" y="160"/>
      <point x="429" y="261" type="curve" smooth="yes"/>
      <point x="429" y="367"/>
      <point x="379" y="436"/>
    </contour>
    <contour>
      <point x="165" y="757" type="line"/>
      <point x="291" y="757" type="line"/>
      <point x="361" y="607" type="line"/>
      <point x="291" y="607" type="line"/>
    </contour>
  </outline>
</glyph>
<glyph name="divide" format="1">
  <advance width="584"/>
  <unicode hex="00F7"/>
  <outline>
    <contour>
      <point x="534" y="291" type="line"/>
      <point x="534" y="172" type="line"/>
      <point x="50" y="172" type="line"/>
      <point x="50" y="291" type="line"/>
    </contour>
    <contour>
      <point x="230" y="474" type="line"/>
      <point x="354" y="474" type="line"/>
      <point x="354" y="351" type="line"/>
      <point x="230" y="351" type="line"/>
    </contour>
    <contour>
      <point x="230" y="112" type="line"/>
      <point x="354" y="112" type="line"/>
      <point x="354" y="-11" type="line"/>
      <point x="230" y="-11" type="line"/>
    </contour>
  </outline>
</glyph>
<glyph name="ucircumflex" format="1">
  <advance width="611"/>
  <unicode hex="00FB"/>
  <outline>
    <contour>
      <point x="541" y="0" type="line"/>
      <point x="401" y="0" type="line"/>
      <point x="401" y="64" type="line"/>
      <point x="361" y="4"/>
      <point x="312" y="-23"/>
      <point x="239" y="-23" type="curve" smooth="yes"/>
      <point x="124" y="-23"/>
      <point x="58" y="45"/>
      <point x="58" y="164" type="curve" smooth="yes"/>
      <point x="58" y="540" type="line"/>
      <point x="198" y="540" type="line"/>
      <point x="198" y="193" type="line" smooth="yes"/>
      <point x="198" y="128"/>
      <point x="228" y="96"/>
      <point x="288" y="96" type="curve" smooth="yes"/>
      <point x="356" y="96"/>
      <point x="401" y="138"/>
      <point x="401" y="202" type="curve" smooth="yes"/>
      <point x="401" y="540" type="line"/>
      <point x="541" y="540" type="line"/>
    </contour>
    <contour>
      <point x="248" y="757" type="line"/>
      <point x="355" y="757" type="line"/>
      <point x="458" y="607" type="line"/>
      <point x="380" y="607" type="line"/>
      <point x="298" y="707" type="line"/>
      <point x="216" y="607" type="line"/>
      <point x="140" y="607" type="line"/>
    </contour>
  </outline>
</glyph>
<glyph name="yacute" format="1">
  <advance width="556"/>
  <unicode hex="00FD"/>
  <outline>
    <contour>
      <point x="394" y="540" type="line"/>
      <point x="538" y="540" type="line"/>
      <point x="316" y="-99" type="line" smooth="yes"/>
      <point x="293" y="-163"/>
      <point x="276" y="-186"/>
      <point x="237" y="-202" type="curve" smooth="yes"/>
      <point x="213" y="-212"/>
      <point x="171" y="-219"/>
      <point x="136" y="-219" type="curve" smooth="yes"/>
      <point x="119" y="-219"/>
      <point x="107" y="-218"/>
      <point x="86" y="-215" type="curve"/>
      <point x="86" y="-110" type="line"/>
      <point x="104" y="-115"/>
      <point x="112" y="-116"/>
      <point x="123" y="-116" type="curve" smooth="yes"/>
      <point x="172" y="-116"/>
      <point x="210" y="-77"/>
      <point x="210" y="-26" type="curve" smooth="yes"/>
      <point x="210" y="-23" type="line"/>
      <point x="210" y="-22" type="line"/>
      <point x="9" y="540" type="line"/>
      <point x="163" y="540" type="line"/>
      <point x="282" y="147" type="line"/>
    </contour>
    <contour>
      <point x="412" y="757" type="line"/>
      <point x="286" y="607" type="line"/>
      <point x="216" y="607" type="line"/>
      <point x="286" y="757" type="line"/>
    </contour>
  </outline>
</glyph>
<glyph name="thorn" format="1">
  <advance width="611"/>
  <unicode hex="00FE"/>
  <outline>
    <contour>
      <point x="198" y="729" type="line"/>
      <point x="198" y="460" type="line"/>
      <point x="232" y="520"/>
      <point x="280" y="549"/>
      <point x="348" y="549" type="curve" smooth="yes"/>
      <point x="478" y="549"/>
      <point x="574" y="427"/>
      <point x="574" y="262" type="curve" smooth="yes"/>
      <point x="574" y="99"/>
      <point x="478" y="-23"/>
      <point x="348" y="-23" type="curve" smooth="yes"/>
      <point x="280" y="-23"/>
      <point x="232" y="5"/>
      <point x="198" y="64" type="curve"/>
      <point x="198" y="-218" type="line"/>
      <point x="58" y="-218" type="line"/>
      <point x="58" y="729" type="line"/>
    </contour>
    <contour>
      <point x="316" y="432" type="curve" smooth="yes"/>
      <point x="246" y="432"/>
      <point x="198" y="363"/>
      <point x="198" y="262" type="curve" smooth="yes"/>
      <point x="198" y="162"/>
      <point x="246" y="94"/>
      <point x="316" y="94" type="curve" smooth="yes"/>
      <point x="385" y="94"/>
      <point x="434" y="162"/>
      <point x="434" y="260" type="curve" smooth="yes"/>
      <point x="434" y="363"/>
      <point x="387" y="432"/>
    </contour>
  </outline>
</glyph>
<glyph name="Abreve" format="1">
  <advance width="722"/>
  <unicode hex="0102"/>
  <outline>
    <contour>
      <point x="501" y="147" type="line"/>
      <point x="228" y="147" type="line"/>
      <point x="179" y="0" type="line"/>
      <point x="26" y="0" type="line"/>
      <point x="285" y="729" type="line"/>
      <point x="451" y="729" type="line"/>
      <point x="703" y="0" type="line"/>
      <point x="549" y="0" type="line"/>
    </contour>
    <contour>
      <point x="460" y="272" type="line"/>
      <point x="365" y="557" type="line"/>
      <point x="270" y="272" type="line"/>
    </contour>
    <contour>
      <point x="493" y="927" type="line"/>
      <point x="493" y="916" type="line" smooth="yes"/>
      <point x="493" y="841"/>
      <point x="436" y="784"/>
      <point x="361" y="784" type="curve" smooth="yes"/>
      <point x="286" y="784"/>
      <point x="229" y="841"/>
      <point x="229" y="917" type="curve" smooth="yes"/>
      <point x="229" y="927" type="line"/>
      <point x="285" y="927" type="line"/>
      <point x="291" y="883"/>
      <point x="316" y="861"/>
      <point x="362" y="861" type="curve" smooth="yes"/>
      <point x="406" y="861"/>
      <point x="428" y="881"/>
      <point x="437" y="927" type="curve"/>
    </contour>
  </outline>
</glyph>
<glyph name="Aogonek" format="1">
  <advance width="722"/>
  <unicode hex="0104"/>
  <outline>
    <contour>
      <point x="501" y="147" type="line"/>
      <point x="228" y="147" type="line"/>
      <point x="179" y="0" type="line"/>
      <point x="26" y="0" type="line"/>
      <point x="285" y="729" type="line"/>
      <point x="452" y="729" type="line"/>
      <point x="703" y="0" type="line"/>
      <point x="634" y="-30"/>
      <point x="590" y="-80"/>
      <point x="590" y="-129" type="curve" smooth="yes"/>
      <point x="590" y="-165"/>
      <point x="614" y="-182"/>
      <point x="666" y="-182" type="curve" smooth="yes"/>
      <point x="685" y="-182"/>
      <point x="705" y="-180"/>
      <point x="723" y="-177" type="curve"/>
      <point x="723" y="-224" type="line"/>
      <point x="695" y="-231"/>
      <point x="675" y="-233"/>
      <point x="648" y="-233" type="curve" smooth="yes"/>
      <point x="554" y="-233"/>
      <point x="500" y="-198"/>
      <point x="500" y="-138" type="curve" smooth="yes"/>
      <point x="500" y="-79"/>
      <point x="546" y="-28"/>
      <point x="624" y="0" type="curve"/>
      <point x="549" y="0" type="line"/>
    </contour>
    <contour>
      <point x="461" y="272" type="line"/>
      <point x="366" y="557" type="line"/>
      <point x="270" y="272" type="line"/>
    </contour>
  </outline>
</glyph>
<glyph name="ccircumflex" format="1">
  <advance width="556"/>
  <unicode hex="0109"/>
  <outline>
    <contour>
      <point x="244" y="790" type="line"/>
      <point x="351" y="790" type="line"/>
      <point x="454" y="640" type="line"/>
      <point x="376" y="640" type="line"/>
      <point x="294" y="740" type="line"/>
      <point x="212" y="640" type="line"/>
      <point x="136" y="640" type="line"/>
    </contour>
    <contour>
      <point x="522" y="338" type="curve"/>
      <point x="388" y="338" type="line"/>
      <point x="372" y="409"/>
      <point x="345" y="436"/>
      <point x="288" y="436" type="curve" smooth="yes"/>
      <point x="248" y="436"/>
      <point x="217" y="420"/>
      <point x="201" y="390" type="curve" smooth="yes"/>
      <point x="184" y="358"/>
      <point x="174" y="310"/>
      <point x="174" y="259" type="curve" smooth="yes"/>
      <point x="174" y="154"/>
      <point x="217" y="90"/>
      <point x="288" y="90" type="curve" smooth="yes"/>
      <point x="342" y="90"/>
      <point x="370" y="117"/>
      <point x="388" y="187" type="curve"/>
      <point x="522" y="187" type="line"/>
      <point x="509" y="58"/>
      <point x="418" y="-23"/>
      <point x="287" y="-23" type="curve" smooth="yes"/>
      <point x="127" y="-23"/>
      <point x="34" y="81"/>
      <point x="34" y="259" type="curve" smooth="yes"/>
      <point x="34" y="443"/>
      <point x="128" y="549"/>
      <point x="289" y="549" type="curve" smooth="yes"/>
      <point x="424" y="549"/>
      <point x="512" y="470"/>
    </contour>
  </outline>
</glyph>
<glyph name="Dcaron" format="1">
  <advance width="722"/>
  <unicode hex="010E"/>
  <outline>
    <contour>
      <point x="77" y="0" type="line"/>
      <point x="77" y="729" type="line"/>
      <point x="362" y="729" type="line" smooth="yes"/>
      <point x="474" y="729"/>
      <point x="543" y="704"/>
      <point x="592" y="645" type="curve" smooth="yes"/>
      <point x="650" y="576"/>
      <point x="681" y="477"/>
      <point x="681" y="365" type="curve" smooth="yes"/>
      <point x="681" y="252"/>
      <point x="650" y="153"/>
      <point x="592" y="85" type="curve"/>
      <point x="543" y="26"/>
      <point x="473" y="0"/>
      <point x="362" y="0" type="curve" smooth="yes"/>
    </contour>
    <contour>
      <point x="227" y="125" type="line"/>
      <point x="362" y="125" type="line" smooth="yes"/>
      <point x="475" y="125"/>
      <point x="531" y="204"/>
      <point x="531" y="364" type="curve" smooth="yes"/>
      <point x="531" y="525"/>
      <point x="475" y="604"/>
      <point x="362" y="604" type="curve" smooth="yes"/>
      <point x="227" y="604" type="line"/>
    </contour>
    <contour>
      <point x="390" y="786" type="line"/>
      <point x="283" y="786" type="line"/>
      <point x="180" y="936" type="line"/>
      <point x="258" y="936" type="line"/>
      <point x="340" y="839" type="line"/>
      <point x="422" y="936" type="line"/>
      <point x="498" y="936" type="line"/>
    </contour>
  </outline>
</glyph>
<glyph name="dcaron" format="1">
  <advance width="707"/>
  <unicode hex="010F"/>
  <outline>
    <contour>
      <point x="405" y="0" type="line"/>
      <point x="405" y="55" type="line"/>
      <point x="370" y="2"/>
      <point x="323" y="-23"/>
      <point x="256" y="-23" type="curve" smooth="yes"/>
      <point x="190" y="-23"/>
      <point x="124" y="11"/>
      <point x="87" y="63" type="curve" smooth="yes"/>
      <point x="51" y="115"/>
      <point x="29" y="189"/>
      <point x="29" y="262" type="curve" smooth="yes"/>
      <point x="29" y="425"/>
      <point x="127" y="549"/>
      <point x="256" y="549" type="curve" smooth="yes"/>
      <point x="323" y="549"/>
      <point x="370" y="524"/>
      <point x="405" y="470" type="curve"/>
      <point x="405" y="729" type="line"/>
      <point x="545" y="729" type="line"/>
      <point x="545" y="0" type="line"/>
    </contour>
    <contour>
      <point x="287" y="432" type="curve" smooth="yes"/>
      <point x="217" y="432"/>
      <point x="169" y="362"/>
      <point x="169" y="262" type="curve" smooth="yes"/>
      <point x="169" y="163"/>
      <point x="217" y="94"/>
      <point x="287" y="94" type="curve" smooth="yes"/>
      <point x="357" y="94"/>
      <point x="405" y="162"/>
      <point x="405" y="260" type="curve" smooth="yes"/>
      <point x="405" y="363"/>
      <point x="358" y="432"/>
    </contour>
    <contour>
      <point x="598" y="729" type="line"/>
      <point x="720" y="729" type="line"/>
      <point x="720" y="626" type="line" smooth="yes"/>
      <point x="720" y="544"/>
      <point x="669" y="484"/>
      <point x="598" y="482" type="curve"/>
      <point x="598" y="528" type="line"/>
      <point x="644" y="537"/>
      <point x="666" y="567"/>
      <point x="665" y="617" type="curve"/>
      <point x="598" y="617" type="line"/>
    </contour>
  </outline>
</glyph>
<glyph name="Dcroat" format="1">
  <advance width="722"/>
  <unicode hex="0110"/>
  <outline>
    <contour>
      <point x="77" y="339" type="line"/>
      <point x="0" y="339" type="line"/>
      <point x="0" y="419" type="line"/>
      <point x="77" y="419" type="line"/>
      <point x="77" y="729" type="line"/>
      <point x="362" y="729" type="line" smooth="yes"/>
      <point x="477" y="729"/>
      <point x="544" y="704"/>
      <point x="593" y="645" type="curve"/>
      <point x="648" y="576"/>
      <point x="681" y="472"/>
      <point x="681" y="365" type="curve" smooth="yes"/>
      <point x="681" y="257"/>
      <point x="648" y="154"/>
      <point x="593" y="85" type="curve" smooth="yes"/>
      <point x="545" y="25"/>
      <point x="476" y="0"/>
      <point x="362" y="0" type="curve" smooth="yes"/>
      <point x="77" y="0" type="line"/>
    </contour>
    <contour>
      <point x="227" y="339" type="line"/>
      <point x="227" y="125" type="line"/>
      <point x="362" y="125" type="line" smooth="yes"/>
      <point x="427" y="125"/>
      <point x="465" y="141"/>
      <point x="491" y="179" type="curve" smooth="yes"/>
      <point x="522" y="223"/>
      <point x="537" y="285"/>
      <point x="537" y="364" type="curve" smooth="yes"/>
      <point x="537" y="444"/>
      <point x="522" y="506"/>
      <point x="491" y="550" type="curve" smooth="yes"/>
      <point x="465" y="588"/>
      <point x="427" y="604"/>
      <point x="362" y="604" type="curve" smooth="yes"/>
      <point x="227" y="604" type="line"/>
      <point x="227" y="419" type="line"/>
      <point x="377" y="419" type="line"/>
      <point x="377" y="339" type="line"/>
    </contour>
  </outline>
</glyph>
<glyph name="dcroat" format="1">
  <advance width="611"/>
  <unicode hex="0111"/>
  <outline>
    <contour>
      <point x="405" y="596" type="line"/>
      <point x="272" y="596" type="line"/>
      <point x="272" y="663" type="line"/>
      <point x="405" y="663" type="line"/>
      <point x="405" y="729" type="line"/>
      <point x="545" y="729" type="line"/>
      <point x="545" y="663" type="line"/>
      <point x="605" y="663" type="line"/>
      <point x="605" y="596" type="line"/>
      <point x="545" y="596" type="line"/>
      <point x="545" y="0" type="line"/>
      <point x="405" y="0" type="line"/>
      <point x="405" y="55" type="line"/>
      <point x="370" y="2"/>
      <point x="323" y="-23"/>
      <point x="256" y="-23" type="curve" smooth="yes"/>
      <point x="127" y="-23"/>
      <point x="29" y="100"/>
      <point x="29" y="262" type="curve" smooth="yes"/>
      <point x="29" y="425"/>
      <point x="127" y="549"/>
      <point x="256" y="549" type="curve" smooth="yes"/>
      <point x="324" y="549"/>
      <point x="370" y="524"/>
      <point x="405" y="470" type="curve"/>
    </contour>
    <contour>
      <point x="287" y="432" type="curve" smooth="yes"/>
      <point x="218" y="432"/>
      <point x="169" y="362"/>
      <point x="169" y="262" type="curve" smooth="yes"/>
      <point x="169" y="163"/>
      <point x="217" y="94"/>
      <point x="287" y="94" type="curve" smooth="yes"/>
      <point x="357" y="94"/>
      <point x="405" y="162"/>
      <point x="405" y="260" type="curve" smooth="yes"/>
      <point x="405" y="363"/>
      <point x="358" y="432"/>
    </contour>
  </outline>
</glyph>
<glyph name="Ebreve" format="1">
  <advance width="667"/>
  <unicode hex="0114"/>
  <outline>
    <contour>
      <point x="475" y="972" type="line"/>
      <point x="475" y="961" type="line" smooth="yes"/>
      <point x="475" y="886"/>
      <point x="418" y="829"/>
      <point x="343" y="829" type="curve" smooth="yes"/>
      <point x="268" y="829"/>
      <point x="211" y="886"/>
      <point x="211" y="962" type="curve" smooth="yes"/>
      <point x="211" y="972" type="line"/>
      <point x="267" y="972" type="line"/>
      <point x="273" y="928"/>
      <point x="298" y="906"/>
      <point x="344" y="906" type="curve" smooth="yes"/>
      <point x="388" y="906"/>
      <point x="411" y="926"/>
      <point x="419" y="972" type="curve"/>
    </contour>
    <contour>
      <point x="229" y="314" type="line"/>
      <point x="229" y="125" type="line"/>
      <point x="624" y="125" type="line"/>
      <point x="624" y="0" type="line"/>
      <point x="79" y="0" type="line"/>
      <point x="79" y="729" type="line"/>
      <point x="606" y="729" type="line"/>
      <point x="606" y="604" type="line"/>
      <point x="229" y="604" type="line"/>
      <point x="229" y="439" type="line"/>
      <point x="578" y="439" type="line"/>
      <point x="578" y="314" type="line"/>
    </contour>
  </outline>
</glyph>
<glyph name="ebreve" format="1">
  <advance width="556"/>
  <unicode hex="0115"/>
  <outline>
    <contour>
      <point x="392" y="783" type="line"/>
      <point x="392" y="772" type="line" smooth="yes"/>
      <point x="392" y="697"/>
      <point x="335" y="640"/>
      <point x="260" y="640" type="curve" smooth="yes"/>
      <point x="185" y="640"/>
      <point x="128" y="697"/>
      <point x="128" y="773" type="curve" smooth="yes"/>
      <point x="128" y="783" type="line"/>
      <point x="184" y="783" type="line"/>
      <point x="190" y="739"/>
      <point x="215" y="717"/>
      <point x="261" y="717" type="curve" smooth="yes"/>
      <point x="305" y="717"/>
      <point x="328" y="737"/>
      <point x="336" y="783" type="curve"/>
    </contour>
    <contour>
      <point x="524" y="226" type="curve"/>
      <point x="162" y="226" type="line"/>
      <point x="164" y="175"/>
      <point x="169" y="151"/>
      <point x="182" y="131" type="curve" smooth="yes"/>
      <point x="202" y="101"/>
      <point x="234" y="84"/>
      <point x="274" y="84" type="curve" smooth="yes"/>
      <point x="325" y="84"/>
      <point x="364" y="109"/>
      <point x="381" y="152" type="curve"/>
      <point x="519" y="152" type="line"/>
      <point x="488" y="46"/>
      <point x="390" y="-23"/>
      <point x="269" y="-23" type="curve" smooth="yes"/>
      <point x="116" y="-23"/>
      <point x="22" y="83"/>
      <point x="22" y="256" type="curve" smooth="yes"/>
      <point x="22" y="437"/>
      <point x="117" y="549"/>
      <point x="272" y="549" type="curve" smooth="yes"/>
      <point x="381" y="549"/>
      <point x="468" y="490"/>
      <point x="504" y="392" type="curve" smooth="yes"/>
      <point x="517" y="354"/>
      <point x="525" y="304"/>
      <point x="525" y="250" type="curve" smooth="yes"/>
      <point x="525" y="243"/>
      <point x="525" y="238"/>
    </contour>
    <contour>
      <point x="164" y="319" type="curve"/>
      <point x="379" y="319" type="line"/>
      <point x="376" y="356"/>
      <point x="370" y="377"/>
      <point x="357" y="397" type="curve"/>
      <point x="337" y="425"/>
      <point x="305" y="442"/>
      <point x="270" y="442" type="curve" smooth="yes"/>
      <point x="208" y="442"/>
      <point x="173" y="401"/>
    </contour>
  </outline>
</glyph>
<glyph name="Eogonek" format="1">
  <advance width="667"/>
  <unicode hex="0118"/>
  <outline>
    <contour>
      <point x="229" y="314" type="line"/>
      <point x="229" y="125" type="line"/>
      <point x="624" y="125" type="line"/>
      <point x="624" y="0" type="line"/>
      <point x="553" y="-38"/>
      <point x="515" y="-82"/>
      <point x="515" y="-129" type="curve" smooth="yes"/>
      <point x="515" y="-165"/>
      <point x="539" y="-182"/>
      <point x="591" y="-182" type="curve" smooth="yes"/>
      <point x="611" y="-182"/>
      <point x="630" y="-180"/>
      <point x="648" y="-177" type="curve"/>
      <point x="648" y="-224" type="line"/>
      <point x="621" y="-230"/>
      <point x="601" y="-233"/>
      <point x="574" y="-233" type="curve" smooth="yes"/>
      <point x="479" y="-233"/>
      <point x="425" y="-198"/>
      <point x="425" y="-138" type="curve" smooth="yes"/>
      <point x="425" y="-82"/>
      <point x="464" y="-39"/>
      <point x="550" y="0" type="curve"/>
      <point x="79" y="0" type="line"/>
      <point x="79" y="729" type="line"/>
      <point x="606" y="729" type="line"/>
      <point x="606" y="604" type="line"/>
      <point x="229" y="604" type="line"/>
      <point x="229" y="439" type="line"/>
      <point x="578" y="439" type="line"/>
      <point x="578" y="314" type="line"/>
    </contour>
  </outline>
</glyph>
<glyph name="Gbreve" format="1">
  <advance width="778"/>
  <unicode hex="011E"/>
  <outline>
    <contour>
      <point x="711" y="392" type="line"/>
      <point x="711" y="-2" type="line"/>
      <point x="621" y="-2" type="line"/>
      <point x="603" y="94" type="line"/>
      <point x="547" y="12"/>
      <point x="481" y="-23"/>
      <point x="383" y="-23" type="curve" smooth="yes"/>
      <point x="186" y="-23"/>
      <point x="42" y="138"/>
      <point x="42" y="359" type="curve" smooth="yes"/>
      <point x="42" y="586"/>
      <point x="185" y="741"/>
      <point x="395" y="741" type="curve" smooth="yes"/>
      <point x="571" y="741"/>
      <point x="693" y="646"/>
      <point x="711" y="496" type="curve"/>
      <point x="570" y="496" type="line"/>
      <point x="557" y="534"/>
      <point x="546" y="551"/>
      <point x="525" y="569" type="curve" smooth="yes"/>
      <point x="492" y="598"/>
      <point x="448" y="613"/>
      <point x="396" y="613" type="curve" smooth="yes"/>
      <point x="269" y="613"/>
      <point x="192" y="518"/>
      <point x="192" y="361" type="curve" smooth="yes"/>
      <point x="192" y="211"/>
      <point x="279" y="105"/>
      <point x="400" y="105" type="curve" smooth="yes"/>
      <point x="458" y="105"/>
      <point x="513" y="131"/>
      <point x="549" y="175" type="curve" smooth="yes"/>
      <point x="571" y="201"/>
      <point x="581" y="226"/>
      <point x="585" y="267" type="curve"/>
      <point x="419" y="267" type="line"/>
      <point x="419" y="392" type="line"/>
    </contour>
    <contour>
      <point x="530" y="927" type="line"/>
      <point x="530" y="916" type="line" smooth="yes"/>
      <point x="530" y="841"/>
      <point x="473" y="784"/>
      <point x="398" y="784" type="curve" smooth="yes"/>
      <point x="323" y="784"/>
      <point x="266" y="841"/>
      <point x="266" y="917" type="curve" smooth="yes"/>
      <point x="266" y="927" type="line"/>
      <point x="322" y="927" type="line"/>
      <point x="328" y="883"/>
      <point x="353" y="861"/>
      <point x="399" y="861" type="curve" smooth="yes"/>
      <point x="443" y="861"/>
      <point x="465" y="881"/>
      <point x="474" y="927" type="curve"/>
    </contour>
  </outline>
</glyph>
<glyph name="Gdotaccent" format="1">
  <advance width="778"/>
  <unicode hex="0120"/>
  <outline>
    <contour>
      <point x="436" y="951" type="line"/>
      <point x="436" y="829" type="line"/>
      <point x="326" y="829" type="line"/>
      <point x="326" y="951" type="line"/>
    </contour>
    <contour>
      <point x="711" y="392" type="line"/>
      <point x="711" y="-2" type="line"/>
      <point x="621" y="-2" type="line"/>
      <point x="603" y="94" type="line"/>
      <point x="547" y="12"/>
      <point x="481" y="-23"/>
      <point x="383" y="-23" type="curve" smooth="yes"/>
      <point x="186" y="-23"/>
      <point x="42" y="138"/>
      <point x="42" y="359" type="curve" smooth="yes"/>
      <point x="42" y="586"/>
      <point x="185" y="741"/>
      <point x="395" y="741" type="curve" smooth="yes"/>
      <point x="571" y="741"/>
      <point x="693" y="646"/>
      <point x="711" y="496" type="curve"/>
      <point x="570" y="496" type="line"/>
      <point x="557" y="534"/>
      <point x="546" y="551"/>
      <point x="525" y="569" type="curve" smooth="yes"/>
      <point x="492" y="598"/>
      <point x="448" y="613"/>
      <point x="396" y="613" type="curve" smooth="yes"/>
      <point x="269" y="613"/>
      <point x="192" y="518"/>
      <point x="192" y="361" type="curve" smooth="yes"/>
      <point x="192" y="211"/>
      <point x="279" y="105"/>
      <point x="400" y="105" type="curve" smooth="yes"/>
      <point x="458" y="105"/>
      <point x="513" y="131"/>
      <point x="549" y="175" type="curve" smooth="yes"/>
      <point x="571" y="201"/>
      <point x="581" y="226"/>
      <point x="585" y="267" type="curve"/>
      <point x="419" y="267" type="line"/>
      <point x="419" y="392" type="line"/>
    </contour>
  </outline>
</glyph>
<glyph name="gdotaccent" format="1">
  <advance width="611"/>
  <unicode hex="0121"/>
  <outline>
    <contour>
      <point x="412" y="762" type="line"/>
      <point x="412" y="640" type="line"/>
      <point x="302" y="640" type="line"/>
      <point x="302" y="762" type="line"/>
    </contour>
    <contour>
      <point x="408" y="540" type="line"/>
      <point x="541" y="540" type="line"/>
      <point x="541" y="-18" type="line" smooth="yes"/>
      <point x="541" y="-145"/>
      <point x="447" y="-218"/>
      <point x="284" y="-218" type="curve" smooth="yes"/>
      <point x="201" y="-218"/>
      <point x="141" y="-201"/>
      <point x="98" y="-166" type="curve" smooth="yes"/>
      <point x="62" y="-136"/>
      <point x="46" y="-107"/>
      <point x="45" y="-65" type="curve"/>
      <point x="190" y="-65" type="line"/>
      <point x="201" y="-106"/>
      <point x="236" y="-128"/>
      <point x="289" y="-128" type="curve" smooth="yes"/>
      <point x="359" y="-128"/>
      <point x="408" y="-83"/>
      <point x="408" y="-18" type="curve" smooth="yes"/>
      <point x="408" y="55" type="line"/>
      <point x="356" y="-4"/>
      <point x="318" y="-23"/>
      <point x="255" y="-23" type="curve" smooth="yes"/>
      <point x="122" y="-23"/>
      <point x="34" y="89"/>
      <point x="34" y="257" type="curve" smooth="yes"/>
      <point x="34" y="424"/>
      <point x="130" y="549"/>
      <point x="258" y="549" type="curve" smooth="yes"/>
      <point x="320" y="549"/>
      <point x="366" y="521"/>
      <point x="408" y="457" type="curve"/>
    </contour>
    <contour>
      <point x="288" y="432" type="curve" smooth="yes"/>
      <point x="220" y="432"/>
      <point x="174" y="361"/>
      <point x="174" y="259" type="curve" smooth="yes"/>
      <point x="174" y="161"/>
      <point x="220" y="94"/>
      <point x="286" y="94" type="curve" smooth="yes"/>
      <point x="359" y="94"/>
      <point x="410" y="161"/>
      <point x="410" y="259" type="curve" smooth="yes"/>
      <point x="410" y="359"/>
      <point x="358" y="432"/>
    </contour>
  </outline>
</glyph>
<glyph name="gcommaaccent" format="1">
  <advance width="611"/>
  <unicode hex="0123"/>
  <outline>
    <contour>
      <point x="408" y="540" type="line"/>
      <point x="541" y="540" type="line"/>
      <point x="541" y="-18" type="line" smooth="yes"/>
      <point x="541" y="-145"/>
      <point x="447" y="-218"/>
      <point x="284" y="-218" type="curve" smooth="yes"/>
      <point x="201" y="-218"/>
      <point x="141" y="-201"/>
      <point x="98" y="-166" type="curve" smooth="yes"/>
      <point x="62" y="-136"/>
      <point x="46" y="-107"/>
      <point x="45" y="-65" type="curve"/>
      <point x="190" y="-65" type="line"/>
      <point x="201" y="-106"/>
      <point x="236" y="-128"/>
      <point x="289" y="-128" type="curve" smooth="yes"/>
      <point x="359" y="-128"/>
      <point x="408" y="-83"/>
      <point x="408" y="-18" type="curve" smooth="yes"/>
      <point x="408" y="55" type="line"/>
      <point x="356" y="-4"/>
      <point x="318" y="-23"/>
      <point x="255" y="-23" type="curve" smooth="yes"/>
      <point x="122" y="-23"/>
      <point x="34" y="89"/>
      <point x="34" y="257" type="curve" smooth="yes"/>
      <point x="34" y="424"/>
      <point x="130" y="549"/>
      <point x="258" y="549" type="curve" smooth="yes"/>
      <point x="320" y="549"/>
      <point x="366" y="521"/>
      <point x="408" y="457" type="curve"/>
    </contour>
    <contour>
      <point x="288" y="432" type="curve" smooth="yes"/>
      <point x="220" y="432"/>
      <point x="174" y="361"/>
      <point x="174" y="259" type="curve" smooth="yes"/>
      <point x="174" y="161"/>
      <point x="220" y="94"/>
      <point x="286" y="94" type="curve" smooth="yes"/>
      <point x="359" y="94"/>
      <point x="410" y="161"/>
      <point x="410" y="259" type="curve" smooth="yes"/>
      <point x="410" y="359"/>
      <point x="358" y="432"/>
    </contour>
    <contour>
      <point x="365" y="606" type="line"/>
      <point x="243" y="606" type="line"/>
      <point x="243" y="709" type="line" smooth="yes"/>
      <point x="243" y="791"/>
      <point x="294" y="851"/>
      <point x="365" y="853" type="curve"/>
      <point x="365" y="807" type="line"/>
      <point x="319" y="798"/>
      <point x="297" y="768"/>
      <point x="298" y="718" type="curve"/>
      <point x="365" y="718" type="line"/>
    </contour>
  </outline>
</glyph>
<glyph name="Hcircumflex" format="1">
  <advance width="722"/>
  <unicode hex="0124"/>
  <outline>
    <contour>
      <point x="312" y="979" type="line"/>
      <point x="419" y="979" type="line"/>
      <point x="522" y="829" type="line"/>
      <point x="444" y="829" type="line"/>
      <point x="362" y="929" type="line"/>
      <point x="280" y="829" type="line"/>
      <point x="204" y="829" type="line"/>
    </contour>
    <contour>
      <point x="507" y="331" type="line"/>
      <point x="218" y="331" type="line"/>
      <point x="218" y="0" type="line"/>
      <point x="68" y="0" type="line"/>
      <point x="68" y="729" type="line"/>
      <point x="218" y="729" type="line"/>
      <point x="218" y="456" type="line"/>
      <point x="506" y="456" type="line"/>
      <point x="506" y="729" type="line"/>
      <point x="657" y="729" type="line"/>
      <point x="657" y="0" type="line"/>
      <point x="507" y="0" type="line"/>
    </contour>
  </outline>
</glyph>
<glyph name="Hbar" format="1">
  <advance width="752"/>
  <unicode hex="0126"/>
  <outline>
    <contour>
      <point x="667" y="619" type="line"/>
      <point x="726" y="619" type="line"/>
      <point x="726" y="540" type="line"/>
      <point x="667" y="540" type="line"/>
      <point x="667" y="0" type="line"/>
      <point x="517" y="0" type="line"/>
      <point x="517" y="331" type="line"/>
      <point x="228" y="331" type="line"/>
      <point x="228" y="0" type="line"/>
      <point x="78" y="0" type="line"/>
      <point x="78" y="540" type="line"/>
      <point x="26" y="540" type="line"/>
      <point x="26" y="619" type="line"/>
      <point x="78" y="619" type="line"/>
      <point x="78" y="729" type="line"/>
      <point x="228" y="729" type="line"/>
      <point x="228" y="619" type="line"/>
      <point x="516" y="619" type="line"/>
      <point x="516" y="729" type="line"/>
      <point x="667" y="729" type="line"/>
    </contour>
    <contour>
      <point x="516" y="540" type="line"/>
      <point x="228" y="540" type="line"/>
      <point x="228" y="456" type="line"/>
      <point x="516" y="456" type="line"/>
    </contour>
  </outline>
</glyph>
<glyph name="Itilde" format="1">
  <advance width="278"/>
  <unicode hex="0128"/>
  <outline>
    <contour>
      <point x="252" y="957" type="curve"/>
      <point x="315" y="957" type="line"/>
      <point x="311" y="872"/>
      <point x="279" y="830"/>
      <point x="220" y="830" type="curve" smooth="yes"/>
      <point x="205" y="830"/>
      <point x="186" y="834"/>
      <point x="165" y="842" type="curve" smooth="yes"/>
      <point x="94" y="868" type="line" smooth="yes"/>
      <point x="82" y="872"/>
      <point x="73" y="874"/>
      <point x="64" y="874" type="curve" smooth="yes"/>
      <point x="40" y="874"/>
      <point x="29" y="861"/>
      <point x="24" y="829" type="curve"/>
      <point x="-39" y="829" type="line"/>
      <point x="-35" y="907"/>
      <point x="0" y="953"/>
      <point x="55" y="953" type="curve" smooth="yes"/>
      <point x="74" y="953"/>
      <point x="75" y="953"/>
      <point x="111" y="940" type="curve" smooth="yes"/>
      <point x="182" y="915" type="line" smooth="yes"/>
      <point x="189" y="912"/>
      <point x="209" y="909"/>
      <point x="216" y="909" type="curve" smooth="yes"/>
      <point x="237" y="909"/>
      <point x="249" y="925"/>
    </contour>
    <contour>
      <point x="213" y="729" type="line"/>
      <point x="213" y="0" type="line"/>
      <point x="63" y="0" type="line"/>
      <point x="63" y="729" type="line"/>
    </contour>
  </outline>
</glyph>
<glyph name="itilde" format="1">
  <advance width="278"/>
  <unicode hex="0129"/>
  <outline>
    <contour>
      <point x="251" y="768" type="curve"/>
      <point x="314" y="768" type="line"/>
      <point x="310" y="683"/>
      <point x="278" y="641"/>
      <point x="219" y="641" type="curve" smooth="yes"/>
      <point x="204" y="641"/>
      <point x="185" y="645"/>
      <point x="164" y="653" type="curve" smooth="yes"/>
      <point x="93" y="679" type="line" smooth="yes"/>
      <point x="81" y="683"/>
      <point x="72" y="685"/>
      <point x="63" y="685" type="curve" smooth="yes"/>
      <point x="39" y="685"/>
      <point x="28" y="672"/>
      <point x="23" y="640" type="curve"/>
      <point x="-40" y="640" type="line"/>
      <point x="-36" y="718"/>
      <point x="-1" y="764"/>
      <point x="54" y="764" type="curve" smooth="yes"/>
      <point x="73" y="764"/>
      <point x="74" y="764"/>
      <point x="110" y="751" type="curve" smooth="yes"/>
      <point x="181" y="726" type="line" smooth="yes"/>
      <point x="188" y="723"/>
      <point x="208" y="720"/>
      <point x="215" y="720" type="curve" smooth="yes"/>
      <point x="236" y="720"/>
      <point x="248" y="736"/>
    </contour>
    <contour>
      <point x="207" y="540" type="line"/>
      <point x="207" y="0" type="line"/>
      <point x="67" y="0" type="line"/>
      <point x="67" y="540" type="line"/>
    </contour>
  </outline>
</glyph>
<glyph name="Imacron" format="1">
  <advance width="278"/>
  <unicode hex="012A"/>
  <outline>
    <contour>
      <point x="213" y="729" type="line"/>
      <point x="213" y="0" type="line"/>
      <point x="63" y="0" type="line"/>
      <point x="63" y="729" type="line"/>
    </contour>
    <contour>
      <point x="274" y="898" type="line"/>
      <point x="274" y="819" type="line"/>
      <point x="2" y="819" type="line"/>
      <point x="2" y="898" type="line"/>
    </contour>
  </outline>
</glyph>
<glyph name="Ibreve" format="1">
  <advance width="278"/>
  <unicode hex="012C"/>
  <outline>
    <contour>
      <point x="270" y="972" type="line"/>
      <point x="270" y="961" type="line" smooth="yes"/>
      <point x="270" y="886"/>
      <point x="213" y="829"/>
      <point x="138" y="829" type="curve" smooth="yes"/>
      <point x="63" y="829"/>
      <point x="6" y="886"/>
      <point x="6" y="962" type="curve" smooth="yes"/>
      <point x="6" y="972" type="line"/>
      <point x="62" y="972" type="line"/>
      <point x="68" y="928"/>
      <point x="93" y="906"/>
      <point x="139" y="906" type="curve" smooth="yes"/>
      <point x="183" y="906"/>
      <point x="206" y="926"/>
      <point x="214" y="972" type="curve"/>
    </contour>
    <contour>
      <point x="213" y="729" type="line"/>
      <point x="213" y="0" type="line"/>
      <point x="63" y="0" type="line"/>
      <point x="63" y="729" type="line"/>
    </contour>
  </outline>
</glyph>
<glyph name="ibreve" format="1">
  <advance width="278"/>
  <unicode hex="012D"/>
  <outline>
    <contour>
      <point x="269" y="783" type="line"/>
      <point x="269" y="772" type="line" smooth="yes"/>
      <point x="269" y="697"/>
      <point x="212" y="640"/>
      <point x="137" y="640" type="curve" smooth="yes"/>
      <point x="62" y="640"/>
      <point x="5" y="697"/>
      <point x="5" y="773" type="curve" smooth="yes"/>
      <point x="5" y="783" type="line"/>
      <point x="61" y="783" type="line"/>
      <point x="67" y="739"/>
      <point x="92" y="717"/>
      <point x="138" y="717" type="curve" smooth="yes"/>
      <point x="182" y="717"/>
      <point x="205" y="737"/>
      <point x="213" y="783" type="curve"/>
    </contour>
    <contour>
      <point x="207" y="540" type="line"/>
      <point x="207" y="0" type="line"/>
      <point x="67" y="0" type="line"/>
      <point x="67" y="540" type="line"/>
    </contour>
  </outline>
</glyph>
<glyph name="Iogonek" format="1">
  <advance width="278"/>
  <unicode hex="012E"/>
  <outline>
    <contour>
      <point x="213" y="729" type="line"/>
      <point x="213" y="0" type="line"/>
      <point x="156" y="-41"/>
      <point x="124" y="-88"/>
      <point x="124" y="-131" type="curve" smooth="yes"/>
      <point x="124" y="-161"/>
      <point x="150" y="-182"/>
      <point x="187" y="-182" type="curve" smooth="yes"/>
      <point x="200" y="-182"/>
      <point x="221" y="-180"/>
      <point x="237" y="-177" type="curve"/>
      <point x="237" y="-224" type="line"/>
      <point x="211" y="-230"/>
      <point x="189" y="-233"/>
      <point x="167" y="-233" type="curve" smooth="yes"/>
      <point x="85" y="-233"/>
      <point x="34" y="-196"/>
      <point x="34" y="-136" type="curve" smooth="yes"/>
      <point x="34" y="-84"/>
      <point x="70" y="-41"/>
      <point x="147" y="0" type="curve"/>
      <point x="63" y="0" type="line"/>
      <point x="63" y="729" type="line"/>
    </contour>
  </outline>
</glyph>
<glyph name="IJ" format="1">
  <advance width="808"/>
  <unicode hex="0132"/>
  <outline>
    <contour>
      <point x="213" y="729" type="line"/>
      <point x="213" y="0" type="line"/>
      <point x="63" y="0" type="line"/>
      <point x="63" y="729" type="line"/>
    </contour>
    <contour>
      <point x="590" y="729" type="line"/>
      <point x="740" y="729" type="line"/>
      <point x="740" y="190" type="line" smooth="yes"/>
      <point x="740" y="54"/>
      <point x="655" y="-23"/>
      <point x="506" y="-23" type="curve" smooth="yes"/>
      <point x="437" y="-23"/>
      <point x="381" y="-3"/>
      <point x="339" y="35" type="curve" smooth="yes"/>
      <point x="296" y="75"/>
      <point x="278" y="122"/>
      <point x="278" y="198" type="curve" smooth="yes"/>
      <point x="278" y="270" type="line"/>
      <point x="428" y="270" type="line"/>
      <point x="428" y="200" type="line" smooth="yes"/>
      <point x="428" y="133"/>
      <point x="452" y="105"/>
      <point x="509" y="105" type="curve" smooth="yes"/>
      <point x="561" y="105"/>
      <point x="590" y="135"/>
      <point x="590" y="190" type="curve" smooth="yes"/>
    </contour>
  </outline>
</glyph>
<glyph name="ij" format="1">
  <advance width="492"/>
  <unicode hex="0133"/>
  <outline>
    <contour>
      <point x="207" y="540" type="line"/>
      <point x="207" y="0" type="line"/>
      <point x="67" y="0" type="line"/>
      <point x="67" y="540" type="line"/>
    </contour>
    <contour>
      <point x="207" y="729" type="line"/>
      <point x="207" y="604" type="line"/>
      <point x="67" y="604" type="line"/>
      <point x="67" y="729" type="line"/>
    </contour>
    <contour>
      <point x="418" y="540" type="line"/>
      <point x="418" y="-94" type="line" smooth="yes"/>
      <point x="418" y="-182"/>
      <point x="382" y="-218"/>
      <point x="295" y="-218" type="curve" smooth="yes"/>
      <point x="275" y="-218"/>
      <point x="240" y="-216"/>
      <point x="212" y="-213" type="curve"/>
      <point x="212" y="-101" type="line"/>
      <point x="222" y="-104"/>
      <point x="228" y="-105"/>
      <point x="237" y="-105" type="curve" smooth="yes"/>
      <point x="267" y="-105"/>
      <point x="278" y="-94"/>
      <point x="278" y="-63" type="curve" smooth="yes"/>
      <point x="278" y="540" type="line"/>
    </contour>
    <contour>
      <point x="418" y="729" type="line"/>
      <point x="418" y="604" type="line"/>
      <point x="278" y="604" type="line"/>
      <point x="278" y="729" type="line"/>
    </contour>
  </outline>
</glyph>
<glyph name="Jcircumflex" format="1">
  <advance width="556"/>
  <unicode hex="0134"/>
  <outline>
    <contour>
      <point x="360" y="979" type="line"/>
      <point x="467" y="979" type="line"/>
      <point x="570" y="829" type="line"/>
      <point x="492" y="829" type="line"/>
      <point x="410" y="929" type="line"/>
      <point x="328" y="829" type="line"/>
      <point x="252" y="829" type="line"/>
    </contour>
    <contour>
      <point x="336" y="729" type="line"/>
      <point x="486" y="729" type="line"/>
      <point x="486" y="190" type="line" smooth="yes"/>
      <point x="486" y="54"/>
      <point x="401" y="-23"/>
      <point x="252" y="-23" type="curve" smooth="yes"/>
      <point x="183" y="-23"/>
      <point x="127" y="-3"/>
      <point x="85" y="35" type="curve" smooth="yes"/>
      <point x="42" y="75"/>
      <point x="24" y="122"/>
      <point x="24" y="198" type="curve" smooth="yes"/>
      <point x="24" y="270" type="line"/>
      <point x="174" y="270" type="line"/>
      <point x="174" y="200" type="line" smooth="yes"/>
      <point x="174" y="133"/>
      <point x="198" y="105"/>
      <point x="255" y="105" type="curve" smooth="yes"/>
      <point x="307" y="105"/>
      <point x="336" y="135"/>
      <point x="336" y="190" type="curve" smooth="yes"/>
    </contour>
  </outline>
</glyph>
<glyph name="jcircumflex" format="1">
  <advance width="278"/>
  <unicode hex="0135"/>
  <outline>
    <contour>
      <point x="210" y="540" type="line"/>
      <point x="210" y="-94" type="line" smooth="yes"/>
      <point x="210" y="-182"/>
      <point x="174" y="-218"/>
      <point x="87" y="-218" type="curve" smooth="yes"/>
      <point x="67" y="-218"/>
      <point x="32" y="-216"/>
      <point x="4" y="-213" type="curve"/>
      <point x="4" y="-101" type="line"/>
      <point x="14" y="-104"/>
      <point x="20" y="-105"/>
      <point x="29" y="-105" type="curve" smooth="yes"/>
      <point x="59" y="-105"/>
      <point x="70" y="-94"/>
      <point x="70" y="-63" type="curve" smooth="yes"/>
      <point x="70" y="540" type="line"/>
    </contour>
    <contour>
      <point x="89" y="783" type="line"/>
      <point x="196" y="783" type="line"/>
      <point x="299" y="633" type="line"/>
      <point x="221" y="633" type="line"/>
      <point x="139" y="733" type="line"/>
      <point x="57" y="633" type="line"/>
      <point x="-19" y="633" type="line"/>
    </contour>
  </outline>
</glyph>
<glyph name="Kcommaaccent" format="1">
  <advance width="722"/>
  <unicode hex="0136"/>
  <outline>
    <contour>
      <point x="224" y="244" type="line"/>
      <point x="224" y="0" type="line"/>
      <point x="74" y="0" type="line"/>
      <point x="74" y="729" type="line"/>
      <point x="224" y="729" type="line"/>
      <point x="224" y="409" type="line"/>
      <point x="509" y="729" type="line"/>
      <point x="686" y="729" type="line"/>
      <point x="395" y="415" type="line"/>
      <point x="717" y="0" type="line"/>
      <point x="538" y="0" type="line"/>
      <point x="299" y="322" type="line"/>
    </contour>
    <contour>
      <point x="315" y="-60" type="line"/>
      <point x="437" y="-60" type="line"/>
      <point x="437" y="-163" type="line" smooth="yes"/>
      <point x="437" y="-245"/>
      <point x="386" y="-305"/>
      <point x="315" y="-307" type="curve"/>
      <point x="315" y="-261" type="line"/>
      <point x="361" y="-252"/>
      <point x="383" y="-222"/>
      <point x="382" y="-172" type="curve"/>
      <point x="315" y="-172" type="line"/>
    </contour>
  </outline>
</glyph>
<glyph name="kcommaaccent" format="1">
  <advance width="556"/>
  <unicode hex="0137"/>
  <outline>
    <contour>
      <point x="199" y="330" type="line"/>
      <point x="376" y="540" type="line"/>
      <point x="535" y="540" type="line"/>
      <point x="351" y="336" type="line"/>
      <point x="548" y="0" type="line"/>
      <point x="384" y="0" type="line"/>
      <point x="255" y="238" type="line"/>
      <point x="199" y="177" type="line"/>
      <point x="199" y="0" type="line"/>
      <point x="59" y="0" type="line"/>
      <point x="59" y="729" type="line"/>
      <point x="199" y="729" type="line"/>
    </contour>
    <contour>
      <point x="229" y="-60" type="line"/>
      <point x="351" y="-60" type="line"/>
      <point x="351" y="-163" type="line" smooth="yes"/>
      <point x="351" y="-245"/>
      <point x="300" y="-305"/>
      <point x="229" y="-307" type="curve"/>
      <point x="229" y="-261" type="line"/>
      <point x="275" y="-252"/>
      <point x="297" y="-222"/>
      <point x="296" y="-172" type="curve"/>
      <point x="229" y="-172" type="line"/>
    </contour>
  </outline>
</glyph>
<glyph name="kgreenlandic" format="1">
  <advance width="573"/>
  <unicode hex="0138"/>
  <outline>
    <contour>
      <point x="199" y="351" type="line"/>
      <point x="361" y="540" type="line"/>
      <point x="509" y="540" type="line"/>
      <point x="295" y="296" type="line"/>
      <point x="548" y="0" type="line"/>
      <point x="366" y="0" type="line"/>
      <point x="199" y="198" type="line"/>
      <point x="199" y="0" type="line"/>
      <point x="59" y="0" type="line"/>
      <point x="59" y="540" type="line"/>
      <point x="199" y="540" type="line"/>
    </contour>
  </outline>
</glyph>
<glyph name="Lacute" format="1">
  <advance width="611"/>
  <unicode hex="0139"/>
  <outline>
    <contour>
      <point x="230" y="729" type="line"/>
      <point x="230" y="125" type="line"/>
      <point x="579" y="125" type="line"/>
      <point x="579" y="0" type="line"/>
      <point x="80" y="0" type="line"/>
      <point x="80" y="729" type="line"/>
    </contour>
    <contour>
      <point x="298" y="936" type="line"/>
      <point x="172" y="786" type="line"/>
      <point x="102" y="786" type="line"/>
      <point x="172" y="936" type="line"/>
    </contour>
  </outline>
</glyph>
<glyph name="lacute" format="1">
  <advance width="278"/>
  <unicode hex="013A"/>
  <outline>
    <contour>
      <point x="207" y="729" type="line"/>
      <point x="207" y="0" type="line"/>
      <point x="67" y="0" type="line"/>
      <point x="67" y="729" type="line"/>
    </contour>
    <contour>
      <point x="278" y="936" type="line"/>
      <point x="152" y="786" type="line"/>
      <point x="82" y="786" type="line"/>
      <point x="152" y="936" type="line"/>
    </contour>
  </outline>
</glyph>
<glyph name="Lcommaaccent" format="1">
  <advance width="611"/>
  <unicode hex="013B"/>
  <outline>
    <contour>
      <point x="230" y="729" type="line"/>
      <point x="230" y="125" type="line"/>
      <point x="579" y="125" type="line"/>
      <point x="579" y="0" type="line"/>
      <point x="80" y="0" type="line"/>
      <point x="80" y="729" type="line"/>
    </contour>
    <contour>
      <point x="269" y="-60" type="line"/>
      <point x="391" y="-60" type="line"/>
      <point x="391" y="-163" type="line" smooth="yes"/>
      <point x="391" y="-245"/>
      <point x="340" y="-305"/>
      <point x="269" y="-307" type="curve"/>
      <point x="269" y="-261" type="line"/>
      <point x="315" y="-252"/>
      <point x="337" y="-222"/>
      <point x="336" y="-172" type="curve"/>
      <point x="269" y="-172" type="line"/>
    </contour>
  </outline>
</glyph>
<glyph name="lcommaaccent" format="1">
  <advance width="278"/>
  <unicode hex="013C"/>
  <outline>
    <contour>
      <point x="207" y="729" type="line"/>
      <point x="207" y="0" type="line"/>
      <point x="67" y="0" type="line"/>
      <point x="67" y="729" type="line"/>
    </contour>
    <contour>
      <point x="78" y="-60" type="line"/>
      <point x="200" y="-60" type="line"/>
      <point x="200" y="-163" type="line" smooth="yes"/>
      <point x="200" y="-245"/>
      <point x="149" y="-305"/>
      <point x="78" y="-307" type="curve"/>
      <point x="78" y="-261" type="line"/>
      <point x="124" y="-252"/>
      <point x="146" y="-222"/>
      <point x="145" y="-172" type="curve"/>
      <point x="78" y="-172" type="line"/>
    </contour>
  </outline>
</glyph>
<glyph name="Lcaron" format="1">
  <advance width="611"/>
  <unicode hex="013D"/>
  <outline>
    <contour>
      <point x="230" y="729" type="line"/>
      <point x="230" y="125" type="line"/>
      <point x="579" y="125" type="line"/>
      <point x="579" y="0" type="line"/>
      <point x="80" y="0" type="line"/>
      <point x="80" y="729" type="line"/>
    </contour>
    <contour>
      <point x="330" y="729" type="line"/>
      <point x="452" y="729" type="line"/>
      <point x="452" y="626" type="line" smooth="yes"/>
      <point x="452" y="544"/>
      <point x="401" y="484"/>
      <point x="330" y="482" type="curve"/>
      <point x="330" y="528" type="line"/>
      <point x="376" y="537"/>
      <point x="398" y="567"/>
      <point x="397" y="617" type="curve"/>
      <point x="330" y="617" type="line"/>
    </contour>
  </outline>
</glyph>
<glyph name="lcaron" format="1">
  <advance width="369"/>
  <unicode hex="013E"/>
  <outline>
    <contour>
      <point x="207" y="729" type="line"/>
      <point x="207" y="0" type="line"/>
      <point x="67" y="0" type="line"/>
      <point x="67" y="729" type="line"/>
    </contour>
    <contour>
      <point x="260" y="729" type="line"/>
      <point x="382" y="729" type="line"/>
      <point x="382" y="626" type="line" smooth="yes"/>
      <point x="382" y="544"/>
      <point x="331" y="484"/>
      <point x="260" y="482" type="curve"/>
      <point x="260" y="528" type="line"/>
      <point x="306" y="537"/>
      <point x="328" y="567"/>
      <point x="327" y="617" type="curve"/>
      <point x="260" y="617" type="line"/>
    </contour>
  </outline>
</glyph>
<glyph name="Ldot" format="1">
  <advance width="611"/>
  <unicode hex="013F"/>
  <outline>
    <contour>
      <point x="336" y="442" type="line"/>
      <point x="460" y="442" type="line"/>
      <point x="460" y="319" type="line"/>
      <point x="336" y="319" type="line"/>
    </contour>
    <contour>
      <point x="230" y="729" type="line"/>
      <point x="230" y="125" type="line"/>
      <point x="579" y="125" type="line"/>
      <point x="579" y="0" type="line"/>
      <point x="80" y="0" type="line"/>
      <point x="80" y="729" type="line"/>
    </contour>
  </outline>
</glyph>
<glyph name="ldot" format="1">
  <advance width="556"/>
  <unicode hex="0140"/>
  <outline>
    <contour>
      <point x="207" y="729" type="line"/>
      <point x="207" y="0" type="line"/>
      <point x="67" y="0" type="line"/>
      <point x="67" y="729" type="line"/>
    </contour>
    <contour>
      <point x="320" y="428" type="line"/>
      <point x="444" y="428" type="line"/>
      <point x="444" y="305" type="line"/>
      <point x="320" y="305" type="line"/>
    </contour>
  </outline>
</glyph>
<glyph name="Lslash" format="1">
  <advance width="611"/>
  <unicode hex="0141"/>
  <outline>
    <contour>
      <point x="230" y="423" type="line"/>
      <point x="395" y="535" type="line"/>
      <point x="395" y="447" type="line"/>
      <point x="230" y="334" type="line"/>
      <point x="230" y="125" type="line"/>
      <point x="597" y="125" type="line"/>
      <point x="597" y="0" type="line"/>
      <point x="80" y="0" type="line"/>
      <point x="80" y="257" type="line"/>
      <point x="0" y="201" type="line"/>
      <point x="0" y="290" type="line"/>
      <point x="80" y="346" type="line"/>
      <point x="80" y="729" type="line"/>
      <point x="230" y="729" type="line"/>
    </contour>
  </outline>
</glyph>
<glyph name="lslash" format="1">
  <advance width="278"/>
  <unicode hex="0142"/>
  <outline>
    <contour>
      <point x="196" y="442" type="line"/>
      <point x="252" y="482" type="line"/>
      <point x="252" y="403" type="line"/>
      <point x="196" y="363" type="line"/>
      <point x="196" y="0" type="line"/>
      <point x="56" y="0" type="line"/>
      <point x="56" y="294" type="line"/>
      <point x="0" y="254" type="line"/>
      <point x="0" y="333" type="line"/>
      <point x="56" y="373" type="line"/>
      <point x="56" y="729" type="line"/>
      <point x="196" y="729" type="line"/>
    </contour>
  </outline>
</glyph>
<glyph name="Nacute" format="1">
  <advance width="722"/>
  <unicode hex="0143"/>
  <outline>
    <contour>
      <point x="511" y="0" type="line"/>
      <point x="218" y="504" type="line"/>
      <point x="218" y="0" type="line"/>
      <point x="68" y="0" type="line"/>
      <point x="68" y="729" type="line"/>
      <point x="222" y="729" type="line"/>
      <point x="511" y="233" type="line"/>
      <point x="511" y="729" type="line"/>
      <point x="661" y="729" type="line"/>
      <point x="661" y="0" type="line"/>
    </contour>
    <contour>
      <point x="500" y="936" type="line"/>
      <point x="374" y="786" type="line"/>
      <point x="304" y="786" type="line"/>
      <point x="374" y="936" type="line"/>
    </contour>
  </outline>
</glyph>
<glyph name="Ncommaaccent" format="1">
  <advance width="722"/>
  <unicode hex="0145"/>
  <outline>
    <contour>
      <point x="511" y="0" type="line"/>
      <point x="218" y="504" type="line"/>
      <point x="218" y="0" type="line"/>
      <point x="68" y="0" type="line"/>
      <point x="68" y="729" type="line"/>
      <point x="222" y="729" type="line"/>
      <point x="511" y="233" type="line"/>
      <point x="511" y="729" type="line"/>
      <point x="661" y="729" type="line"/>
      <point x="661" y="0" type="line"/>
    </contour>
    <contour>
      <point x="300" y="-60" type="line"/>
      <point x="422" y="-60" type="line"/>
      <point x="422" y="-163" type="line" smooth="yes"/>
      <point x="422" y="-245"/>
      <point x="371" y="-305"/>
      <point x="300" y="-307" type="curve"/>
      <point x="300" y="-261" type="line"/>
      <point x="346" y="-252"/>
      <point x="368" y="-222"/>
      <point x="367" y="-172" type="curve"/>
      <point x="300" y="-172" type="line"/>
    </contour>
  </outline>
</glyph>
<glyph name="ncommaaccent" format="1">
  <advance width="611"/>
  <unicode hex="0146"/>
  <outline>
    <contour>
      <point x="63" y="540" type="line"/>
      <point x="203" y="540" type="line"/>
      <point x="203" y="462" type="line"/>
      <point x="243" y="522"/>
      <point x="292" y="549"/>
      <point x="365" y="549" type="curve" smooth="yes"/>
      <point x="480" y="549"/>
      <point x="546" y="481"/>
      <point x="546" y="362" type="curve" smooth="yes"/>
      <point x="546" y="0" type="line"/>
      <point x="406" y="0" type="line"/>
      <point x="406" y="333" type="line" smooth="yes"/>
      <point x="406" y="397"/>
      <point x="376" y="430"/>
      <point x="316" y="430" type="curve" smooth="yes"/>
      <point x="248" y="430"/>
      <point x="203" y="388"/>
      <point x="203" y="324" type="curve" smooth="yes"/>
      <point x="203" y="0" type="line"/>
      <point x="63" y="0" type="line"/>
    </contour>
    <contour>
      <point x="244" y="-60" type="line"/>
      <point x="366" y="-60" type="line"/>
      <point x="366" y="-163" type="line" smooth="yes"/>
      <point x="366" y="-245"/>
      <point x="315" y="-305"/>
      <point x="244" y="-307" type="curve"/>
      <point x="244" y="-261" type="line"/>
      <point x="290" y="-252"/>
      <point x="312" y="-222"/>
      <point x="311" y="-172" type="curve"/>
      <point x="244" y="-172" type="line"/>
    </contour>
  </outline>
</glyph>
<glyph name="napostrophe" format="1">
  <advance width="611"/>
  <unicode hex="0149"/>
  <outline>
    <contour>
      <point x="66" y="849" type="line"/>
      <point x="201" y="849" type="line"/>
      <point x="201" y="740" type="line" smooth="yes"/>
      <point x="201" y="683"/>
      <point x="188" y="650"/>
      <point x="156" y="623" type="curve" smooth="yes"/>
      <point x="132" y="603"/>
      <point x="100" y="591"/>
      <point x="66" y="589" type="curve"/>
      <point x="66" y="635" type="line"/>
      <point x="122" y="645"/>
      <point x="148" y="674"/>
      <point x="146" y="724" type="curve"/>
      <point x="66" y="724" type="line"/>
    </contour>
    <contour>
      <point x="63" y="540" type="line"/>
      <point x="203" y="540" type="line"/>
      <point x="203" y="462" type="line"/>
      <point x="243" y="522"/>
      <point x="292" y="549"/>
      <point x="365" y="549" type="curve" smooth="yes"/>
      <point x="480" y="549"/>
      <point x="546" y="481"/>
      <point x="546" y="362" type="curve" smooth="yes"/>
      <point x="546" y="0" type="line"/>
      <point x="406" y="0" type="line"/>
      <point x="406" y="333" type="line" smooth="yes"/>
      <point x="406" y="397"/>
      <point x="376" y="430"/>
      <point x="316" y="430" type="curve" smooth="yes"/>
      <point x="248" y="430"/>
      <point x="203" y="388"/>
      <point x="203" y="324" type="curve" smooth="yes"/>
      <point x="203" y="0" type="line"/>
      <point x="63" y="0" type="line"/>
    </contour>
  </outline>
</glyph>
<glyph name="Eng" format="1">
  <advance width="722"/>
  <unicode hex="014A"/>
  <outline>
    <contour>
      <point x="495" y="28" type="curve" smooth="yes"/>
      <point x="218" y="504" type="line"/>
      <point x="218" y="0" type="line"/>
      <point x="68" y="0" type="line"/>
      <point x="68" y="729" type="line"/>
      <point x="222" y="729" type="line"/>
      <point x="511" y="233" type="line"/>
      <point x="511" y="729" type="line"/>
      <point x="661" y="729" type="line"/>
      <point x="661" y="50" type="line" smooth="yes"/>
      <point x="661" y="-76"/>
      <point x="561" y="-172"/>
      <point x="413" y="-172" type="curve" smooth="yes"/>
      <point x="376" y="-172" type="line"/>
      <point x="376" y="-47" type="line"/>
      <point x="401" y="-47" type="line" smooth="yes"/>
      <point x="451" y="-47"/>
      <point x="498" y="-14"/>
      <point x="498" y="15" type="curve" smooth="yes"/>
      <point x="498" y="19"/>
      <point x="497" y="23"/>
    </contour>
  </outline>
</glyph>
<glyph name="Obreve" format="1">
  <advance width="778"/>
  <unicode hex="014E"/>
  <outline>
    <contour>
      <point x="523" y="972" type="line"/>
      <point x="523" y="961" type="line" smooth="yes"/>
      <point x="523" y="886"/>
      <point x="466" y="829"/>
      <point x="391" y="829" type="curve" smooth="yes"/>
      <point x="316" y="829"/>
      <point x="259" y="886"/>
      <point x="259" y="962" type="curve" smooth="yes"/>
      <point x="259" y="972" type="line"/>
      <point x="315" y="972" type="line"/>
      <point x="321" y="928"/>
      <point x="346" y="906"/>
      <point x="392" y="906" type="curve" smooth="yes"/>
      <point x="436" y="906"/>
      <point x="459" y="926"/>
      <point x="467" y="972" type="curve"/>
    </contour>
    <contour>
      <point x="390" y="741" type="curve" smooth="yes"/>
      <point x="495" y="741"/>
      <point x="576" y="709"/>
      <point x="640" y="640" type="curve" smooth="yes"/>
      <point x="705" y="570"/>
      <point x="742" y="468"/>
      <point x="742" y="354" type="curve" smooth="yes"/>
      <point x="742" y="251"/>
      <point x="703" y="145"/>
      <point x="640" y="78" type="curve" smooth="yes"/>
      <point x="577" y="10"/>
      <point x="495" y="-23"/>
      <point x="391" y="-23" type="curve" smooth="yes"/>
      <point x="287" y="-23"/>
      <point x="205" y="10"/>
      <point x="142" y="78" type="curve" smooth="yes"/>
      <point x="77" y="147"/>
      <point x="40" y="250"/>
      <point x="40" y="359" type="curve" smooth="yes"/>
      <point x="40" y="468"/>
      <point x="77" y="570"/>
      <point x="142" y="640" type="curve" smooth="yes"/>
      <point x="204" y="707"/>
      <point x="288" y="741"/>
    </contour>
    <contour>
      <point x="391" y="613" type="curve" smooth="yes"/>
      <point x="270" y="613"/>
      <point x="190" y="512"/>
      <point x="190" y="359" type="curve" smooth="yes"/>
      <point x="190" y="206"/>
      <point x="270" y="105"/>
      <point x="391" y="105" type="curve" smooth="yes"/>
      <point x="511" y="105"/>
      <point x="592" y="206"/>
      <point x="592" y="355" type="curve" smooth="yes"/>
      <point x="592" y="513"/>
      <point x="514" y="613"/>
    </contour>
  </outline>
</glyph>
<glyph name="obreve" format="1">
  <advance width="611"/>
  <unicode hex="014F"/>
  <outline>
    <contour>
      <point x="434" y="783" type="line"/>
      <point x="434" y="772" type="line" smooth="yes"/>
      <point x="434" y="697"/>
      <point x="377" y="640"/>
      <point x="302" y="640" type="curve" smooth="yes"/>
      <point x="227" y="640"/>
      <point x="170" y="697"/>
      <point x="170" y="773" type="curve" smooth="yes"/>
      <point x="170" y="783" type="line"/>
      <point x="226" y="783" type="line"/>
      <point x="232" y="739"/>
      <point x="257" y="717"/>
      <point x="303" y="717" type="curve" smooth="yes"/>
      <point x="347" y="717"/>
      <point x="370" y="737"/>
      <point x="378" y="783" type="curve"/>
    </contour>
    <contour>
      <point x="301" y="549" type="curve" smooth="yes"/>
      <point x="470" y="549"/>
      <point x="569" y="442"/>
      <point x="569" y="259" type="curve" smooth="yes"/>
      <point x="569" y="86"/>
      <point x="466" y="-23"/>
      <point x="302" y="-23" type="curve" smooth="yes"/>
      <point x="136" y="-23"/>
      <point x="35" y="85"/>
      <point x="35" y="263" type="curve" smooth="yes"/>
      <point x="35" y="440"/>
      <point x="136" y="549"/>
    </contour>
    <contour>
      <point x="302" y="436" type="curve" smooth="yes"/>
      <point x="226" y="436"/>
      <point x="175" y="366"/>
      <point x="175" y="263" type="curve" smooth="yes"/>
      <point x="175" y="160"/>
      <point x="226" y="90"/>
      <point x="302" y="90" type="curve" smooth="yes"/>
      <point x="377" y="90"/>
      <point x="429" y="160"/>
      <point x="429" y="261" type="curve" smooth="yes"/>
      <point x="429" y="367"/>
      <point x="379" y="436"/>
    </contour>
  </outline>
</glyph>
<glyph name="ohungarumlaut" format="1">
  <advance width="611"/>
  <unicode hex="0151"/>
  <outline>
    <contour>
      <point x="301" y="549" type="curve" smooth="yes"/>
      <point x="470" y="549"/>
      <point x="569" y="442"/>
      <point x="569" y="259" type="curve" smooth="yes"/>
      <point x="569" y="86"/>
      <point x="466" y="-23"/>
      <point x="302" y="-23" type="curve" smooth="yes"/>
      <point x="136" y="-23"/>
      <point x="35" y="85"/>
      <point x="35" y="263" type="curve" smooth="yes"/>
      <point x="35" y="440"/>
      <point x="136" y="549"/>
    </contour>
    <contour>
      <point x="302" y="436" type="curve" smooth="yes"/>
      <point x="226" y="436"/>
      <point x="175" y="366"/>
      <point x="175" y="263" type="curve" smooth="yes"/>
      <point x="175" y="160"/>
      <point x="226" y="90"/>
      <point x="302" y="90" type="curve" smooth="yes"/>
      <point x="377" y="90"/>
      <point x="429" y="160"/>
      <point x="429" y="261" type="curve" smooth="yes"/>
      <point x="429" y="367"/>
      <point x="379" y="436"/>
    </contour>
    <contour>
      <point x="371" y="757" type="line"/>
      <point x="245" y="610" type="line"/>
      <point x="175" y="610" type="line"/>
      <point x="245" y="757" type="line"/>
    </contour>
    <contour>
      <point x="559" y="757" type="line"/>
      <point x="433" y="610" type="line"/>
      <point x="363" y="610" type="line"/>
      <point x="433" y="757" type="line"/>
    </contour>
  </outline>
</glyph>
<glyph name="OE" format="1">
  <advance width="1000"/>
  <unicode hex="0152"/>
  <outline>
    <contour>
      <point x="624" y="314" type="line"/>
      <point x="624" y="125" type="line"/>
      <point x="970" y="125" type="line"/>
      <point x="970" y="0" type="line"/>
      <point x="480" y="0" type="line"/>
      <point x="480" y="59" type="line"/>
      <point x="431" y="-3"/>
      <point x="393" y="-23"/>
      <point x="325" y="-23" type="curve" smooth="yes"/>
      <point x="152" y="-23"/>
      <point x="28" y="136"/>
      <point x="28" y="359" type="curve" smooth="yes"/>
      <point x="28" y="584"/>
      <point x="151" y="741"/>
      <point x="329" y="741" type="curve" smooth="yes"/>
      <point x="393" y="741"/>
      <point x="432" y="724"/>
      <point x="480" y="677" type="curve"/>
      <point x="480" y="729" type="line"/>
      <point x="951" y="729" type="line"/>
      <point x="951" y="604" type="line"/>
      <point x="624" y="604" type="line"/>
      <point x="624" y="439" type="line"/>
      <point x="923" y="439" type="line"/>
      <point x="923" y="314" type="line"/>
    </contour>
    <contour>
      <point x="474" y="178" type="curve"/>
      <point x="474" y="540" type="line"/>
      <point x="445" y="591"/>
      <point x="410" y="613"/>
      <point x="356" y="613" type="curve" smooth="yes"/>
      <point x="249" y="613"/>
      <point x="178" y="512"/>
      <point x="178" y="359" type="curve" smooth="yes"/>
      <point x="178" y="207"/>
      <point x="249" y="105"/>
      <point x="355" y="105" type="curve" smooth="yes"/>
      <point x="409" y="105"/>
      <point x="445" y="127"/>
    </contour>
  </outline>
</glyph>
<glyph name="rcommaaccent" format="1">
  <advance width="389"/>
  <unicode hex="0157"/>
  <outline>
    <contour>
      <point x="63" y="540" type="line"/>
      <point x="203" y="540" type="line"/>
      <point x="203" y="434" type="line"/>
      <point x="233" y="507"/>
      <point x="289" y="549"/>
      <point x="353" y="549" type="curve" smooth="yes"/>
      <point x="357" y="549"/>
      <point x="362" y="549"/>
      <point x="370" y="548" type="curve"/>
      <point x="370" y="406" type="line"/>
      <point x="351" y="409"/>
      <point x="341" y="410"/>
      <point x="326" y="410" type="curve" smooth="yes"/>
      <point x="244" y="410"/>
      <point x="203" y="369"/>
      <point x="203" y="287" type="curve" smooth="yes"/>
      <point x="203" y="0" type="line"/>
      <point x="63" y="0" type="line"/>
    </contour>
    <contour>
      <point x="74" y="-60" type="line"/>
      <point x="196" y="-60" type="line"/>
      <point x="196" y="-163" type="line" smooth="yes"/>
      <point x="196" y="-245"/>
      <point x="145" y="-305"/>
      <point x="74" y="-307" type="curve"/>
      <point x="74" y="-261" type="line"/>
      <point x="120" y="-252"/>
      <point x="142" y="-222"/>
      <point x="141" y="-172" type="curve"/>
      <point x="74" y="-172" type="line"/>
    </contour>
  </outline>
</glyph>
<glyph name="scedilla" format="1">
  <advance width="556"/>
  <unicode hex="015F"/>
  <outline>
    <contour>
      <point x="283" y="-23" type="line"/>
      <point x="264" y="-63" type="line"/>
      <point x="279" y="-58"/>
      <point x="291" y="-56"/>
      <point x="306" y="-56" type="curve" smooth="yes"/>
      <point x="353" y="-56"/>
      <point x="382" y="-83"/>
      <point x="382" y="-127" type="curve" smooth="yes"/>
      <point x="382" y="-187"/>
      <point x="336" y="-220"/>
      <point x="254" y="-220" type="curve" smooth="yes"/>
      <point x="209" y="-220"/>
      <point x="180" y="-214"/>
      <point x="115" y="-192" type="curve"/>
      <point x="134" y="-140" type="line"/>
      <point x="187" y="-163"/>
      <point x="211" y="-170"/>
      <point x="239" y="-170" type="curve" smooth="yes"/>
      <point x="271" y="-170"/>
      <point x="296" y="-152"/>
      <point x="296" y="-129" type="curve" smooth="yes"/>
      <point x="296" y="-108"/>
      <point x="276" y="-94"/>
      <point x="245" y="-94" type="curve" smooth="yes"/>
      <point x="225" y="-94"/>
      <point x="215" y="-97"/>
      <point x="196" y="-106" type="curve"/>
      <point x="239" y="-22" type="line"/>
      <point x="96" y="-5"/>
      <point x="34" y="48"/>
      <point x="29" y="157" type="curve"/>
      <point x="166" y="157" type="line"/>
      <point x="172" y="128"/>
      <point x="178" y="117"/>
      <point x="193" y="106" type="curve" smooth="yes"/>
      <point x="211" y="94"/>
      <point x="240" y="87"/>
      <point x="276" y="87" type="curve" smooth="yes"/>
      <point x="341" y="87"/>
      <point x="380" y="107"/>
      <point x="380" y="140" type="curve" smooth="yes"/>
      <point x="380" y="162"/>
      <point x="368" y="173"/>
      <point x="333" y="184" type="curve" smooth="yes"/>
      <point x="166" y="236" type="line" smooth="yes"/>
      <point x="114" y="253"/>
      <point x="97" y="262"/>
      <point x="78" y="281" type="curve"/>
      <point x="59" y="302"/>
      <point x="48" y="333"/>
      <point x="48" y="369" type="curve" smooth="yes"/>
      <point x="48" y="480"/>
      <point x="133" y="549"/>
      <point x="270" y="549" type="curve" smooth="yes"/>
      <point x="415" y="549"/>
      <point x="503" y="480"/>
      <point x="505" y="366" type="curve"/>
      <point x="370" y="366" type="line"/>
      <point x="369" y="415"/>
      <point x="336" y="439"/>
      <point x="269" y="439" type="curve" smooth="yes"/>
      <point x="220" y="439"/>
      <point x="188" y="419"/>
      <point x="188" y="389" type="curve" smooth="yes"/>
      <point x="188" y="367"/>
      <point x="198" y="359"/>
      <point x="237" y="347" type="curve" smooth="yes"/>
      <point x="414" y="296" type="line" smooth="yes"/>
      <point x="485" y="275"/>
      <point x="520" y="230"/>
      <point x="520" y="160" type="curve" smooth="yes"/>
      <point x="520" y="52"/>
      <point x="430" y="-23"/>
      <point x="301" y="-23" type="curve" smooth="yes"/>
    </contour>
  </outline>
</glyph>
<glyph name="Tcommaaccent" format="1">
  <advance width="611"/>
  <unicode hex="0162"/>
  <outline>
    <contour>
      <point x="385" y="604" type="line"/>
      <point x="385" y="0" type="line"/>
      <point x="235" y="0" type="line"/>
      <point x="235" y="604" type="line"/>
      <point x="14" y="604" type="line"/>
      <point x="14" y="729" type="line"/>
      <point x="598" y="729" type="line"/>
      <point x="598" y="604" type="line"/>
    </contour>
    <contour>
      <point x="252" y="-60" type="line"/>
      <point x="374" y="-60" type="line"/>
      <point x="374" y="-163" type="line" smooth="yes"/>
      <point x="374" y="-245"/>
      <point x="323" y="-305"/>
      <point x="252" y="-307" type="curve"/>
      <point x="252" y="-261" type="line"/>
      <point x="298" y="-252"/>
      <point x="320" y="-222"/>
      <point x="319" y="-172" type="curve"/>
      <point x="252" y="-172" type="line"/>
    </contour>
  </outline>
</glyph>
<glyph name="Tcaron" format="1">
  <advance width="611"/>
  <unicode hex="0164"/>
  <outline>
    <contour>
      <point x="385" y="604" type="line"/>
      <point x="385" y="0" type="line"/>
      <point x="235" y="0" type="line"/>
      <point x="235" y="604" type="line"/>
      <point x="14" y="604" type="line"/>
      <point x="14" y="729" type="line"/>
      <point x="598" y="729" type="line"/>
      <point x="598" y="604" type="line"/>
    </contour>
    <contour>
      <point x="361" y="786" type="line"/>
      <point x="254" y="786" type="line"/>
      <point x="151" y="936" type="line"/>
      <point x="229" y="936" type="line"/>
      <point x="311" y="839" type="line"/>
      <point x="393" y="936" type="line"/>
      <point x="469" y="936" type="line"/>
    </contour>
  </outline>
</glyph>
<glyph name="Tbar" format="1">
  <advance width="611"/>
  <unicode hex="0166"/>
  <outline>
    <contour>
      <point x="235" y="406" type="line"/>
      <point x="235" y="604" type="line"/>
      <point x="14" y="604" type="line"/>
      <point x="14" y="729" type="line"/>
      <point x="598" y="729" type="line"/>
      <point x="598" y="604" type="line"/>
      <point x="385" y="604" type="line"/>
      <point x="385" y="406" type="line"/>
      <point x="457" y="406" type="line"/>
      <point x="457" y="327" type="line"/>
      <point x="385" y="327" type="line"/>
      <point x="385" y="0" type="line"/>
      <point x="235" y="0" type="line"/>
      <point x="235" y="327" type="line"/>
      <point x="158" y="327" type="line"/>
      <point x="158" y="406" type="line"/>
    </contour>
  </outline>
</glyph>
<glyph name="Utilde" format="1">
  <advance width="722"/>
  <unicode hex="0168"/>
  <outline>
    <contour>
      <point x="479" y="957" type="curve"/>
      <point x="542" y="957" type="line"/>
      <point x="538" y="872"/>
      <point x="506" y="830"/>
      <point x="447" y="830" type="curve" smooth="yes"/>
      <point x="432" y="830"/>
      <point x="413" y="834"/>
      <point x="392" y="842" type="curve" smooth="yes"/>
      <point x="321" y="868" type="line" smooth="yes"/>
      <point x="309" y="872"/>
      <point x="300" y="874"/>
      <point x="291" y="874" type="curve" smooth="yes"/>
      <point x="267" y="874"/>
      <point x="256" y="861"/>
      <point x="251" y="829" type="curve"/>
      <point x="188" y="829" type="line"/>
      <point x="192" y="907"/>
      <point x="227" y="953"/>
      <point x="282" y="953" type="curve" smooth="yes"/>
      <point x="301" y="953"/>
      <point x="302" y="953"/>
      <point x="338" y="940" type="curve" smooth="yes"/>
      <point x="409" y="915" type="line" smooth="yes"/>
      <point x="416" y="912"/>
      <point x="436" y="909"/>
      <point x="443" y="909" type="curve" smooth="yes"/>
      <point x="464" y="909"/>
      <point x="476" y="925"/>
    </contour>
    <contour>
      <point x="504" y="729" type="line"/>
      <point x="654" y="729" type="line"/>
      <point x="654" y="235" type="line" smooth="yes"/>
      <point x="654" y="153"/>
      <point x="632" y="95"/>
      <point x="583" y="51" type="curve" smooth="yes"/>
      <point x="530" y="3"/>
      <point x="453" y="-23"/>
      <point x="365" y="-23" type="curve" smooth="yes"/>
      <point x="277" y="-23"/>
      <point x="200" y="3"/>
      <point x="147" y="51" type="curve" smooth="yes"/>
      <point x="98" y="95"/>
      <point x="76" y="153"/>
      <point x="76" y="235" type="curve" smooth="yes"/>
      <point x="76" y="729" type="line"/>
      <point x="226" y="729" type="line"/>
      <point x="226" y="235" type="line" smooth="yes"/>
      <point x="226" y="147"/>
      <point x="271" y="105"/>
      <point x="365" y="105" type="curve" smooth="yes"/>
      <point x="459" y="105"/>
      <point x="504" y="147"/>
      <point x="504" y="235" type="curve" smooth="yes"/>
    </contour>
  </outline>
</glyph>
<glyph name="utilde" format="1">
  <advance width="611"/>
  <unicode hex="0169"/>
  <outline>
    <contour>
      <point x="413" y="768" type="curve"/>
      <point x="476" y="768" type="line"/>
      <point x="472" y="683"/>
      <point x="440" y="641"/>
      <point x="381" y="641" type="curve" smooth="yes"/>
      <point x="366" y="641"/>
      <point x="347" y="645"/>
      <point x="326" y="653" type="curve" smooth="yes"/>
      <point x="255" y="679" type="line" smooth="yes"/>
      <point x="243" y="683"/>
      <point x="234" y="685"/>
      <point x="225" y="685" type="curve" smooth="yes"/>
      <point x="201" y="685"/>
      <point x="190" y="672"/>
      <point x="185" y="640" type="curve"/>
      <point x="122" y="640" type="line"/>
      <point x="126" y="718"/>
      <point x="161" y="764"/>
      <point x="216" y="764" type="curve" smooth="yes"/>
      <point x="235" y="764"/>
      <point x="236" y="764"/>
      <point x="272" y="751" type="curve" smooth="yes"/>
      <point x="343" y="726" type="line" smooth="yes"/>
      <point x="350" y="723"/>
      <point x="370" y="720"/>
      <point x="377" y="720" type="curve" smooth="yes"/>
      <point x="398" y="720"/>
      <point x="410" y="736"/>
    </contour>
    <contour>
      <point x="541" y="0" type="line"/>
      <point x="401" y="0" type="line"/>
      <point x="401" y="64" type="line"/>
      <point x="361" y="4"/>
      <point x="312" y="-23"/>
      <point x="239" y="-23" type="curve" smooth="yes"/>
      <point x="124" y="-23"/>
      <point x="58" y="45"/>
      <point x="58" y="164" type="curve" smooth="yes"/>
      <point x="58" y="540" type="line"/>
      <point x="198" y="540" type="line"/>
      <point x="198" y="193" type="line" smooth="yes"/>
      <point x="198" y="128"/>
      <point x="228" y="96"/>
      <point x="288" y="96" type="curve" smooth="yes"/>
      <point x="356" y="96"/>
      <point x="401" y="138"/>
      <point x="401" y="202" type="curve" smooth="yes"/>
      <point x="401" y="540" type="line"/>
      <point x="541" y="540" type="line"/>
    </contour>
  </outline>
</glyph>
<glyph name="Ubreve" format="1">
  <advance width="722"/>
  <unicode hex="016C"/>
  <outline>
    <contour>
      <point x="497" y="972" type="line"/>
      <point x="497" y="961" type="line" smooth="yes"/>
      <point x="497" y="886"/>
      <point x="440" y="829"/>
      <point x="365" y="829" type="curve" smooth="yes"/>
      <point x="290" y="829"/>
      <point x="233" y="886"/>
      <point x="233" y="962" type="curve" smooth="yes"/>
      <point x="233" y="972" type="line"/>
      <point x="289" y="972" type="line"/>
      <point x="295" y="928"/>
      <point x="320" y="906"/>
      <point x="366" y="906" type="curve" smooth="yes"/>
      <point x="410" y="906"/>
      <point x="433" y="926"/>
      <point x="441" y="972" type="curve"/>
    </contour>
    <contour>
      <point x="504" y="729" type="line"/>
      <point x="654" y="729" type="line"/>
      <point x="654" y="235" type="line" smooth="yes"/>
      <point x="654" y="153"/>
      <point x="632" y="95"/>
      <point x="583" y="51" type="curve" smooth="yes"/>
      <point x="530" y="3"/>
      <point x="453" y="-23"/>
      <point x="365" y="-23" type="curve" smooth="yes"/>
      <point x="277" y="-23"/>
      <point x="200" y="3"/>
      <point x="147" y="51" type="curve" smooth="yes"/>
      <point x="98" y="95"/>
      <point x="76" y="153"/>
      <point x="76" y="235" type="curve" smooth="yes"/>
      <point x="76" y="729" type="line"/>
      <point x="226" y="729" type="line"/>
      <point x="226" y="235" type="line" smooth="yes"/>
      <point x="226" y="147"/>
      <point x="271" y="105"/>
      <point x="365" y="105" type="curve" smooth="yes"/>
      <point x="459" y="105"/>
      <point x="504" y="147"/>
      <point x="504" y="235" type="curve" smooth="yes"/>
    </contour>
  </outline>
</glyph>
<glyph name="ubreve" format="1">
  <advance width="611"/>
  <unicode hex="016D"/>
  <outline>
    <contour>
      <point x="432" y="783" type="line"/>
      <point x="432" y="772" type="line" smooth="yes"/>
      <point x="432" y="697"/>
      <point x="375" y="640"/>
      <point x="300" y="640" type="curve" smooth="yes"/>
      <point x="225" y="640"/>
      <point x="168" y="697"/>
      <point x="168" y="773" type="curve" smooth="yes"/>
      <point x="168" y="783" type="line"/>
      <point x="224" y="783" type="line"/>
      <point x="230" y="739"/>
      <point x="255" y="717"/>
      <point x="301" y="717" type="curve" smooth="yes"/>
      <point x="345" y="717"/>
      <point x="368" y="737"/>
      <point x="376" y="783" type="curve"/>
    </contour>
    <contour>
      <point x="541" y="0" type="line"/>
      <point x="401" y="0" type="line"/>
      <point x="401" y="64" type="line"/>
      <point x="361" y="4"/>
      <point x="312" y="-23"/>
      <point x="239" y="-23" type="curve" smooth="yes"/>
      <point x="124" y="-23"/>
      <point x="58" y="45"/>
      <point x="58" y="164" type="curve" smooth="yes"/>
      <point x="58" y="540" type="line"/>
      <point x="198" y="540" type="line"/>
      <point x="198" y="193" type="line" smooth="yes"/>
      <point x="198" y="128"/>
      <point x="228" y="96"/>
      <point x="288" y="96" type="curve" smooth="yes"/>
      <point x="356" y="96"/>
      <point x="401" y="138"/>
      <point x="401" y="202" type="curve" smooth="yes"/>
      <point x="401" y="540" type="line"/>
      <point x="541" y="540" type="line"/>
    </contour>
  </outline>
</glyph>
<glyph name="Uring" format="1">
  <advance width="722"/>
  <unicode hex="016E"/>
  <outline>
    <contour>
      <point x="504" y="729" type="line"/>
      <point x="654" y="729" type="line"/>
      <point x="654" y="235" type="line" smooth="yes"/>
      <point x="654" y="153"/>
      <point x="632" y="95"/>
      <point x="583" y="51" type="curve" smooth="yes"/>
      <point x="530" y="3"/>
      <point x="453" y="-23"/>
      <point x="365" y="-23" type="curve" smooth="yes"/>
      <point x="277" y="-23"/>
      <point x="200" y="3"/>
      <point x="147" y="51" type="curve" smooth="yes"/>
      <point x="98" y="95"/>
      <point x="76" y="153"/>
      <point x="76" y="235" type="curve" smooth="yes"/>
      <point x="76" y="729" type="line"/>
      <point x="226" y="729" type="line"/>
      <point x="226" y="235" type="line" smooth="yes"/>
      <point x="226" y="147"/>
      <point x="271" y="105"/>
      <point x="365" y="105" type="curve" smooth="yes"/>
      <point x="459" y="105"/>
      <point x="504" y="147"/>
      <point x="504" y="235" type="curve" smooth="yes"/>
    </contour>
    <contour>
      <point x="366" y="949" type="curve" smooth="yes"/>
      <point x="416" y="949"/>
      <point x="455" y="909"/>
      <point x="455" y="858" type="curve" smooth="yes"/>
      <point x="455" y="809"/>
      <point x="414" y="769"/>
      <point x="365" y="769" type="curve" smooth="yes"/>
      <point x="315" y="769"/>
      <point x="275" y="809"/>
      <point x="275" y="859" type="curve" smooth="yes"/>
      <point x="275" y="909"/>
      <point x="315" y="949"/>
    </contour>
    <contour>
      <point x="366" y="901" type="curve" smooth="yes"/>
      <point x="342" y="901"/>
      <point x="323" y="882"/>
      <point x="323" y="859" type="curve" smooth="yes"/>
      <point x="323" y="836"/>
      <point x="342" y="817"/>
      <point x="366" y="817" type="curve" smooth="yes"/>
      <point x="388" y="817"/>
      <point x="407" y="836"/>
      <point x="407" y="859" type="curve" smooth="yes"/>
      <point x="407" y="882"/>
      <point x="389" y="901"/>
    </contour>
  </outline>
</glyph>
<glyph name="uogonek" format="1">
  <advance width="611"/>
  <unicode hex="0173"/>
  <outline>
    <contour>
      <point x="465" y="0" type="curve"/>
      <point x="401" y="0" type="line"/>
      <point x="401" y="64" type="line"/>
      <point x="361" y="4"/>
      <point x="312" y="-23"/>
      <point x="239" y="-23" type="curve" smooth="yes"/>
      <point x="124" y="-23"/>
      <point x="58" y="45"/>
      <point x="58" y="164" type="curve" smooth="yes"/>
      <point x="58" y="540" type="line"/>
      <point x="198" y="540" type="line"/>
      <point x="198" y="193" type="line" smooth="yes"/>
      <point x="198" y="128"/>
      <point x="228" y="96"/>
      <point x="288" y="96" type="curve" smooth="yes"/>
      <point x="356" y="96"/>
      <point x="401" y="138"/>
      <point x="401" y="202" type="curve" smooth="yes"/>
      <point x="401" y="540" type="line"/>
      <point x="541" y="540" type="line"/>
      <point x="541" y="0" type="line"/>
      <point x="468" y="-37"/>
      <point x="430" y="-82"/>
      <point x="430" y="-129" type="curve" smooth="yes"/>
      <point x="430" y="-165"/>
      <point x="454" y="-182"/>
      <point x="506" y="-182" type="curve" smooth="yes"/>
      <point x="526" y="-182"/>
      <point x="545" y="-180"/>
      <point x="564" y="-177" type="curve"/>
      <point x="564" y="-224" type="line"/>
      <point x="536" y="-231"/>
      <point x="516" y="-233"/>
      <point x="489" y="-233" type="curve" smooth="yes"/>
      <point x="395" y="-233"/>
      <point x="340" y="-198"/>
      <point x="340" y="-138" type="curve" smooth="yes"/>
      <point x="340" y="-95"/>
      <point x="370" y="-49"/>
      <point x="419" y="-21" type="curve" smooth="yes"/>
      <point x="433" y="-12"/>
      <point x="441" y="-9"/>
    </contour>
  </outline>
</glyph>
<glyph name="Wcircumflex" format="1">
  <advance width="944"/>
  <unicode hex="0174"/>
  <outline>
    <contour>
      <point x="421" y="979" type="line"/>
      <point x="528" y="979" type="line"/>
      <point x="631" y="829" type="line"/>
      <point x="553" y="829" type="line"/>
      <point x="471" y="929" type="line"/>
      <point x="389" y="829" type="line"/>
      <point x="313" y="829" type="line"/>
    </contour>
    <contour>
      <point x="730" y="0" type="line"/>
      <point x="595" y="0" type="line"/>
      <point x="473" y="569" type="line"/>
      <point x="354" y="0" type="line"/>
      <point x="219" y="0" type="line"/>
      <point x="13" y="729" type="line"/>
      <point x="172" y="729" type="line"/>
      <point x="285" y="183" type="line"/>
      <point x="398" y="729" type="line"/>
      <point x="546" y="729" type="line"/>
      <point x="664" y="182" type="line"/>
      <point x="773" y="729" type="line"/>
      <point x="932" y="729" type="line"/>
    </contour>
  </outline>
</glyph>
<glyph name="wcircumflex" format="1">
  <advance width="778"/>
  <unicode hex="0175"/>
  <outline>
    <contour>
      <point x="335" y="790" type="line"/>
      <point x="442" y="790" type="line"/>
      <point x="545" y="640" type="line"/>
      <point x="467" y="640" type="line"/>
      <point x="385" y="740" type="line"/>
      <point x="303" y="640" type="line"/>
      <point x="227" y="640" type="line"/>
    </contour>
    <contour>
      <point x="613" y="0" type="line"/>
      <point x="468" y="0" type="line"/>
      <point x="387" y="381" type="line"/>
      <point x="301" y="0" type="line"/>
      <point x="157" y="0" type="line"/>
      <point x="5" y="540" type="line"/>
      <point x="150" y="540" type="line"/>
      <point x="236" y="162" type="line"/>
      <point x="318" y="540" type="line"/>
      <point x="458" y="540" type="line"/>
      <point x="539" y="162" type="line"/>
      <point x="621" y="540" type="line"/>
      <point x="766" y="540" type="line"/>
    </contour>
  </outline>
</glyph>
<glyph name="Ydieresis" format="1">
  <advance width="667"/>
  <unicode hex="0178"/>
  <outline>
    <contour>
      <point x="419" y="270" type="line"/>
      <point x="419" y="0" type="line"/>
      <point x="269" y="0" type="line"/>
      <point x="269" y="270" type="line"/>
      <point x="27" y="729" type="line"/>
      <point x="194" y="729" type="line"/>
      <point x="343" y="407" type="line"/>
      <point x="482" y="729" type="line"/>
      <point x="650" y="729" type="line"/>
    </contour>
    <contour>
      <point x="304" y="922" type="line"/>
      <point x="304" y="800" type="line"/>
      <point x="194" y="800" type="line"/>
      <point x="194" y="922" type="line"/>
    </contour>
    <contour>
      <point x="490" y="922" type="line"/>
      <point x="490" y="800" type="line"/>
      <point x="380" y="800" type="line"/>
      <point x="380" y="922" type="line"/>
    </contour>
  </outline>
</glyph>
<glyph name="Zdotaccent" format="1">
  <advance width="611"/>
  <unicode hex="017B"/>
  <outline>
    <contour>
      <point x="578" y="729" type="line"/>
      <point x="578" y="604" type="line"/>
      <point x="206" y="125" type="line"/>
      <point x="578" y="125" type="line"/>
      <point x="578" y="0" type="line"/>
      <point x="30" y="0" type="line"/>
      <point x="30" y="125" type="line"/>
      <point x="403" y="604" type="line"/>
      <point x="30" y="604" type="line"/>
      <point x="30" y="729" type="line"/>
    </contour>
    <contour>
      <point x="362" y="922" type="line"/>
      <point x="362" y="800" type="line"/>
      <point x="252" y="800" type="line"/>
      <point x="252" y="922" type="line"/>
    </contour>
  </outline>
</glyph>
<glyph name="zdotaccent" format="1">
  <advance width="500"/>
  <unicode hex="017C"/>
  <outline>
    <contour>
      <point x="459" y="540" type="line"/>
      <point x="459" y="427" type="line"/>
      <point x="194" y="113" type="line"/>
      <point x="468" y="113" type="line"/>
      <point x="468" y="0" type="line"/>
      <point x="21" y="0" type="line"/>
      <point x="21" y="113" type="line"/>
      <point x="288" y="427" type="line"/>
      <point x="39" y="427" type="line"/>
      <point x="39" y="540" type="line"/>
    </contour>
    <contour>
      <point x="306" y="743" type="line"/>
      <point x="306" y="621" type="line"/>
      <point x="196" y="621" type="line"/>
      <point x="196" y="743" type="line"/>
    </contour>
  </outline>
</glyph>
<glyph name="Zcaron" format="1">
  <advance width="611"/>
  <unicode hex="017D"/>
  <outline>
    <contour>
      <point x="578" y="729" type="line"/>
      <point x="578" y="604" type="line"/>
      <point x="206" y="125" type="line"/>
      <point x="578" y="125" type="line"/>
      <point x="578" y="0" type="line"/>
      <point x="30" y="0" type="line"/>
      <point x="30" y="125" type="line"/>
      <point x="403" y="604" type="line"/>
      <point x="30" y="604" type="line"/>
      <point x="30" y="729" type="line"/>
    </contour>
    <contour>
      <point x="358" y="786" type="line"/>
      <point x="251" y="786" type="line"/>
      <point x="148" y="936" type="line"/>
      <point x="226" y="936" type="line"/>
      <point x="308" y="839" type="line"/>
      <point x="390" y="936" type="line"/>
      <point x="466" y="936" type="line"/>
    </contour>
  </outline>
</glyph>
<glyph name="florin" format="1">
  <advance width="556"/>
  <unicode hex="0192"/>
  <outline>
    <contour>
      <point x="500" y="480" type="line"/>
      <point x="500" y="383" type="line"/>
      <point x="363" y="383" type="line"/>
      <point x="304" y="1" type="line" smooth="yes"/>
      <point x="291" y="-84"/>
      <point x="270" y="-138"/>
      <point x="236" y="-172" type="curve" smooth="yes"/>
      <point x="206" y="-202"/>
      <point x="160" y="-220"/>
      <point x="111" y="-220" type="curve" smooth="yes"/>
      <point x="79" y="-220"/>
      <point x="52" y="-214"/>
      <point x="21" y="-198" type="curve"/>
      <point x="45" y="-83" type="line"/>
      <point x="70" y="-98"/>
      <point x="86" y="-104"/>
      <point x="102" y="-104" type="curve" smooth="yes"/>
      <point x="137" y="-104"/>
      <point x="154" y="-76"/>
      <point x="167" y="7" type="curve" smooth="yes"/>
      <point x="227" y="383" type="line"/>
      <point x="104" y="383" type="line"/>
      <point x="104" y="480" type="line"/>
      <point x="242" y="480" type="line"/>
      <point x="253" y="539" type="line"/>
      <point x="276" y="681"/>
      <point x="334" y="744"/>
      <point x="439" y="744" type="curve" smooth="yes"/>
      <point x="470" y="744"/>
      <point x="492" y="740"/>
      <point x="535" y="727" type="curve"/>
      <point x="515" y="612" type="line"/>
      <point x="486" y="625"/>
      <point x="476" y="628"/>
      <point x="460" y="628" type="curve" smooth="yes"/>
      <point x="420" y="628"/>
      <point x="396" y="593"/>
      <point x="384" y="521" type="curve" smooth="yes"/>
      <point x="377" y="480" type="line"/>
    </contour>
  </outline>
</glyph>
<glyph name="breve" format="1">
  <advance width="333"/>
  <unicode hex="02D8"/>
  <outline>
    <contour>
      <point x="299" y="748" type="line"/>
      <point x="299" y="737" type="line" smooth="yes"/>
      <point x="299" y="662"/>
      <point x="242" y="605"/>
      <point x="167" y="605" type="curve" smooth="yes"/>
      <point x="92" y="605"/>
      <point x="35" y="662"/>
      <point x="35" y="738" type="curve" smooth="yes"/>
      <point x="35" y="748" type="line"/>
      <point x="91" y="748" type="line"/>
      <point x="97" y="704"/>
      <point x="122" y="682"/>
      <point x="168" y="682" type="curve" smooth="yes"/>
      <point x="212" y="682"/>
      <point x="235" y="702"/>
      <point x="243" y="748" type="curve"/>
    </contour>
  </outline>
</glyph>
<glyph name="dotaccent" format="1">
  <advance width="333"/>
  <unicode hex="02D9"/>
  <outline>
    <contour>
      <point x="222" y="743" type="line"/>
      <point x="222" y="621" type="line"/>
      <point x="112" y="621" type="line"/>
      <point x="112" y="743" type="line"/>
    </contour>
  </outline>
</glyph>
<glyph name="ogonek" format="1">
  <advance width="333"/>
  <unicode hex="02DB"/>
  <outline>
    <contour>
      <point x="169" y="0" type="curve"/>
      <point x="244" y="0" type="line"/>
      <point x="159" y="-53"/>
      <point x="135" y="-82"/>
      <point x="135" y="-133" type="curve" smooth="yes"/>
      <point x="135" y="-167"/>
      <point x="158" y="-183"/>
      <point x="211" y="-183" type="curve" smooth="yes"/>
      <point x="231" y="-183"/>
      <point x="250" y="-181"/>
      <point x="268" y="-177" type="curve"/>
      <point x="268" y="-224" type="line"/>
      <point x="241" y="-231"/>
      <point x="217" y="-234"/>
      <point x="189" y="-234" type="curve" smooth="yes"/>
      <point x="100" y="-234"/>
      <point x="45" y="-197"/>
      <point x="45" y="-139" type="curve" smooth="yes"/>
      <point x="45" y="-80"/>
      <point x="92" y="-28"/>
    </contour>
  </outline>
</glyph>
<glyph name="tilde" format="1">
  <advance width="333"/>
  <unicode hex="02DC"/>
  <outline>
    <contour>
      <point x="282" y="749" type="curve"/>
      <point x="345" y="749" type="line"/>
      <point x="341" y="664"/>
      <point x="309" y="622"/>
      <point x="250" y="622" type="curve" smooth="yes"/>
      <point x="235" y="622"/>
      <point x="216" y="626"/>
      <point x="195" y="634" type="curve" smooth="yes"/>
      <point x="124" y="660" type="line" smooth="yes"/>
      <point x="112" y="664"/>
      <point x="103" y="666"/>
      <point x="94" y="666" type="curve" smooth="yes"/>
      <point x="70" y="666"/>
      <point x="59" y="653"/>
      <point x="54" y="621" type="curve"/>
      <point x="-9" y="621" type="line"/>
      <point x="-5" y="699"/>
      <point x="30" y="745"/>
      <point x="85" y="745" type="curve" smooth="yes"/>
      <point x="104" y="745"/>
      <point x="105" y="745"/>
      <point x="141" y="732" type="curve" smooth="yes"/>
      <point x="212" y="707" type="line" smooth="yes"/>
      <point x="219" y="704"/>
      <point x="239" y="701"/>
      <point x="246" y="701" type="curve" smooth="yes"/>
      <point x="267" y="701"/>
      <point x="279" y="717"/>
    </contour>
  </outline>
</glyph>
<glyph name="mu" format="1">
  <advance width="611"/>
  <unicode hex="03BC"/>
  <outline>
    <contour>
      <point x="192" y="-220" type="line"/>
      <point x="58" y="-220" type="line"/>
      <point x="58" y="540" type="line"/>
      <point x="198" y="540" type="line"/>
      <point x="198" y="206" type="line" smooth="yes"/>
      <point x="198" y="167"/>
      <point x="202" y="149"/>
      <point x="216" y="129" type="curve" smooth="yes"/>
      <point x="230" y="108"/>
      <point x="254" y="96"/>
      <point x="282" y="96" type="curve" smooth="yes"/>
      <point x="341" y="96"/>
      <point x="383" y="140"/>
      <point x="383" y="202" type="curve" smooth="yes"/>
      <point x="383" y="540" type="line"/>
      <point x="523" y="540" type="line"/>
      <point x="523" y="150" type="line" smooth="yes"/>
      <point x="523" y="92"/>
      <point x="529" y="77"/>
      <point x="553" y="77" type="curve" smooth="yes"/>
      <point x="559" y="77"/>
      <point x="563" y="78"/>
      <point x="573" y="81" type="curve"/>
      <point x="573" y="-6" type="line"/>
      <point x="550" y="-18"/>
      <point x="531" y="-23"/>
      <point x="503" y="-23" type="curve" smooth="yes"/>
      <point x="456" y="-23"/>
      <point x="432" y="-9"/>
      <point x="408" y="31" type="curve"/>
      <point x="369" y="-9"/>
      <point x="338" y="-23"/>
      <point x="292" y="-23" type="curve" smooth="yes"/>
      <point x="251" y="-23"/>
      <point x="220" y="-12"/>
      <point x="192" y="15" type="curve"/>
    </contour>
  </outline>
</glyph>
<glyph name="afii10023" format="1">
  <advance width="709"/>
  <unicode hex="0401"/>
  <outline>
    <contour>
      <point x="232" y="314" type="line"/>
      <point x="232" y="125" type="line"/>
      <point x="627" y="125" type="line"/>
      <point x="627" y="0" type="line"/>
      <point x="82" y="0" type="line"/>
      <point x="82" y="729" type="line"/>
      <point x="609" y="729" type="line"/>
      <point x="609" y="604" type="line"/>
      <point x="232" y="604" type="line"/>
      <point x="232" y="439" type="line"/>
      <point x="581" y="439" type="line"/>
      <point x="581" y="314" type="line"/>
    </contour>
    <contour>
      <point x="310" y="922" type="line"/>
      <point x="310" y="800" type="line"/>
      <point x="200" y="800" type="line"/>
      <point x="200" y="922" type="line"/>
    </contour>
    <contour>
      <point x="496" y="922" type="line"/>
      <point x="496" y="800" type="line"/>
      <point x="386" y="800" type="line"/>
      <point x="386" y="922" type="line"/>
    </contour>
  </outline>
</glyph>
<glyph name="afii10051" format="1">
  <advance width="769"/>
  <unicode hex="0402"/>
  <outline>
    <contour>
      <point x="435" y="-47" type="line"/>
      <point x="460" y="-47" type="line" smooth="yes"/>
      <point x="518" y="-47"/>
      <point x="570" y="-10"/>
      <point x="570" y="56" type="curve" smooth="yes"/>
      <point x="570" y="276" type="line" smooth="yes"/>
      <point x="570" y="342"/>
      <point x="518" y="379"/>
      <point x="460" y="379" type="curve" smooth="yes"/>
      <point x="345" y="379" type="line"/>
      <point x="345" y="0" type="line"/>
      <point x="195" y="0" type="line"/>
      <point x="195" y="604" type="line"/>
      <point x="14" y="604" type="line"/>
      <point x="14" y="729" type="line"/>
      <point x="518" y="729" type="line"/>
      <point x="518" y="604" type="line"/>
      <point x="345" y="604" type="line"/>
      <point x="345" y="504" type="line"/>
      <point x="472" y="504" type="line" smooth="yes"/>
      <point x="620" y="504"/>
      <point x="720" y="408"/>
      <point x="720" y="282" type="curve" smooth="yes"/>
      <point x="720" y="50" type="line" smooth="yes"/>
      <point x="720" y="-76"/>
      <point x="620" y="-172"/>
      <point x="472" y="-172" type="curve" smooth="yes"/>
      <point x="435" y="-172" type="line"/>
    </contour>
  </outline>
</glyph>
<glyph name="afii10052" format="1">
  <advance width="611"/>
  <unicode hex="0403"/>
  <outline>
    <contour>
      <point x="499" y="951" type="line"/>
      <point x="373" y="801" type="line"/>
      <point x="303" y="801" type="line"/>
      <point x="373" y="951" type="line"/>
    </contour>
    <contour>
      <point x="232" y="0" type="line"/>
      <point x="82" y="0" type="line"/>
      <point x="82" y="729" type="line"/>
      <point x="594" y="729" type="line"/>
      <point x="594" y="604" type="line"/>
      <point x="232" y="604" type="line"/>
    </contour>
  </outline>
</glyph>
